<svg id="Layer_1" data-name="Layer 1" xmlns="http://www.w3.org/2000/svg" viewBox="0 0 201.19 129.19"><defs><style>.cls-1{fill:#fff;}</style></defs><title>client logo - nhp portfolioArtboard 17@1x</title><path class="cls-1" d="M29.21,71.39a4.67,4.67,0,0,1,1.6.25l.74-1.21a5.78,5.78,0,0,0-2.08-.3c-2.66,0-5.13,1.28-5.75,3.59-.52,1.94.64,3.41,3.68,3.41a8.32,8.32,0,0,0,2.32-.29l0-1.21a6.66,6.66,0,0,1-1.72.22c-1.76,0-2.57-.85-2.21-2.21A3.26,3.26,0,0,1,29.21,71.39Z"/><path class="cls-1" d="M56,71.8a3.16,3.16,0,0,0-2.1.77h0l.09-.66H52.33c-.09.43-.2.92-.36,1.51l-.86,3.23H53l.74-2.73a.83.83,0,0,1,.16-.37A1.43,1.43,0,0,1,55,73c.69,0,.86.41.69,1L55,76.65h1.91l.75-2.8C58.05,72.45,57.28,71.8,56,71.8Z"/><path class="cls-1" d="M63.3,71.8a3,3,0,0,0-1,.19,2.7,2.7,0,0,0-.88.49h0l.73-2.71H60.17l-1.84,6.88h1.9L61,73.84a.78.78,0,0,1,.15-.32A1.38,1.38,0,0,1,62.23,73c.71,0,.88.42.71,1l-.7,2.61h1.91l.74-2.76C65.27,72.45,64.52,71.8,63.3,71.8Z"/><path class="cls-1" d="M90.1,71.8a3.13,3.13,0,0,0-2.09.77h0l.09-.66H86.4c-.09.43-.19.92-.35,1.51l-.87,3.23h1.91l.73-2.73a1.15,1.15,0,0,1,.16-.37A1.43,1.43,0,0,1,89.11,73c.69,0,.85.41.69,1l-.71,2.63H91l.75-2.8C92.12,72.45,91.36,71.8,90.1,71.8Z"/><path class="cls-1" d="M98.59,70.12l-4.33,6.53h2l1-1.68h2.43l.2,1.68H102l-.88-6.53Zm-.74,3.75.89-1.39c.22-.38.49-.87.71-1.26h0c0,.38,0,.87.07,1.26l.16,1.39Z"/><polygon class="cls-1" points="102.65 76.65 104.55 76.65 105.82 71.91 103.92 71.91 102.65 76.65"/><path class="cls-1" d="M105,71.29h0a1.26,1.26,0,0,0,1.29-.78c.11-.45-.2-.79-.85-.79a1.27,1.27,0,0,0-1.29.79C104.06,70.94,104.38,71.29,105,71.29Z"/><path class="cls-1" d="M110.67,73.22l.37-1.39a2.21,2.21,0,0,0-.39,0,2.46,2.46,0,0,0-1.92,1h0l.16-.88h-1.63c-.07.41-.18.86-.37,1.56L106,76.65h1.9l.64-2.4a1.93,1.93,0,0,1,.13-.32,1.62,1.62,0,0,1,1.5-.75A3.67,3.67,0,0,1,110.67,73.22Z"/><path class="cls-1" d="M34.89,71.8c-2,0-3.54,1-3.95,2.51s.72,2.44,2.51,2.44h0a3.83,3.83,0,0,0,3.89-2.51C37.75,72.8,36.76,71.8,34.89,71.8Zm.48,2.47a1.73,1.73,0,0,1-1.6,1.43h0c-.8,0-1.08-.61-.86-1.42a1.75,1.75,0,0,1,1.63-1.42C35.4,72.86,35.56,73.58,35.37,74.27Z"/><path class="cls-1" d="M42.64,71.8a3.46,3.46,0,0,0-2.25.77h0l.09-.66H38.8c-.09.45-.21,1-.37,1.59l-1.36,5.07H39l.63-2.36h0a1.69,1.69,0,0,0,1.45.54,3.54,3.54,0,0,0,3.46-2.53A1.8,1.8,0,0,0,42.64,71.8Zm0,2.48a1.71,1.71,0,0,1-1.67,1.34c-.56,0-.91-.3-.93-.7a1.25,1.25,0,0,1,0-.31l.18-.65a1.39,1.39,0,0,1,.1-.26A1.63,1.63,0,0,1,41.66,73C42.51,73,42.79,73.53,42.59,74.28Z"/><path class="cls-1" d="M48.85,71.79a3.78,3.78,0,0,0-3.78,2.53c-.4,1.49.55,2.42,2.63,2.42a7.91,7.91,0,0,0,2.3-.3v-1a7.29,7.29,0,0,1-1.74.2c-.89,0-1.59-.29-1.49-.91h3.95a4.84,4.84,0,0,0,.22-.59C51.26,73,50.83,71.79,48.85,71.79Zm.44,1.94H47a1.55,1.55,0,0,1,1.45-1C49.35,72.77,49.39,73.38,49.29,73.73Z"/><path class="cls-1" d="M69.27,71.8a7.32,7.32,0,0,0-2.5.43l.1.94a5.27,5.27,0,0,1,1.79-.35c.94,0,1,.36,1,.61l0,.06c-2.17,0-3.75.58-4.08,1.81-.2.76.35,1.45,1.59,1.45A3.16,3.16,0,0,0,69,76.17h0v.48h1.71A5.35,5.35,0,0,1,71,75.5l.44-1.65C71.7,72.73,71.31,71.8,69.27,71.8Zm0,3.12a1.17,1.17,0,0,1-.1.26,1.48,1.48,0,0,1-1.14.54c-.42,0-.7-.19-.6-.56.15-.57,1-.75,2-.75Z"/><path class="cls-1" d="M77.11,72.47h0a1.54,1.54,0,0,0-1.5-.67,3.57,3.57,0,0,0-3.46,2.5c-.36,1.36.46,2.31,2,2.31A2.85,2.85,0,0,0,75.93,76h0l-.08.3A1.79,1.79,0,0,1,74,77.55a4,4,0,0,1-1.69-.36l-.67,1.12a6.3,6.3,0,0,0,4.74-.22A3.27,3.27,0,0,0,77.85,76l.7-2.64c.19-.7.32-1.1.43-1.41H77.33Zm-.6,1.37-.19.7a1.22,1.22,0,0,1-.17.39,1.4,1.4,0,0,1-1.17.59c-.79,0-1.09-.55-.91-1.26a1.71,1.71,0,0,1,1.62-1.34c.53,0,.82.26.85.65A1.31,1.31,0,0,1,76.51,73.84Z"/><path class="cls-1" d="M82.92,71.79a3.76,3.76,0,0,0-3.77,2.53c-.4,1.49.54,2.42,2.62,2.42a7.91,7.91,0,0,0,2.3-.3l0-1a7.38,7.38,0,0,1-1.75.2c-.89,0-1.59-.29-1.48-.91H84.8a2.86,2.86,0,0,0,.22-.59C85.34,73,84.9,71.79,82.92,71.79Zm.45,1.94H81.11a1.58,1.58,0,0,1,1.45-1C83.43,72.77,83.46,73.38,83.37,73.73Z"/><path class="cls-1" d="M115.67,71.8a3.46,3.46,0,0,0-2.25.77h0l.09-.66h-1.66c-.09.45-.21,1-.37,1.59l-1.36,5.07H112l.63-2.36h0a1.69,1.69,0,0,0,1.45.54,3.54,3.54,0,0,0,3.46-2.53A1.8,1.8,0,0,0,115.67,71.8Zm0,2.48A1.69,1.69,0,0,1,114,75.62c-.55,0-.91-.3-.93-.7a1.25,1.25,0,0,1,0-.31l.18-.65a1,1,0,0,1,.11-.26,1.59,1.59,0,0,1,1.34-.74C115.54,73,115.83,73.53,115.62,74.28Z"/><path class="cls-1" d="M122.07,71.8c-2,0-3.55,1-4,2.51s.73,2.44,2.52,2.44h0a3.85,3.85,0,0,0,3.9-2.51C124.92,72.8,123.93,71.8,122.07,71.8Zm.48,2.47A1.73,1.73,0,0,1,121,75.7h0c-.8,0-1.07-.61-.86-1.42a1.76,1.76,0,0,1,1.64-1.42C122.57,72.86,122.73,73.58,122.55,74.27Z"/><path class="cls-1" d="M127.51,72.79h-.05l.16-.88H126c-.07.41-.18.86-.37,1.56l-.86,3.18h1.9l.64-2.4a1.93,1.93,0,0,1,.13-.32,1.62,1.62,0,0,1,1.5-.75,3.8,3.8,0,0,1,.52,0l.37-1.39a2.21,2.21,0,0,0-.39,0A2.46,2.46,0,0,0,127.51,72.79Z"/><path class="cls-1" d="M132.12,74.72l.46-1.72h1.36l.3-1.09h-1.37l.34-1.29-2,.4-.24.89h-.81L129.9,73h.81l-.52,1.94c-.18.67-.13,1.13.15,1.41a2,2,0,0,0,1.33.4,5.42,5.42,0,0,0,1.26-.12l.29-1.12a3,3,0,0,1-.57,0C132.08,75.55,132,75.29,132.12,74.72Z"/><path class="cls-1" d="M137.14,72.83a3.51,3.51,0,0,1,1.25.26l.6-1a4.54,4.54,0,0,0-1.64-.28c-1.52,0-2.68.67-2.91,1.56-.16.56.18,1.1,1.37,1.42.65.18.81.3.74.55s-.34.39-.91.39a3.9,3.9,0,0,1-1.55-.35l-.62,1a4.59,4.59,0,0,0,1.89.34c1.75,0,2.82-.65,3-1.54.18-.68-.18-1.15-1.26-1.45-.7-.2-.91-.32-.84-.55S136.67,72.83,137.14,72.83Z"/><path class="cls-1" d="M151.25,46.27l-9.83,36.66h26.36l9.82-36.66Zm1.67,25.45h-2.28V70a.42.42,0,0,0-.41-.41H150a.41.41,0,0,0-.4.41v6.1a.4.4,0,0,0,.4.41h.25a.41.41,0,0,0,.41-.41V74.27h2.28v2.4a1.61,1.61,0,0,1-1.61,1.61h-2.4a1.61,1.61,0,0,1-1.61-1.61V69.42a1.62,1.62,0,0,1,1.61-1.62h2.4a1.62,1.62,0,0,1,1.61,1.62Zm6.85,2.15a1.61,1.61,0,0,1-1.62,1.62h-1.73v2.79h-2.27V67.8h4a1.62,1.62,0,0,1,1.62,1.62Zm6.78,4.42h-2.27V73.85h-1.14v4.44h-2.28V67.81h2.28v4.27h1.14V67.81h2.27Z"/><path class="cls-1" d="M157.08,69.57h-.66v4.16h.66a.41.41,0,0,0,.42-.41V70A.42.42,0,0,0,157.08,69.57Z"/></svg>