<svg id="Layer_1" data-name="Layer 1" xmlns="http://www.w3.org/2000/svg" viewBox="0 0 201.19 129.19"><defs><style>.cls-1{fill:#fff;}</style></defs><title>client logo - nhp portfolioArtboard 9@1x</title><path class="cls-1" d="M105.91,48.63l-.57-.77A12.6,12.6,0,0,0,104,49l.69.69A11.72,11.72,0,0,1,105.91,48.63Z"/><path class="cls-1" d="M106.79,46.93l.46.85a10.38,10.38,0,0,1,1.44-.65l-.34-.91A12.88,12.88,0,0,0,106.79,46.93Z"/><path class="cls-1" d="M102.14,53.6l-.91-.35a12,12,0,0,0-.49,1.65l.94.21A11.42,11.42,0,0,1,102.14,53.6Z"/><path class="cls-1" d="M103.67,50.85l-.77-.59A13.68,13.68,0,0,0,102,51.7l.85.47A10.29,10.29,0,0,1,103.67,50.85Z"/><path class="cls-1" d="M123.15,51.71a11.11,11.11,0,0,0-.94-1.44l-.77.59a10.75,10.75,0,0,1,.87,1.32Z"/><path class="cls-1" d="M111.77,46.47l-.07-1a12.2,12.2,0,0,0-1.7.24l.21.95A11.49,11.49,0,0,1,111.77,46.47Z"/><path class="cls-1" d="M121.08,49a11.61,11.61,0,0,0-1.3-1.12l-.58.78a10.69,10.69,0,0,1,1.2,1Z"/><path class="cls-1" d="M123.43,55.13l.95-.22a13,13,0,0,0-.5-1.64l-.91.34A9.88,9.88,0,0,1,123.43,55.13Z"/><path class="cls-1" d="M118.33,46.94a10.4,10.4,0,0,0-1.56-.71l-.34.9a12.49,12.49,0,0,1,1.44.66Z"/><path class="cls-1" d="M115.12,45.74a13.91,13.91,0,0,0-1.7-.24l-.07,1a11.86,11.86,0,0,1,1.57.22Z"/><path class="cls-1" d="M90.42,82.5l.18,1A12,12,0,0,0,92.27,83l-.3-.92A13,13,0,0,1,90.42,82.5Z"/><path class="cls-1" d="M87.24,82.7l-.06,1,.85,0c.29,0,.58,0,.86,0l0-1A14.23,14.23,0,0,1,87.24,82.7Z"/><path class="cls-1" d="M83.8,83a15.68,15.68,0,0,0,1.67.42l.18-1a10,10,0,0,1-1.55-.39Z"/><path class="cls-1" d="M76.09,76.55A12.35,12.35,0,0,0,77,78l.79-.56A10.45,10.45,0,0,1,77,76.11Z"/><path class="cls-1" d="M78.77,78.72l-.72.65a14.06,14.06,0,0,0,1.25,1.19l.62-.74A10.89,10.89,0,0,1,78.77,78.72Z"/><path class="cls-1" d="M80.69,81.58a13.79,13.79,0,0,0,1.51.83l.41-.88a12.71,12.71,0,0,1-1.4-.77Z"/><path class="cls-1" d="M96.14,79.81l.63.74A15.45,15.45,0,0,0,98,79.36l-.72-.65A10.89,10.89,0,0,1,96.14,79.81Z"/><path class="cls-1" d="M99.75,74.63l.91.32a11.64,11.64,0,0,0,.46-1.66l-.94-.19A13.93,13.93,0,0,1,99.75,74.63Z"/><path class="cls-1" d="M75.62,70.57v0a6.49,6.49,0,1,0-1,0v0c0,.34,0,.69,0,1l1-.07Q75.62,71,75.62,70.57Zm-4.74-6.49a4.26,4.26,0,1,1,4.25,4.26A4.26,4.26,0,0,1,70.88,64.08Z"/><path class="cls-1" d="M75.88,73.11l-.95.2A13.64,13.64,0,0,0,75.4,75l.91-.33A11.16,11.16,0,0,1,75.88,73.11Z"/><path class="cls-1" d="M98.29,77.46l.8.56a14.78,14.78,0,0,0,.88-1.48l-.86-.44A10.45,10.45,0,0,1,98.29,77.46Z"/><path class="cls-1" d="M93.46,81.52l.41.88a13.07,13.07,0,0,0,1.51-.83l-.52-.82A11.24,11.24,0,0,1,93.46,81.52Z"/><polygon class="cls-1" points="64.8 63.01 58.63 63.01 58.63 57.64 56.35 57.64 56.35 70.57 58.63 70.57 58.63 65.12 64.8 65.12 64.8 70.57 67.07 70.57 67.07 57.64 64.8 57.64 64.8 63.01"/><path class="cls-1" d="M88.25,57.64h-5.1V70.57h2.27V66.41H88c2.84,0,5.17-1.51,5.17-4.41v0C93.16,59.35,91.26,57.64,88.25,57.64Zm2.6,4.41c0,1.35-1.07,2.31-2.79,2.31H85.42V59.7h2.64c1.7,0,2.79.8,2.79,2.31Z"/><polygon class="cls-1" points="111.19 57.64 108.92 57.64 108.92 70.57 117.99 70.57 117.99 68.5 111.19 68.5 111.19 57.64"/><path class="cls-1" d="M138.54,65.32h3.3v2.42a5.27,5.27,0,0,1-3.12,1,4.32,4.32,0,0,1-4.39-4.62v0a4.38,4.38,0,0,1,4.19-4.57,5.08,5.08,0,0,1,3.62,1.39l1.44-1.72a7,7,0,0,0-5-1.76,6.59,6.59,0,0,0-6.67,6.69v0a6.42,6.42,0,0,0,6.71,6.65,8.22,8.22,0,0,0,5.39-2V63.35h-5.5Z"/><polygon class="cls-1" points="153.99 57.64 150.34 63.36 146.71 57.64 144.03 57.64 149.17 65.47 149.17 70.57 151.46 70.57 151.46 65.41 156.6 57.64 153.99 57.64"/><path class="cls-1" d="M101.4,57.62v0c0-.3,0-.61,0-.92l-1-.07c0,.33,0,.66,0,1v0a6.48,6.48,0,0,0,0,12.92v0c0,.31,0,.63,0,1l1,.07q0-.51,0-1v0a6.48,6.48,0,0,0,0-12.92Zm-.48,10.72a4.26,4.26,0,1,1,4.26-4.26A4.26,4.26,0,0,1,100.92,68.34Z"/><path class="cls-1" d="M124.67,57.62v0c0-.33,0-.66,0-1l-1,.08q0,.45,0,.9v0a6.5,6.5,0,1,0,1,0Zm-.48,10.72a4.26,4.26,0,1,1,4.26-4.26A4.26,4.26,0,0,1,124.19,68.34Z"/><path class="cls-1" d="M54.31,64.85a3.75,3.75,0,0,0-.77-.77,3.81,3.81,0,0,0-1.09-.53l-.82-.22L50.45,63l-1.09-.3-.56-.15A2.75,2.75,0,0,1,47.71,62a1.53,1.53,0,0,1-.19-1.86,1.55,1.55,0,0,1,.55-.5,2.4,2.4,0,0,1,.75-.27,4.43,4.43,0,0,1,.8-.08,3.24,3.24,0,0,1,1.89.51,2.12,2.12,0,0,1,.84,1.73h2.22a3.73,3.73,0,0,0-.39-1.75,3.83,3.83,0,0,0-1.06-1.27,4.64,4.64,0,0,0-1.54-.77,6.71,6.71,0,0,0-1.87-.26A6.94,6.94,0,0,0,48,57.7a4.63,4.63,0,0,0-1.49.69,3.47,3.47,0,0,0-1.06,1.16,3.37,3.37,0,0,0-.39,1.66,3.54,3.54,0,0,0,.13,1,2.86,2.86,0,0,0,.45.91,3.25,3.25,0,0,0,.86.77,4.64,4.64,0,0,0,1.36.56c.87.23,1.61.43,2.21.57s1.12.31,1.57.47a2,2,0,0,1,.72.49A1.57,1.57,0,0,1,52.7,67a1.75,1.75,0,0,1-.14.7,1.57,1.57,0,0,1-.46.61,2.58,2.58,0,0,1-.83.43,4.15,4.15,0,0,1-1.25.17,5,5,0,0,1-1.25-.15,3,3,0,0,1-1-.48,2.36,2.36,0,0,1-.69-.84,2.91,2.91,0,0,1-.25-1.24H44.6a4.74,4.74,0,0,0,.44,2,4,4,0,0,0,1.14,1.41,4.52,4.52,0,0,0,1.66.81,7.5,7.5,0,0,0,2,.27,7.67,7.67,0,0,0,1.85-.22,5,5,0,0,0,1.61-.7,3.7,3.7,0,0,0,1.15-1.24,3.54,3.54,0,0,0,.43-1.81,3.46,3.46,0,0,0-.15-1A3.11,3.11,0,0,0,54.31,64.85Z"/></svg>