<svg id="Layer_1" data-name="Layer 1" xmlns="http://www.w3.org/2000/svg" viewBox="0 0 201.19 129.19"><defs><style>.cls-1{fill:#fff;}</style></defs><title>client logo - nhp portfolioArtboard 16@1x</title><path class="cls-1" d="M62.61,58.11a.9.9,0,0,0-1.55,0l-3.24,5.61L56,60.48l-.09-.16-4.54-7.87a.91.91,0,0,0-.77-.44.88.88,0,0,0-.77.44L42.6,64.88,41,62.17a.88.88,0,0,0-1.54,0L34.44,70.9a.94.94,0,0,0,0,.89.9.9,0,0,0,.78.45h34A.9.9,0,0,0,70,70.9ZM50.55,54.68l3.47,6-.28.28-.43.42-.4-.34-1.65-1.38a.89.89,0,0,0-1.23.08l-1.61,1.76-.7.77-.92-.6-.22-.15ZM41.44,70.45H36.76l3.5-6.06,1.31,2.27.51.89.52.89,1.16,2Zm12.5,0H45.81l-2.18-3.79,2.06-3.57,1.69,1.1a.87.87,0,0,0,1.14-.14l2.25-2.46,2,1.7a.89.89,0,0,0,1.21,0l.94-1L56.8,65.5Zm7.77,0H56l1.83-3.17.52-.89.51-.89,3-5.16,5.85,10.11Z"/><polygon class="cls-1" points="75.06 72.24 78.43 72.24 78.43 66.06 83.73 66.06 83.73 63.13 78.43 63.13 78.43 59.92 84.59 59.92 84.59 56.96 75.06 56.96 75.06 72.24"/><path class="cls-1" d="M105.2,61.5a3.7,3.7,0,0,0-1.83.45A3.9,3.9,0,0,0,102,63.17V61.7H98.72V72.24H102v-6a2.21,2.21,0,0,1,.49-1.54,1.7,1.7,0,0,1,1.31-.52,1.57,1.57,0,0,1,1.15.39,1.93,1.93,0,0,1,.41,1.41v6.25h3.28v-6.9a4.13,4.13,0,0,0-.89-2.84A3.25,3.25,0,0,0,105.2,61.5Z"/><path class="cls-1" d="M117,66.31a10,10,0,0,0-1.54-.66l-.55-.17c-.4-.12-.7-.22-.91-.3a2,2,0,0,1-.52-.29.57.57,0,0,1-.19-.43.54.54,0,0,1,.26-.49,1.28,1.28,0,0,1,.72-.18,4.09,4.09,0,0,1,1.3.26,6.12,6.12,0,0,1,1.31.62l1.31-2.06a6.93,6.93,0,0,0-1.86-.82,7.47,7.47,0,0,0-2-.29,5.33,5.33,0,0,0-2,.37,3.25,3.25,0,0,0-1.46,1.1,3,3,0,0,0-.55,1.83,2.73,2.73,0,0,0,.44,1.6,3.15,3.15,0,0,0,1.06.94,11.09,11.09,0,0,0,1.55.64l.42.15c.39.12.7.23.91.32a1.62,1.62,0,0,1,.52.34.66.66,0,0,1,.2.49.67.67,0,0,1-.29.58,1.42,1.42,0,0,1-.82.21,4.41,4.41,0,0,1-1.6-.36,6.44,6.44,0,0,1-1.6-.87l-1.3,2.26a7.73,7.73,0,0,0,2.13,1,8.38,8.38,0,0,0,2.42.35,5.62,5.62,0,0,0,2.16-.38,3.22,3.22,0,0,0,1.48-1.15,3.26,3.26,0,0,0,.54-1.91,3.08,3.08,0,0,0-.43-1.68A3,3,0,0,0,117,66.31Z"/><rect class="cls-1" x="119.87" y="61.7" width="3.23" height="10.53"/><path class="cls-1" d="M122.4,57a1.72,1.72,0,0,0-.89-.24,1.77,1.77,0,0,0-.91.24,1.82,1.82,0,0,0-.67.65,1.65,1.65,0,0,0-.25.9,1.71,1.71,0,0,0,.25.91,1.9,1.9,0,0,0,.67.65,1.77,1.77,0,0,0,.91.24,1.72,1.72,0,0,0,.89-.24,1.8,1.8,0,0,0,.66-2.46A1.72,1.72,0,0,0,122.4,57Z"/><path class="cls-1" d="M141,57a1.72,1.72,0,0,0-.89-.24,1.79,1.79,0,0,0-.91.24,1.82,1.82,0,0,0-.67.65,1.74,1.74,0,0,0-.25.9,1.8,1.8,0,0,0,.25.91,1.9,1.9,0,0,0,.67.65,1.79,1.79,0,0,0,.91.24,1.72,1.72,0,0,0,.89-.24,1.8,1.8,0,0,0,.66-2.46A1.72,1.72,0,0,0,141,57Z"/><rect class="cls-1" x="138.42" y="61.7" width="3.23" height="10.53"/><path class="cls-1" d="M93.18,62.9a3.86,3.86,0,0,0-1.38-1.08,4.39,4.39,0,0,0-1.9-.39,4.66,4.66,0,0,0-2.51.72,5.19,5.19,0,0,0-1.84,2,6.25,6.25,0,0,0,0,5.67,5.14,5.14,0,0,0,1.84,2,4.73,4.73,0,0,0,2.51.7,4.58,4.58,0,0,0,1.91-.37A4,4,0,0,0,93.18,71v1.22h3.27V61.7H93.2Zm.41,4a3,3,0,0,1-.36,1.48,2.5,2.5,0,0,1-1,1,2.88,2.88,0,0,1-1.38.34,3,3,0,0,1-1.42-.34,2.56,2.56,0,0,1-1-1,3.24,3.24,0,0,1,0-3,2.56,2.56,0,0,1,1-1,2.9,2.9,0,0,1,1.42-.34,2.77,2.77,0,0,1,1.38.34,2.5,2.5,0,0,1,1,1A3,3,0,0,1,93.59,66.94Z"/><path class="cls-1" d="M134.45,62.2a4.94,4.94,0,0,0-2.55-.7,4.39,4.39,0,0,0-1.9.39,4,4,0,0,0-1.36,1V61.7h-3.25V77.19h3.25V71a3.68,3.68,0,0,0,1.41,1,4.59,4.59,0,0,0,1.85.36,4.94,4.94,0,0,0,2.56-.69,5,5,0,0,0,1.84-1.93A5.77,5.77,0,0,0,137,67a5.86,5.86,0,0,0-.68-2.83A5.07,5.07,0,0,0,134.45,62.2Zm-1.08,6.28a2.56,2.56,0,0,1-1,1,3.05,3.05,0,0,1-2.8,0,2.56,2.56,0,0,1-1-1,3.33,3.33,0,0,1,0-3,2.56,2.56,0,0,1,1-1,3.05,3.05,0,0,1,2.8,0,2.56,2.56,0,0,1,1,1,3.24,3.24,0,0,1,0,3Z"/><path class="cls-1" d="M151.41,62.9A3.86,3.86,0,0,0,150,61.82a4.39,4.39,0,0,0-1.9-.39,4.66,4.66,0,0,0-2.51.72,5.19,5.19,0,0,0-1.84,2,6.25,6.25,0,0,0,0,5.67,5.14,5.14,0,0,0,1.84,2,4.73,4.73,0,0,0,2.51.7,4.51,4.51,0,0,0,1.9-.37A3.93,3.93,0,0,0,151.41,71v1.22h3.27V61.7h-3.25Zm.41,4a3,3,0,0,1-.36,1.48,2.5,2.5,0,0,1-1,1,2.92,2.92,0,0,1-1.39.34,3,3,0,0,1-1.41-.34,2.5,2.5,0,0,1-1-1,3.24,3.24,0,0,1,0-3,2.5,2.5,0,0,1,1-1,2.88,2.88,0,0,1,1.41-.34,2.81,2.81,0,0,1,1.39.34,2.5,2.5,0,0,1,1,1A3,3,0,0,1,151.82,66.94Z"/><path class="cls-1" d="M166,62.5a3.28,3.28,0,0,0-2.55-1,3.7,3.7,0,0,0-1.83.45,4,4,0,0,0-1.38,1.22V61.7H157V72.24h3.27v-6a2.26,2.26,0,0,1,.5-1.54,1.7,1.7,0,0,1,1.3-.52,1.6,1.6,0,0,1,1.16.39,1.93,1.93,0,0,1,.41,1.41v6.25h3.28v-6.9A4.13,4.13,0,0,0,166,62.5Z"/></svg>