<svg id="Layer_1" data-name="Layer 1" xmlns="http://www.w3.org/2000/svg" viewBox="0 0 201.19 129.19"><defs><style>.cls-1{fill:#fff;fill-rule:evenodd;}</style></defs><title>client logo - nhp portfolioArtboard 15@1x</title><path class="cls-1" d="M155.72,58.62a.65.65,0,0,1-.5.59l.53.9h-.39l-.51-.87h-.36v.87h-.37V58h.9a.64.64,0,0,1,.7.62Zm-.36,0c0-.23-.17-.31-.4-.31h-.47V59H155c.23,0,.4-.08.4-.3Z"/><path class="cls-1" d="M153.14,59.06a1.73,1.73,0,1,1,1.73,1.73,1.73,1.73,0,0,1-1.73-1.73Zm1.73,1.45a1.46,1.46,0,1,0-1.45-1.45,1.45,1.45,0,0,0,1.45,1.45Z"/><path class="cls-1" d="M82.83,59.85a2.92,2.92,0,0,1-2.93,2.94,1.44,1.44,0,0,1-1.41-1.42c0-.72.39-.73.39-1.22a.67.67,0,0,0-.67-.66,1.07,1.07,0,0,0-1.08,1.08v7.59a.28.28,0,0,0,.23.25l.74.22c.11,0,.25.11.25.25v.61a.25.25,0,0,1-.25.25H73.29a.25.25,0,0,1-.25-.25V66.07c-1.36,1.41-4.12,4.06-5.55,4.06-1.59,0-1.39-1.72-2.58-1.72s-1.11,1.72-4,1.72c-3.12,0-5.67-2.94-5.67-6.6s2.55-6.59,5.67-6.59c2.56,0,3.14,1.38,3.77,1.38.38,0,.55-.3.63-.75a.31.31,0,0,1,.31-.25h4a.25.25,0,0,1,.25.25v.61c0,.14-.14.22-.25.25l-.75.22a.29.29,0,0,0-.22.25v6.71a.86.86,0,0,0,.86.81c.8,0,2.52-1.43,3.54-2.34V59.35a.44.44,0,0,0-.48-.45c-.3,0-.32.28-.71.28a.58.58,0,0,1-.58-.58,2.39,2.39,0,0,1,2.41-1.66c2.53,0,2.14,1.88,3,1.88s1-1.88,3.18-1.88a2.89,2.89,0,0,1,2.93,2.91ZM64.55,61.51c0-.83-1.14-1.66-2.19-1.66-1.94,0-3.18,1.52-3.18,3.68s1.24,3.72,3.18,3.72c1,0,2.19-.83,2.19-1.67V61.51Z"/><path class="cls-1" d="M84.1,65.6a3.88,3.88,0,0,0,4.09,4.14h8.4a3.61,3.61,0,0,0,3.72-3.63c0-3.4-5.22-3.09-5.22-5,0-.79.76-1.07,1.72-1.07a4.3,4.3,0,0,1,2.25.73.25.25,0,0,0,.39-.11l1.29-3a.24.24,0,0,0-.23-.33h-6a3.19,3.19,0,0,0-3.11,3.18c0,3.5,4.54,2.88,4.54,5.25a1.7,1.7,0,0,1-1.75,1.7,2.74,2.74,0,0,1-2.94-2.11.26.26,0,0,0-.34-.2l-.83.33a.26.26,0,0,0-.1.39.88.88,0,0,1,.22.62,1,1,0,1,1-2,0V49.09a.25.25,0,0,0-.25-.25H83.13a.25.25,0,0,0-.25.25v.61c0,.14.15.22.25.25l.75.22a.27.27,0,0,1,.22.25V65.6Z"/><path class="cls-1" d="M151.92,57.57v.61c0,.14-.14.22-.25.25l-.74.22c-.11,0-.23.12-.23.25V71.65a5.68,5.68,0,0,1-5.7,5.6,5.56,5.56,0,0,1-4.89-2.57c-1.28,2.27-5.4,7.15-17.41,7.15-6.61,0-17.84-3.27-23.68-3.27-8,0-13.31,2.17-18.81,7.7a.28.28,0,0,1-.4.07L69.55,80.72a.24.24,0,0,1,0-.39A39.42,39.42,0,0,1,93,71.6c13.59,0,23,6.74,34.2,6.74,9.41,0,12.15-4.72,12.15-6.3a.25.25,0,0,1,.25-.25h.94a.25.25,0,0,1,.25.25,2.82,2.82,0,0,0,2.93,2.78,2.85,2.85,0,0,0,2.85-3V69.38a.39.39,0,0,0-.43-.44c-.43,0-.84,1.19-3.22,1.19-3.13,0-5.67-2.94-5.67-6.6s2.54-6.59,5.67-6.59c2.55,0,3.13,1.38,3.76,1.38.39,0,.55-.3.64-.75a.3.3,0,0,1,.3-.25h4a.25.25,0,0,1,.25.25Zm-5.31,3.94c0-.83-1.13-1.66-2.19-1.66-1.93,0-3.18,1.52-3.18,3.68s1.25,3.72,3.18,3.72c1.06,0,2.19-.83,2.19-1.67V61.51Z"/><path class="cls-1" d="M138.39,56.66c0,2.55-1.6,3.91-2.93,3.91-1.57,0-1.36-1.08-2.38-1.08a1.13,1.13,0,0,0-1.16,1.08v7.59a.27.27,0,0,0,.22.25l.75.22c.1,0,.24.11.24.25v.61a.25.25,0,0,1-.24.25h-4.82a.25.25,0,0,1-.25-.25V60.68a.92.92,0,0,0-1-1,4.51,4.51,0,0,0-2,1c-.06,2.73-2.51,4.79-6.31,4.79A3.6,3.6,0,0,0,122,67.89a3.71,3.71,0,0,0,3.14-1.45c.33-.43,1.12-.26.75.6a5.84,5.84,0,0,1-5.36,3.09,6.57,6.57,0,0,1-6.43-5.19,8.19,8.19,0,0,1-2.09-.95V66.3a3.3,3.3,0,0,1-3.48,3.44h-2c-2.93,0-4.75-1.63-4.75-4.18V50.42c0-.14-.12-.21-.23-.25l-.74-.22c-.11,0-.25-.11-.25-.25v-.61a.25.25,0,0,1,.25-.25h4.81a.25.25,0,0,1,.25.25V65.92a1.9,1.9,0,0,0,2,1.74c.94,0,2-.36,2-1.66V62.67l-1.66-1A.7.7,0,0,1,108,61V57.57a.25.25,0,0,1,.25-.25h3.59a.25.25,0,0,1,.25.25v4.71a12.65,12.65,0,0,0,1.94,1,6.54,6.54,0,0,1,6.58-6.38,4.08,4.08,0,0,1,3.88,2.1c1.19-.92,3-2.1,4.48-2.1,1.65,0,1.65,1.35,2.46,1.35a.51.51,0,0,0,.5-.52c0-.34-.17-.6-.17-.92A1.27,1.27,0,0,1,133,55.69c1.19,0,1.87,1.25,2.9,1.25a1.07,1.07,0,0,0,1-1.11,3.83,3.83,0,0,0-1.44-2.22.51.51,0,0,1,.65-.79,4.32,4.32,0,0,1,2.31,3.84Zm-16,4a1.17,1.17,0,0,0-1.27-1.28c-1.39,0-2.85,1.67-2.85,4.47,2.68,0,4.12-2.14,4.12-3.19Z"/><path class="cls-1" d="M132.83,45.29a.56.56,0,0,1-.57-.57V43.57A.75.75,0,0,0,131,43a1.79,1.79,0,0,1-1.76.26,1.13,1.13,0,0,0-1.12,1.94,1.78,1.78,0,0,1,.65,1.66.75.75,0,0,0,1.12.76l1-.58a.57.57,0,1,1,.57,1l-1,.58a.76.76,0,0,0-.28,1,.79.79,0,0,0,.38.32,1.81,1.81,0,0,1,1.11,1.39,1.13,1.13,0,0,0,2.23,0,1.81,1.81,0,0,1,1.11-1.39.79.79,0,0,0,.38-.32.75.75,0,0,0-.28-1l-1-.58a.57.57,0,0,1,.57-1l1,.58a.75.75,0,0,0,1.12-.76,1.8,1.8,0,0,1,.65-1.66,1.13,1.13,0,0,0-1.12-1.94,1.8,1.8,0,0,1-1.76-.26.74.74,0,0,0-.46-.17.76.76,0,0,0-.76.76v1.15a.56.56,0,0,1-.56.57Z"/><path class="cls-1" d="M73.75,72.26A17,17,0,0,1,44.6,59.88c0-6.65,3.22-12.43,8.15-16.85a.9.9,0,0,1,.57-.22H74.69a.22.22,0,0,1,.17.38l-7.13,9.4a.25.25,0,0,1-.4,0,8.48,8.48,0,0,0-5.73-2.19c-5.81,0-10.43,5.8-10.43,11.57A12.92,12.92,0,0,0,64,74.74a13.24,13.24,0,0,0,8.83-3.38c.73-.68,1.59.21.89.9Z"/></svg>