<svg id="Layer_1" data-name="Layer 1" xmlns="http://www.w3.org/2000/svg" viewBox="0 0 201.19 129.19"><defs><style>.cls-1{fill:#fff;}</style></defs><title>client logo - nhp portfolioArtboard 10@1x</title><polygon class="cls-1" points="48.6 71.22 59.65 71.22 59.65 69.9 50.09 69.9 50.09 63.43 58.41 63.43 58.41 62.12 50.09 62.12 50.09 55.65 59.65 55.65 59.65 54.35 48.6 54.35 48.6 71.22"/><path class="cls-1" d="M73.5,54.35H65.35V71.22h1.48v-6.6H73.5A3.49,3.49,0,0,0,77.26,61V58a3.49,3.49,0,0,0-3.76-3.6m-6.67,1.3h6.5A2.23,2.23,0,0,1,75.77,58v3a2.23,2.23,0,0,1-2.44,2.33h-6.5Z"/><rect class="cls-1" x="82.91" y="54.35" width="1.49" height="16.87"/><polygon class="cls-1" points="102.26 68.48 92.32 54.35 90.96 54.35 90.96 71.22 92.45 71.22 92.45 57.09 102.36 71.15 102.41 71.22 103.74 71.22 103.74 54.35 102.26 54.35 102.26 68.48"/><rect class="cls-1" x="110.3" y="54.35" width="1.49" height="16.87"/><path class="cls-1" d="M129.5,54.35h-7.38a3.49,3.49,0,0,0-3.76,3.6v9.67a3.48,3.48,0,0,0,3.34,3.59l.38,3.63,2.9-3.62h4.52a3.48,3.48,0,0,0,3.76-3.6V58a3.49,3.49,0,0,0-3.76-3.6M131.76,58V67.6a2.22,2.22,0,0,1-2.44,2.3h-4.71l-1.7,2.16-.22-2.16h-.4a2.24,2.24,0,0,1-2.44-2.3V58a2.25,2.25,0,0,1,2.44-2.32h7A2.23,2.23,0,0,1,131.76,58"/><polygon class="cls-1" points="151.11 54.35 151.11 68.48 141.17 54.35 139.82 54.35 139.82 71.22 141.31 71.22 141.31 57.09 151.21 71.15 151.27 71.22 152.6 71.22 152.6 54.35 151.11 54.35"/></svg>