<svg id="Layer_1" data-name="Layer 1" xmlns="http://www.w3.org/2000/svg" xmlns:xlink="http://www.w3.org/1999/xlink" viewBox="0 0 201.19 129.19"><defs><style>.cls-1,.cls-10,.cls-11,.cls-12,.cls-13,.cls-14,.cls-15,.cls-16,.cls-2,.cls-3,.cls-4,.cls-5,.cls-6,.cls-7,.cls-8,.cls-9{fill:#fff;}.cls-1,.cls-10,.cls-11,.cls-12,.cls-13,.cls-14,.cls-15,.cls-16,.cls-3,.cls-4,.cls-5,.cls-6,.cls-7,.cls-8,.cls-9{stroke-miterlimit:10;opacity:0.9;}.cls-1,.cls-11,.cls-14,.cls-15,.cls-16,.cls-3,.cls-4,.cls-5,.cls-6,.cls-7{stroke-width:1.62px;}.cls-1{stroke:url(#linear-gradient);}.cls-3{stroke:url(#linear-gradient-2);}.cls-4{stroke:url(#linear-gradient-3);}.cls-5{stroke:url(#linear-gradient-4);}.cls-6{stroke:url(#linear-gradient-5);}.cls-7{stroke:url(#linear-gradient-6);}.cls-10,.cls-12,.cls-13,.cls-8,.cls-9{stroke-width:1.42px;}.cls-8{stroke:url(#linear-gradient-7);}.cls-9{stroke:url(#linear-gradient-8);}.cls-10{stroke:url(#linear-gradient-9);}.cls-11{stroke:url(#linear-gradient-10);}.cls-12{stroke:url(#linear-gradient-11);}.cls-13{stroke:url(#linear-gradient-12);}.cls-14{stroke:url(#linear-gradient-13);}.cls-15{stroke:url(#linear-gradient-14);}.cls-16{stroke:url(#linear-gradient-15);}</style><linearGradient id="linear-gradient" x1="38.88" y1="57.41" x2="60.5" y2="57.41" gradientUnits="userSpaceOnUse"><stop offset="0" stop-color="#e6e7e7"/><stop offset="1" stop-color="#a8aaad" stop-opacity="0.3"/></linearGradient><linearGradient id="linear-gradient-2" x1="42.08" y1="66.64" x2="60.85" y2="66.64" xlink:href="#linear-gradient"/><linearGradient id="linear-gradient-3" x1="45.73" y1="55.36" x2="60.75" y2="55.36" xlink:href="#linear-gradient"/><linearGradient id="linear-gradient-4" x1="45.73" y1="63.57" x2="60.77" y2="63.57" xlink:href="#linear-gradient"/><linearGradient id="linear-gradient-5" x1="31.92" y1="59.46" x2="60.34" y2="59.46" xlink:href="#linear-gradient"/><linearGradient id="linear-gradient-6" x1="31.7" y1="63.56" x2="60.57" y2="63.56" xlink:href="#linear-gradient"/><linearGradient id="linear-gradient-7" x1="45.6" y1="51.26" x2="60.88" y2="51.26" xlink:href="#linear-gradient"/><linearGradient id="linear-gradient-8" x1="56.12" y1="54.33" x2="61.01" y2="54.33" xlink:href="#linear-gradient"/><linearGradient id="linear-gradient-9" x1="59.99" y1="57.41" x2="67.81" y2="57.41" gradientUnits="userSpaceOnUse"><stop offset="0" stop-color="#a8aaad" stop-opacity="0.3"/><stop offset="0.99" stop-color="#e6e7e7"/></linearGradient><linearGradient id="linear-gradient-10" x1="34.88" y1="72.8" x2="60.94" y2="72.8" xlink:href="#linear-gradient"/><linearGradient id="linear-gradient-11" x1="59.67" y1="69.72" x2="68.12" y2="69.72" xlink:href="#linear-gradient-9"/><linearGradient id="linear-gradient-12" x1="59.81" y1="63.56" x2="67.99" y2="63.56" xlink:href="#linear-gradient-9"/><linearGradient id="linear-gradient-13" x1="52.47" y1="69.72" x2="61.11" y2="69.72" xlink:href="#linear-gradient"/><linearGradient id="linear-gradient-14" x1="24.72" y1="57.41" x2="60.44" y2="57.41" xlink:href="#linear-gradient"/><linearGradient id="linear-gradient-15" x1="52.62" y1="63.56" x2="60.96" y2="63.56" xlink:href="#linear-gradient"/></defs><title>client logo - nhp portfolioArtboard 11@1x</title><line class="cls-1" x1="39.03" y1="55.36" x2="60.34" y2="59.46"/><circle class="cls-2" cx="39.03" cy="55.36" r="1.22"/><line class="cls-3" x1="42.59" y1="73.82" x2="60.34" y2="59.46"/><line class="cls-4" x1="46.13" y1="51.26" x2="60.34" y2="59.46"/><line class="cls-5" x1="46.13" y1="67.67" x2="60.37" y2="59.48"/><line class="cls-6" x1="60.34" y1="59.46" x2="31.92" y2="59.46"/><line class="cls-7" x1="60.34" y1="59.46" x2="31.92" y2="67.67"/><line class="cls-8" x1="60.34" y1="59.46" x2="46.13" y2="43.05"/><line class="cls-9" x1="60.34" y1="59.46" x2="56.79" y2="49.21"/><line class="cls-10" x1="60.34" y1="59.46" x2="67.45" y2="55.36"/><line class="cls-11" x1="60.34" y1="59.46" x2="35.47" y2="86.13"/><line class="cls-12" x1="60.34" y1="59.46" x2="67.45" y2="79.97"/><line class="cls-13" x1="60.34" y1="59.46" x2="67.45" y2="67.67"/><line class="cls-14" x1="53.24" y1="79.97" x2="60.34" y2="59.46"/><line class="cls-15" x1="24.81" y1="55.36" x2="60.34" y2="59.46"/><line class="cls-16" x1="60.34" y1="59.46" x2="53.24" y2="67.67"/><circle class="cls-2" cx="24.81" cy="55.36" r="1.22"/><circle class="cls-2" cx="60.34" cy="59.46" r="1.22"/><circle class="cls-2" cx="46.13" cy="51.26" r="1.22"/><circle class="cls-2" cx="31.92" cy="59.46" r="1.22"/><circle class="cls-2" cx="31.92" cy="67.67" r="1.22"/><circle class="cls-2" cx="46.13" cy="43.06" r="1.22"/><circle class="cls-2" cx="56.79" cy="49.21" r="1.22"/><circle class="cls-2" cx="67.45" cy="55.36" r="1.22"/><circle class="cls-2" cx="35.47" cy="86.13" r="1.22"/><circle class="cls-2" cx="67.45" cy="79.97" r="1.22"/><circle class="cls-2" cx="67.41" cy="67.6" r="1.22"/><circle class="cls-2" cx="46.13" cy="67.67" r="1.22"/><circle class="cls-2" cx="42.58" cy="73.82" r="1.22"/><circle class="cls-2" cx="53.24" cy="79.97" r="1.22"/><circle class="cls-2" cx="53.24" cy="67.67" r="1.22"/><circle class="cls-2" cx="24.81" cy="55.36" r="1.22"/><path class="cls-2" d="M82.92,67.53H78.11V56.31h4.44a5.64,5.64,0,0,1,5.65,5.62A5.5,5.5,0,0,1,82.92,67.53Zm-.19-2.08A3.43,3.43,0,0,0,86,61.93a3.48,3.48,0,0,0-3.41-3.53H80.32v7.05Z"/><path class="cls-2" d="M91.4,63.84a2.39,2.39,0,0,0,2.47,1.92,2.76,2.76,0,0,0,2.22-1.06l1.42,1.18a4.77,4.77,0,0,1-3.9,1.78,4.47,4.47,0,0,1,0-8.93c2.66,0,4.2,1.93,4.2,4.62,0,.17,0,.35,0,.49Zm0-1.42H95.7a1.91,1.91,0,0,0-2.09-1.92A2.25,2.25,0,0,0,91.42,62.42Z"/><path class="cls-2" d="M106.71,65.92a4.16,4.16,0,0,1-3.34,1.74,4.47,4.47,0,1,1,0-8.93,4.18,4.18,0,0,1,3.37,1.72l-1.43,1.32a2.35,2.35,0,0,0-1.94-1.05,2.48,2.48,0,1,0,0,5,2.32,2.32,0,0,0,1.94-1.07Z"/><path class="cls-2" d="M107.79,56.66a1.27,1.27,0,1,1,2.53,0,1.27,1.27,0,1,1-2.53,0Zm.17,2.23h2.22v8.64H108Z"/><path class="cls-2" d="M112.28,65.19a6.87,6.87,0,0,0,3,.7c1,0,1.41-.38,1.41-.83s-.49-.71-1.83-1c-1.86-.41-3.21-1-3.21-2.69s1.29-2.64,3.29-2.64a8.77,8.77,0,0,1,3.38.7l-.74,1.62a8.22,8.22,0,0,0-2.69-.55c-.84,0-1.27.3-1.27.76s.53.7,1.91,1c2,.41,3.17,1.11,3.17,2.69s-1.26,2.72-3.47,2.72a7.59,7.59,0,0,1-3.74-.83Z"/><path class="cls-2" d="M119.77,56.66a1.27,1.27,0,1,1,2.53,0,1.27,1.27,0,1,1-2.53,0Zm.18,2.23h2.21v8.64H120Z"/><path class="cls-2" d="M132.91,63.2a4.73,4.73,0,1,1-4.72-4.47A4.59,4.59,0,0,1,132.91,63.2Zm-2.18,0a2.55,2.55,0,1,0-2.54,2.47A2.5,2.5,0,0,0,130.73,63.2Z"/><path class="cls-2" d="M142.4,62.71v4.82h-2.21V62.71c0-1.34-.66-2-1.88-2a2.82,2.82,0,0,0-1.91.68v6.13h-2.21V58.89h2.21v.54a4,4,0,0,1,2.31-.7C141.24,58.73,142.4,59.91,142.4,62.71Z"/><path class="cls-2" d="M157,65.62v1.91H149V56.31h2.28v9.31Z"/><path class="cls-2" d="M166.82,58.89v8.64h-2.21v-.64a4.48,4.48,0,0,1-2.53.77,4.47,4.47,0,0,1,0-8.94,5.06,5.06,0,0,1,2.53.71v-.54Zm-2.21,2.58a3.3,3.3,0,0,0-2.13-.75,2.48,2.48,0,1,0,0,5,3.27,3.27,0,0,0,2.13-.73Z"/><path class="cls-2" d="M177.6,63.2a4.31,4.31,0,0,1-4.38,4.47,4.91,4.91,0,0,1-2.51-.68v.54H168.5v-12h2.21v3.85a5.35,5.35,0,0,1,2.51-.65A4.28,4.28,0,0,1,177.6,63.2Zm-2.18,0a2.48,2.48,0,0,0-2.6-2.48,3.32,3.32,0,0,0-2.11.73v3.47a3.27,3.27,0,0,0,2.11.75A2.44,2.44,0,0,0,175.42,63.2Z"/></svg>