<svg id="Layer_1" data-name="Layer 1" xmlns="http://www.w3.org/2000/svg" viewBox="0 0 201.19 129.19"><defs><style>.cls-1{fill:#fff;}</style></defs><title>client logo - nhp portfolioArtboard 3@1x</title><path class="cls-1" d="M72.43,59.25l-5-6.81H62.17L67.05,59a.41.41,0,0,1,0,.45L59.56,69.6l7.13,9.67c.26.35.11.64-.32.64H52.59a.82.82,0,0,1-.79-.39l-7.13-9.67a.37.37,0,0,1,0-.45L52,59.48a.63.63,0,0,1,.44-.22h4c.33,0,.44.21.24.48L49.43,69.6l5,6.79h5.24l-4.84-6.53a.38.38,0,0,1,0-.45l7.51-10.16-7.18-9.69c-.26-.35-.12-.64.32-.64H69.3a.92.92,0,0,1,.64.32L77.18,59a.41.41,0,0,1,0,.45L69.82,69.4a.6.6,0,0,1-.44.23h-4c-.33,0-.44-.22-.24-.48Z"/><path class="cls-1" d="M114.55,65.09c4.68,0,8.11,3.41,8.11,7.59s-3.43,7.59-8.11,7.59-8.12-3.41-8.12-7.59S109.87,65.09,114.55,65.09Zm0,2.91a4.68,4.68,0,1,0,4.62,4.68A4.51,4.51,0,0,0,114.55,68Z"/><path class="cls-1" d="M99.93,65.09a6.32,6.32,0,0,0-5.17,2.56,4.83,4.83,0,0,0-4.53-2.56,5.52,5.52,0,0,0-4.65,2.5v-1.8a.4.4,0,0,0-.4-.4h-2.7a.4.4,0,0,0-.4.4V79.51a.4.4,0,0,0,.4.4h2.7a.4.4,0,0,0,.4-.4V71.69c0-2.26,1.33-3.58,3.26-3.58s3.09,1.32,3.09,3.58v7.82a.4.4,0,0,0,.4.4H95a.4.4,0,0,0,.4-.4V71.69c0-2.34,1.35-3.58,3.26-3.58s3.09,1.27,3.09,3.58v7.82a.4.4,0,0,0,.4.4h2.69a.4.4,0,0,0,.4-.4V70.64C105.27,67.1,103.25,65.09,99.93,65.09Z"/><path class="cls-1" d="M130.85,79.91a.45.45,0,0,0,.39-.25l6-13.9a.24.24,0,0,0-.24-.37h-3.08a.46.46,0,0,0-.38.26l-4,10.41-4-10.41a.43.43,0,0,0-.38-.26h-3.07a.25.25,0,0,0-.25.37l6,13.9a.46.46,0,0,0,.39.25Z"/><path class="cls-1" d="M138.39,79.91a.4.4,0,0,1-.4-.4V65.79a.4.4,0,0,1,.4-.4h2.7a.4.4,0,0,1,.4.4V79.51a.4.4,0,0,1-.4.4Z"/><path class="cls-1" d="M138.3,62.73a.39.39,0,0,1-.39-.39V59.67a.4.4,0,0,1,.39-.4h2.88a.39.39,0,0,1,.39.4v2.67a.38.38,0,0,1-.39.39Z"/><path class="cls-1" d="M149.9,65.17c4.5,0,6.7,2,6.7,5.92v8.42a.4.4,0,0,1-.4.4h-2.67a.4.4,0,0,1-.4-.4v-1c-1,1.23-3.21,1.76-4.94,1.71-3.69-.11-5.43-2.06-5.43-4.54,0-4,3.71-4.73,6.23-4.73a38.87,38.87,0,0,1,4.17.26v-.28c0-2-1.33-2.91-3.75-2.91a11.19,11.19,0,0,0-4,.75.39.39,0,0,1-.51-.22l-.69-1.81a.4.4,0,0,1,.23-.51A13.37,13.37,0,0,1,149.9,65.17Zm-.73,12.54c2.32,0,4.05-1.23,4.05-3V73.45a21.27,21.27,0,0,0-3.5-.28c-1.26,0-3.49.3-3.49,2.26C146.23,76.5,146.86,77.71,149.17,77.71Z"/></svg>