<svg id="Layer_1" data-name="Layer 1" xmlns="http://www.w3.org/2000/svg" viewBox="0 0 201.19 129.19"><defs><style>.cls-1{fill:#fff;fill-rule:evenodd;}</style></defs><title>client logo - nhp portfolioArtboard 8@1x</title><path class="cls-1" d="M138.73,73.8a2,2,0,0,1,1.6.53c.27.27.27.8.27,1.6l-.27,1.33a1.48,1.48,0,0,1-.8,1.34,2.93,2.93,0,0,1-1.6.53,21.35,21.35,0,0,1-4.53.27c-10.4,0-15.2-6.94-15.2-14.67s5.06-14.93,15.2-14.93c1.86,0,2.93.26,3.73.26a2,2,0,0,1,1.33.54,1.93,1.93,0,0,1,.54,1.6v1.06a3.33,3.33,0,0,1-.27,1.6,1.75,1.75,0,0,1-1.6.27h-.27c-5.33-.27-10.13,2.4-10.13,9.6,0,5.87,3.73,9.33,8.8,9.33a8.47,8.47,0,0,0,2.67-.26ZM74.2,79.13a2.24,2.24,0,0,0,1.86-.53c.54-.27.54-.8.54-1.6V57.26c0-.8,0-1.33.53-1.6A2.26,2.26,0,0,1,79,55.13h2.66a2.26,2.26,0,0,0,1.87-.53,2,2,0,0,0,.53-1.6v-.8a2,2,0,0,0-.53-1.6,2.23,2.23,0,0,0-1.87-.54H63a2.23,2.23,0,0,0-1.87.54,2,2,0,0,0-.53,1.6V53a2,2,0,0,0,.53,1.6,2.26,2.26,0,0,0,1.87.53h2.66a2.26,2.26,0,0,1,1.87.53c.53.27.53.8.53,1.6V77c0,.8,0,1.33.54,1.6a2.24,2.24,0,0,0,1.86.53ZM94.73,72.2c0,.8,0,1.33.53,1.6a2,2,0,0,0,1.6.53h.54c5.06,0,8-3.73,8-9.6s-2.94-9.33-8-9.33h-.54a2,2,0,0,0-1.6.53c-.53.27-.53.8-.53,1.6V72.2ZM86.46,58.06a2,2,0,0,1,.54-1.6,2.24,2.24,0,0,1,1.86-.53H91.8a2.53,2.53,0,0,0,1.86-.53,3.8,3.8,0,0,0,.54-1.6V52.2a1.89,1.89,0,0,1,2.13-2.14H98.2c10.4,0,15.2,6.14,15.2,14.67,0,8.27-4.8,14.4-15.2,14.4H88.86A2.24,2.24,0,0,1,87,78.6c-.54-.27-.54-.8-.54-1.6V58.06Z"/></svg>