<?xml version="1.0" encoding="utf-8"?>
<!-- Generator: Adobe Illustrator 22.0.1, SVG Export Plug-In . SVG Version: 6.00 Build 0)  -->
<svg version="1.1" id="Layer_1" xmlns="http://www.w3.org/2000/svg" xmlns:xlink="http://www.w3.org/1999/xlink" x="0px" y="0px"
	 viewBox="0 0 70.3 81" style="enable-background:new 0 0 70.3 81;" xml:space="preserve">
<style type="text/css">
	.st0{fill:#1CBFD6;}
</style>
<g>
	<path class="st0" d="M70,20.1l-34.6-20C35.2,0,35,0,34.9,0.1l-34.6,20C0.1,20.2,0,20.3,0,20.5v10v10v20c0,0.1,0,0.2,0.1,0.2
		c0,0,0,0,0,0.1c0,0,0.1,0.1,0.1,0.1c0,0,0,0,0,0l34.6,20c0.1,0,0.2,0.1,0.2,0.1s0.2,0,0.2-0.1l17.1-9.9c0.2,0,0.3-0.1,0.4-0.2
		L70,60.9c0,0,0,0,0,0c0.1,0,0.1-0.1,0.1-0.1c0,0,0,0,0-0.1c0-0.1,0.1-0.1,0.1-0.2v-20v-10v-10C70.3,20.3,70.2,20.2,70,20.1z
		 M61.6,60v-9h5.2c0.3,0,0.5-0.2,0.5-0.5S67.1,50,66.8,50h-5.2v-4.6c-0.2,0-0.3,0.1-0.5,0.1s-0.3,0-0.5-0.1V50H53v-9h3.3
		c0-0.2-0.1-0.3-0.1-0.5s0-0.3,0.1-0.5H53v-6.2c-0.2,0-0.3,0.1-0.5,0.1s-0.3,0-0.5-0.1V40h-7.7v-9h4.8c0-0.2-0.1-0.3-0.1-0.5
		s0-0.3,0.1-0.5h-4.8v-9H52v6.2c0.2,0,0.3-0.1,0.5-0.1s0.3,0,0.5,0.1V21h7.7v9h-4.8c0,0.2,0.1,0.3,0.1,0.5s0,0.3-0.1,0.5h4.8v4.6
		c0.2,0,0.3-0.1,0.5-0.1s0.3,0,0.5,0.1V31h7.7v9H66c0,0.2,0.1,0.3,0.1,0.5s0,0.3-0.1,0.5h3.3v19H61.6z M44.3,41H52v9h-7.7V41z
		 M69.3,30h-7.7v-9h3.9c0.3,0,0.5-0.2,0.5-0.5S65.8,20,65.5,20h-3.9v-3.6l7.7,4.4V30z M60.6,20H53v-5.1c0-0.3-0.2-0.5-0.5-0.5
		S52,14.7,52,14.9V20h-7.7v-9h8l8.3,4.8V20z M44.3,10V6.4l6.3,3.6H44.3z M35.1,1.1l8.2,4.7V10h-7.7V8c0-0.3-0.2-0.5-0.5-0.5
		S34.6,7.7,34.6,8v2H27V5.8L35.1,1.1z M26,6.4V10h-6.3L26,6.4z M8.7,64.6L2.4,61h6.3V64.6z M9.7,61h7.7v3.9c0,0.3,0.2,0.5,0.5,0.5
		s0.5-0.2,0.5-0.5V61h3.3c0-0.2-0.1-0.3-0.1-0.5s0-0.3,0.1-0.5h-3.3v-9H26v4.6c0.2,0,0.3-0.1,0.5-0.1s0.3,0,0.5,0.1V51h3.3
		c0-0.2-0.1-0.3-0.1-0.5s0-0.3,0.1-0.5H27v-9h4.9c0-0.2,0-0.3,0-0.5c0-0.2,0-0.4,0.1-0.5H27v-4.6c-0.2,0-0.3,0.1-0.5,0.1
		s-0.3,0-0.5-0.1V40h-4.2c0,0.2,0.1,0.3,0.1,0.5c0,0.2,0,0.3,0,0.5H26v9h-7.7v-5.5c-0.2,0-0.3,0.1-0.5,0.1s-0.3,0-0.5-0.1V50h-4.8
		c0,0.2,0.1,0.3,0.1,0.5s0,0.3-0.1,0.5h4.8v9H9.7v-6.2c-0.2,0-0.3,0.1-0.5,0.1s-0.3,0-0.5-0.1V60H1V41h7.7v6.2
		c0.2,0,0.3-0.1,0.5-0.1s0.3,0,0.5,0.1V41h4.2c0-0.2,0-0.3,0-0.5c0-0.2,0-0.4,0.1-0.5H9.7v-4.6c-0.2,0-0.3,0.1-0.5,0.1
		s-0.3,0-0.5-0.1V40H1v-9h3.3c0-0.2-0.1-0.3-0.1-0.5s0-0.3,0.1-0.5H1v-9.2l7.7-4.4V20H4.8c-0.3,0-0.5,0.2-0.5,0.5S4.5,21,4.8,21h3.9
		v4.6c0.2,0,0.3-0.1,0.5-0.1s0.3,0,0.5,0.1V21h4.8c0-0.2-0.1-0.3-0.1-0.5s0-0.3,0.1-0.5H9.7v-4.2l7.7-4.4v5.8c0.2,0,0.3-0.1,0.5-0.1
		s0.3,0,0.5,0.1V11H26v9h-4.8c0,0.2,0.1,0.3,0.1,0.5s0,0.3-0.1,0.5H26v4.6c0.2,0,0.3-0.1,0.5-0.1s0.3,0,0.5,0.1V21h3.3
		c0-0.2-0.1-0.3-0.1-0.5s0-0.3,0.1-0.5H27v-9h7.7v4.6c0.2,0,0.3-0.1,0.5-0.1s0.3,0,0.5,0.1V11h7.7v9H40c0,0.2,0.1,0.3,0.1,0.5
		s0,0.3-0.1,0.5h3.3v9h-7.7v-4.6c-0.2,0-0.3,0.1-0.5,0.1s-0.3,0-0.5-0.1V30h-3.3c0,0.2,0.1,0.3,0.1,0.5s0,0.3-0.1,0.5h3.3v6.2
		c0.2,0,0.3-0.1,0.5-0.1c0.2,0,0.3,0,0.5,0V31h7.7v9h-4.8c0,0.2,0.1,0.3,0.1,0.5c0,0.2,0,0.3,0,0.5h4.8v9H40c0,0.2,0.1,0.3,0.1,0.5
		s0,0.3-0.1,0.5h3.3v9h-7.7v-4.6c-0.2,0-0.3,0.1-0.5,0.1s-0.3,0-0.5-0.1V60h-3.3c0,0.2,0.1,0.3,0.1,0.5s0,0.3-0.1,0.5h3.3v9H27v-4.6
		c-0.2,0-0.3,0.1-0.5,0.1s-0.3,0-0.5-0.1V70h-8l-8.3-4.8V61z M26,71v3.6L19.7,71H26z M35.1,79.9L27,75.2V71h7.7v2
		c0,0.3,0.2,0.5,0.5,0.5s0.5-0.2,0.5-0.5v-2h15L35.1,79.9z M52.5,64.5c-0.2,0-0.3,0-0.5-0.1V70H35.6v-9h7.7v5.7
		c0,0.3,0.2,0.5,0.5,0.5s0.5-0.2,0.5-0.5V61h4.2c0-0.2-0.1-0.3-0.1-0.5s0-0.3,0.1-0.5h-4.2v-9H52v5.5c0.2,0,0.3-0.1,0.5-0.1
		s0.3,0,0.5,0.1V51h7.7v9h-4.2c0,0.2,0.1,0.3,0.1,0.5s0,0.3-0.1,0.5h4.2v4.2L53,69.6v-5.2C52.8,64.5,52.6,64.5,52.5,64.5z
		 M61.6,64.6V61h6.3L61.6,64.6z"/>
	<path class="st0" d="M34.6,43.8v1.8c0.2,0,0.3-0.1,0.5-0.1s0.3,0,0.5,0.1v-1.8c-0.2,0-0.3,0-0.5,0C35,43.9,34.8,43.9,34.6,43.8z"/>
	<path class="st0" d="M18.3,30v-6.2c-0.2,0-0.3,0.1-0.5,0.1s-0.3,0-0.5-0.1V30H14c0,0.2,0.1,0.3,0.1,0.5s0,0.3-0.1,0.5h3.3v5.6
		c0.2,0,0.3-0.1,0.5-0.1s0.3,0,0.5,0.1V31h3.3c0-0.2-0.1-0.3-0.1-0.5s0-0.3,0.1-0.5H18.3z"/>
	<path class="st0" d="M3.5,50C3.2,50,3,50.2,3,50.5S3.2,51,3.5,51h2.4c0-0.2-0.1-0.3-0.1-0.5s0-0.3,0.1-0.5H3.5z"/>
	<path class="st0" d="M17.3,22.8c0.2,0,0.3,0.1,0.5,0.1s0.3,0,0.5-0.1c0.9-0.2,1.6-0.9,1.8-1.8c0-0.2,0.1-0.3,0.1-0.5s0-0.3-0.1-0.5
		c-0.2-0.9-0.9-1.6-1.8-1.8c-0.2,0-0.3-0.1-0.5-0.1s-0.3,0-0.5,0.1c-0.9,0.2-1.6,0.9-1.8,1.8c0,0.2-0.1,0.3-0.1,0.5s0,0.3,0.1,0.5
		C15.7,21.9,16.4,22.6,17.3,22.8z"/>
	<path class="st0" d="M27,26.6c-0.2,0-0.3-0.1-0.5-0.1s-0.3,0-0.5,0.1c-1.8,0.2-3.1,1.6-3.4,3.4c0,0.2-0.1,0.3-0.1,0.5
		s0,0.3,0.1,0.5c0.2,1.8,1.6,3.1,3.4,3.4c0.2,0,0.3,0.1,0.5,0.1s0.3,0,0.5-0.1c1.8-0.2,3.1-1.6,3.4-3.4c0-0.2,0.1-0.3,0.1-0.5
		s0-0.3-0.1-0.5C30.1,28.2,28.7,26.9,27,26.6z"/>
	<path class="st0" d="M34.6,24.4c0.2,0,0.3,0.1,0.5,0.1s0.3,0,0.5-0.1c1.8-0.2,3.1-1.6,3.4-3.4c0-0.2,0.1-0.3,0.1-0.5s0-0.3-0.1-0.5
		c-0.2-1.8-1.6-3.1-3.4-3.4c-0.2,0-0.3-0.1-0.5-0.1s-0.3,0-0.5,0.1c-1.8,0.2-3.1,1.6-3.4,3.4c0,0.2-0.1,0.3-0.1,0.5s0,0.3,0.1,0.5
		C31.5,22.8,32.9,24.1,34.6,24.4z"/>
	<path class="st0" d="M34.6,54.4c0.2,0,0.3,0.1,0.5,0.1s0.3,0,0.5-0.1c1.8-0.2,3.1-1.6,3.4-3.4c0-0.2,0.1-0.3,0.1-0.5s0-0.3-0.1-0.5
		c-0.2-1.8-1.6-3.1-3.4-3.4c-0.2,0-0.3-0.1-0.5-0.1s-0.3,0-0.5,0.1c-1.8,0.2-3.1,1.6-3.4,3.4c0,0.2-0.1,0.3-0.1,0.5s0,0.3,0.1,0.5
		C31.5,52.8,32.9,54.1,34.6,54.4z"/>
	<path class="st0" d="M34.6,42.8c0.2,0,0.3,0.1,0.5,0.1c0.2,0,0.3,0,0.5,0c0.9-0.2,1.6-0.9,1.8-1.8c0-0.2,0-0.3,0-0.5
		c0-0.2,0-0.4-0.1-0.5c-0.2-0.9-0.9-1.6-1.8-1.8c-0.2,0-0.3,0-0.5,0c-0.2,0-0.4,0-0.5,0.1c-0.9,0.2-1.6,0.9-1.8,1.8
		c0,0.2-0.1,0.3-0.1,0.5c0,0.2,0,0.3,0,0.5C33,41.9,33.7,42.6,34.6,42.8z"/>
	<path class="st0" d="M18.3,37.6c-0.2,0-0.3-0.1-0.5-0.1s-0.3,0-0.5,0.1c-1.3,0.2-2.2,1.2-2.5,2.4c0,0.2-0.1,0.3-0.1,0.5
		c0,0.2,0,0.3,0,0.5c0.2,1.3,1.2,2.3,2.5,2.5c0.2,0,0.3,0.1,0.5,0.1s0.3,0,0.5-0.1c1.3-0.2,2.3-1.2,2.5-2.5c0-0.2,0-0.3,0-0.5
		c0-0.2,0-0.4-0.1-0.5C20.6,38.7,19.6,37.8,18.3,37.6z"/>
	<path class="st0" d="M53,28.2c-0.2,0-0.3-0.1-0.5-0.1s-0.3,0-0.5,0.1c-0.9,0.2-1.6,0.9-1.8,1.8c0,0.2-0.1,0.3-0.1,0.5
		s0,0.3,0.1,0.5c0.2,0.9,0.9,1.6,1.8,1.8c0.2,0,0.3,0.1,0.5,0.1s0.3,0,0.5-0.1c0.9-0.2,1.6-0.9,1.8-1.8c0-0.2,0.1-0.3,0.1-0.5
		s0-0.3-0.1-0.5C54.6,29.1,53.9,28.4,53,28.2z"/>
	<path class="st0" d="M61.6,36.6c-0.2,0-0.3-0.1-0.5-0.1s-0.3,0-0.5,0.1c-1.8,0.2-3.1,1.6-3.4,3.4c0,0.2-0.1,0.3-0.1,0.5
		s0,0.3,0.1,0.5c0.2,1.8,1.6,3.1,3.4,3.4c0.2,0,0.3,0.1,0.5,0.1s0.3,0,0.5-0.1c1.8-0.2,3.1-1.6,3.4-3.4c0-0.2,0.1-0.3,0.1-0.5
		s0-0.3-0.1-0.5C64.8,38.2,63.4,36.9,61.6,36.6z"/>
	<path class="st0" d="M55.4,61c0-0.2,0.1-0.3,0.1-0.5s0-0.3-0.1-0.5c-0.2-1.3-1.2-2.3-2.5-2.5c-0.2,0-0.3-0.1-0.5-0.1
		s-0.3,0-0.5,0.1c-1.3,0.2-2.3,1.2-2.5,2.5c0,0.2-0.1,0.3-0.1,0.5s0,0.3,0.1,0.5c0.2,1.3,1.2,2.3,2.5,2.5c0.2,0,0.3,0.1,0.5,0.1
		s0.3,0,0.5-0.1C54.2,63.3,55.2,62.3,55.4,61z"/>
	<path class="st0" d="M9.7,48.2c-0.2,0-0.3-0.1-0.5-0.1s-0.3,0-0.5,0.1C7.8,48.4,7,49.1,6.9,50c0,0.2-0.1,0.3-0.1,0.5s0,0.3,0.1,0.5
		c0.2,0.9,0.9,1.6,1.8,1.8c0.2,0,0.3,0.1,0.5,0.1s0.3,0,0.5-0.1c0.9-0.2,1.6-0.9,1.8-1.8c0-0.2,0.1-0.3,0.1-0.5s0-0.3-0.1-0.5
		C11.3,49.1,10.6,48.4,9.7,48.2z"/>
	<path class="st0" d="M26,64.4c0.2,0,0.3,0.1,0.5,0.1s0.3,0,0.5-0.1c1.8-0.2,3.1-1.6,3.4-3.4c0-0.2,0.1-0.3,0.1-0.5s0-0.3-0.1-0.5
		c-0.2-1.8-1.6-3.1-3.4-3.4c-0.2,0-0.3-0.1-0.5-0.1s-0.3,0-0.5,0.1c-1.8,0.2-3.1,1.6-3.4,3.4c0,0.2-0.1,0.3-0.1,0.5s0,0.3,0.1,0.5
		C22.8,62.8,24.2,64.1,26,64.4z"/>
	<path class="st0" d="M9.7,26.6c-0.2,0-0.3-0.1-0.5-0.1s-0.3,0-0.5,0.1c-1.8,0.2-3.1,1.6-3.4,3.4c0,0.2-0.1,0.3-0.1,0.5
		s0,0.3,0.1,0.5c0.2,1.8,1.6,3.1,3.4,3.4c0.2,0,0.3,0.1,0.5,0.1s0.3,0,0.5-0.1c1.8-0.2,3.1-1.6,3.4-3.4c0-0.2,0.1-0.3,0.1-0.5
		s0-0.3-0.1-0.5C12.8,28.2,11.4,26.9,9.7,26.6z"/>
</g>
</svg>
