<svg id="Layer_1" data-name="Layer 1" xmlns="http://www.w3.org/2000/svg" xmlns:xlink="http://www.w3.org/1999/xlink" viewBox="0 0 110 110"><defs><style>.cls-1{fill:#b4e1eb;}.cls-2{fill:#f1f2f2;}.cls-3{fill:#d2d3d4;}.cls-4{fill:#bcbec0;}.cls-12,.cls-13,.cls-5,.cls-7,.cls-8{fill:none;}.cls-12,.cls-5,.cls-7,.cls-8{stroke:#bcbec0;}.cls-12,.cls-13,.cls-5,.cls-7,.cls-8,.cls-9{stroke-linecap:round;}.cls-12,.cls-13,.cls-5,.cls-7{stroke-miterlimit:10;}.cls-5{stroke-width:3px;}.cls-6{font-size:8px;fill:#44c3d3;font-family:HKNova-Heavy, HK Nova;}.cls-7{stroke-width:3.8px;}.cls-8{stroke-linejoin:round;stroke-width:3.8px;}.cls-9{fill:#fff;stroke-linejoin:bevel;stroke-width:4px;}.cls-13,.cls-9{stroke:#d2d3d4;}.cls-10{clip-path:url(#clip-path);}.cls-11{fill:#8dd3e3;}.cls-12,.cls-13{stroke-width:1.65px;}.cls-14{fill:#a7dde5;}.cls-15{fill:#61c7db;}</style><clipPath id="clip-path"><rect class="cls-1" x="7.88" y="35" width="64" height="40" rx="1.7" ry="1.7"/></clipPath></defs><title>marketing - screen - blueArtboard 16@1x</title><rect id="Background" class="cls-2" width="110" height="110" rx="2.2" ry="2.2"/><g id="Top_bar" data-name="Top bar"><path id="Background-2" data-name="Background" class="cls-3" d="M2.2,0H107.8A2.19,2.19,0,0,1,110,2.2V10H0V2.2A2.19,2.19,0,0,1,2.2,0Z"/><circle id="Oval" class="cls-4" cx="16.41" cy="5.01" r="1.65"/><circle id="Oval-2" data-name="Oval" class="cls-4" cx="10.91" cy="5.01" r="1.65"/><circle id="Oval-3" data-name="Oval" class="cls-4" cx="5.41" cy="5.01" r="1.65"/></g><line class="cls-5" x1="9.38" y1="28.3" x2="40.38" y2="28.3"/><text class="cls-6" transform="translate(7.88 22.38)">Blog post</text><line class="cls-7" x1="9.38" y1="83" x2="68.63" y2="83"/><line class="cls-8" x1="9.38" y1="90" x2="68.63" y2="90"/><line class="cls-9" x1="9.38" y1="97" x2="23.63" y2="97"/><rect class="cls-1" x="7.88" y="35" width="64" height="40" rx="1.7" ry="1.7"/><g class="cls-10"><polygon class="cls-11" points="49.38 49.53 63.35 62.27 77.32 75 49.38 75 21.45 75 35.42 62.27 49.38 49.53"/><polygon class="cls-11" points="23.16 56.12 33.52 65.56 43.87 75 23.16 75 2.45 75 12.8 65.56 23.16 56.12"/><circle class="cls-11" cx="34.32" cy="52.53" r="3"/></g><line class="cls-12" x1="90.62" y1="37.48" x2="102.12" y2="37.48"/><line class="cls-13" x1="90.62" y1="40.48" x2="96.37" y2="40.48"/><rect class="cls-14" x="77.62" y="35.48" width="9.5" height="7" rx="0.66" ry="0.66"/><line class="cls-12" x1="90.62" y1="48.32" x2="102.12" y2="48.32"/><line class="cls-13" x1="90.62" y1="51.32" x2="96.37" y2="51.32"/><rect class="cls-14" x="77.62" y="46.32" width="9.5" height="7" rx="0.66" ry="0.66"/><line class="cls-12" x1="90.62" y1="59.16" x2="102.12" y2="59.16"/><line class="cls-13" x1="90.62" y1="62.16" x2="96.37" y2="62.16"/><rect class="cls-14" x="77.62" y="57.16" width="9.5" height="7" rx="0.66" ry="0.66"/><line class="cls-12" x1="90.62" y1="70" x2="102.12" y2="70"/><line class="cls-13" x1="90.62" y1="73" x2="96.37" y2="73"/><rect class="cls-14" x="77.62" y="68" width="9.5" height="7" rx="0.66" ry="0.66"/><rect class="cls-15" x="77.62" y="82.09" width="24.5" height="22.84" rx="1.92" ry="1.92"/></svg>