<svg id="Layer_1" data-name="Layer 1" xmlns="http://www.w3.org/2000/svg" xmlns:xlink="http://www.w3.org/1999/xlink" viewBox="0 0 110 110"><defs><style>.cls-1{fill:#b4e1eb;}.cls-2{fill:#f1f2f2;}.cls-3,.cls-4,.cls-5{fill:none;}.cls-4,.cls-5{stroke:#bcbec0;stroke-linecap:round;stroke-miterlimit:10;}.cls-4{stroke-width:3.8px;}.cls-5{stroke-width:2.14px;}.cls-6{fill:#44c3d3;}.cls-7{clip-path:url(#clip-path);}.cls-8{fill:#8dd3e3;}.cls-9{clip-path:url(#clip-path-2);}.cls-10{clip-path:url(#clip-path-3);}.cls-11{clip-path:url(#clip-path-4);}.cls-12{clip-path:url(#clip-path-5);}.cls-13{clip-path:url(#clip-path-6);}.cls-14{fill:#d2d3d4;}.cls-15{fill:#bcbec0;}.cls-16{fill:#001a23;opacity:0.75;}.cls-17{fill:#fff;}</style><clipPath id="clip-path"><rect class="cls-1" x="73.96" y="36" width="29" height="19" rx="1.5" ry="1.5"/></clipPath><clipPath id="clip-path-2"><rect class="cls-1" x="40.5" y="36" width="29" height="19" rx="1.5" ry="1.5"/></clipPath><clipPath id="clip-path-3"><rect class="cls-1" x="7.04" y="36" width="29" height="19" rx="1.5" ry="1.5"/></clipPath><clipPath id="clip-path-4"><rect class="cls-1" x="73.96" y="77.93" width="29" height="19" rx="1.5" ry="1.5"/></clipPath><clipPath id="clip-path-5"><rect class="cls-1" x="40.5" y="77.93" width="29" height="19" rx="1.5" ry="1.5"/></clipPath><clipPath id="clip-path-6"><rect class="cls-1" x="7.04" y="77.93" width="29" height="19" rx="1.5" ry="1.5"/></clipPath></defs><title>marketing - screen - blueArtboard 19@1x</title><rect id="Background" class="cls-2" width="110" height="110" rx="2.2" ry="2.2"/><rect id="Background-2" data-name="Background" class="cls-3" width="110" height="110" rx="2.2" ry="2.2"/><line class="cls-4" x1="39.5" y1="19" x2="70.5" y2="19"/><line class="cls-4" x1="26.5" y1="26" x2="83.5" y2="26"/><line class="cls-5" x1="79.96" y1="63" x2="96.96" y2="63"/><rect class="cls-6" x="78.96" y="67" width="18" height="5" rx="1.68" ry="1.68"/><line class="cls-5" x1="75.96" y1="59" x2="100.96" y2="59"/><rect class="cls-1" x="73.96" y="36" width="29" height="19" rx="1.5" ry="1.5"/><g class="cls-7"><polygon class="cls-8" points="92.27 42.9 98.9 48.95 105.54 55 92.27 55 79 55 85.64 48.95 92.27 42.9"/><polygon class="cls-8" points="79.81 46.03 84.73 50.52 89.65 55 79.81 55 69.98 55 74.89 50.52 79.81 46.03"/><circle class="cls-8" cx="85.11" cy="44.33" r="1.42"/></g><line class="cls-5" x1="46.5" y1="63" x2="63.5" y2="63"/><rect class="cls-6" x="45.5" y="67" width="18" height="5" rx="1.68" ry="1.68"/><line class="cls-5" x1="42.5" y1="59" x2="67.5" y2="59"/><rect class="cls-1" x="40.5" y="36" width="29" height="19" rx="1.5" ry="1.5"/><g class="cls-9"><polygon class="cls-8" points="58.81 42.9 65.45 48.95 72.08 55 58.81 55 45.54 55 52.18 48.95 58.81 42.9"/><polygon class="cls-8" points="46.36 46.03 51.28 50.52 56.19 55 46.36 55 36.52 55 41.44 50.52 46.36 46.03"/><circle class="cls-8" cx="51.66" cy="44.33" r="1.43"/></g><line class="cls-5" x1="13.04" y1="63" x2="30.04" y2="63"/><rect class="cls-6" x="12.04" y="67" width="18" height="5" rx="1.68" ry="1.68"/><line class="cls-5" x1="9.04" y1="59" x2="34.04" y2="59"/><rect class="cls-1" x="7.04" y="36" width="29" height="19" rx="1.5" ry="1.5"/><g class="cls-10"><polygon class="cls-8" points="25.36 42.9 31.99 48.95 38.62 55 25.36 55 12.09 55 18.72 48.95 25.36 42.9"/><polygon class="cls-8" points="12.9 46.03 17.82 50.52 22.74 55 12.9 55 3.06 55 7.98 50.52 12.9 46.03"/><circle class="cls-8" cx="18.2" cy="44.33" r="1.42"/></g><line class="cls-5" x1="79.96" y1="104.93" x2="96.96" y2="104.93"/><line class="cls-5" x1="75.96" y1="100.93" x2="100.96" y2="100.93"/><rect class="cls-1" x="73.96" y="77.93" width="29" height="19" rx="1.5" ry="1.5"/><g class="cls-11"><polygon class="cls-8" points="92.27 84.83 98.9 90.88 105.54 96.93 92.27 96.93 79 96.93 85.64 90.88 92.27 84.83"/><polygon class="cls-8" points="79.81 87.96 84.73 92.45 89.65 96.93 79.81 96.93 69.98 96.93 74.89 92.45 79.81 87.96"/><circle class="cls-8" cx="85.11" cy="86.26" r="1.42"/></g><line class="cls-5" x1="46.5" y1="104.93" x2="63.5" y2="104.93"/><line class="cls-5" x1="42.5" y1="100.93" x2="67.5" y2="100.93"/><rect class="cls-1" x="40.5" y="77.93" width="29" height="19" rx="1.5" ry="1.5"/><g class="cls-12"><polygon class="cls-8" points="58.81 84.83 65.45 90.88 72.08 96.93 58.81 96.93 45.54 96.93 52.18 90.88 58.81 84.83"/><polygon class="cls-8" points="46.36 87.96 51.28 92.45 56.19 96.93 46.36 96.93 36.52 96.93 41.44 92.45 46.36 87.96"/><circle class="cls-8" cx="51.66" cy="86.26" r="1.43"/></g><line class="cls-5" x1="13.04" y1="104.93" x2="30.04" y2="104.93"/><line class="cls-5" x1="9.04" y1="100.93" x2="34.04" y2="100.93"/><rect class="cls-1" x="7.04" y="77.93" width="29" height="19" rx="1.5" ry="1.5"/><g class="cls-13"><polygon class="cls-8" points="25.36 84.83 31.99 90.88 38.62 96.93 25.36 96.93 12.09 96.93 18.72 90.88 25.36 84.83"/><polygon class="cls-8" points="12.9 87.96 17.82 92.45 22.74 96.93 12.9 96.93 3.06 96.93 7.98 92.45 12.9 87.96"/><circle class="cls-8" cx="18.2" cy="86.26" r="1.42"/></g><g id="Top_bar" data-name="Top bar"><path id="Background-3" data-name="Background" class="cls-14" d="M2.2,0H107.8A2.19,2.19,0,0,1,110,2.2V9H0V2.2A2.19,2.19,0,0,1,2.2,0Z"/><circle id="Oval" class="cls-15" cx="16.24" cy="5.39" r="1.65"/><circle id="Oval-2" data-name="Oval" class="cls-15" cx="10.74" cy="5.39" r="1.65"/><circle id="Oval-3" data-name="Oval" class="cls-15" cx="5.24" cy="5.39" r="1.65"/></g><path id="Background-4" data-name="Background" class="cls-16" d="M0,9H110v99a2.11,2.11,0,0,1-2.2,2H2.2A2.11,2.11,0,0,1,0,108Z"/><rect class="cls-17" x="35.5" y="48.86" width="39" height="8" rx="2.84" ry="2.84"/><rect class="cls-17" x="35.5" y="61.25" width="39" height="8" rx="2.84" ry="2.84"/><rect class="cls-6" x="35.5" y="73.64" width="39" height="11" rx="3.67" ry="3.67"/><path class="cls-6" d="M39.3,37.49a3.1,3.1,0,0,0-1-.19.87.87,0,0,0-.49.11.38.38,0,0,0-.18.33.46.46,0,0,0,.16.36,1.28,1.28,0,0,0,.38.23l.68.22a11.33,11.33,0,0,1,1.1.38,2,2,0,0,1,.75.59,1.71,1.71,0,0,1,.31,1,1.76,1.76,0,0,1-.34,1.1,2.09,2.09,0,0,1-.93.68,3.64,3.64,0,0,1-1.31.23,4.68,4.68,0,0,1-1.59-.28,4.42,4.42,0,0,1-1.37-.76l.65-1.31a4.11,4.11,0,0,0,1.15.7,3.18,3.18,0,0,0,1.17.28,1.13,1.13,0,0,0,.6-.14.45.45,0,0,0,.21-.4.47.47,0,0,0-.16-.37,1.05,1.05,0,0,0-.4-.23c-.16-.06-.39-.13-.68-.21A8.51,8.51,0,0,1,37,39.48a2,2,0,0,1-.74-.57,1.52,1.52,0,0,1-.31-1,1.76,1.76,0,0,1,.32-1,2.07,2.07,0,0,1,.9-.7,3.46,3.46,0,0,1,1.35-.24,4.94,4.94,0,0,1,1.37.2,4.47,4.47,0,0,1,1.19.53L40.4,38A5.75,5.75,0,0,0,39.3,37.49Z"/><path class="cls-6" d="M41.89,36.05h1.67v6.42H41.89Z"/><path class="cls-6" d="M49.06,39.19H50.5v2.55a3.94,3.94,0,0,1-1.25.61,4.65,4.65,0,0,1-1.42.24,3.53,3.53,0,0,1-1.75-.44A3.27,3.27,0,0,1,44.85,41a3.31,3.31,0,0,1-.45-1.71,3.12,3.12,0,0,1,.46-1.68,3.24,3.24,0,0,1,1.27-1.19A3.78,3.78,0,0,1,47.94,36a4.24,4.24,0,0,1,1.43.26,3.67,3.67,0,0,1,1.21.7l-.95,1.17a2.74,2.74,0,0,0-.81-.52,2.19,2.19,0,0,0-.89-.19,1.69,1.69,0,0,0-.92.25,1.74,1.74,0,0,0-.65.67,2,2,0,0,0-.24,1,2,2,0,0,0,.24,1,1.73,1.73,0,0,0,.66.68,1.75,1.75,0,0,0,.93.25,2.53,2.53,0,0,0,1.11-.31Z"/><path class="cls-6" d="M56,36.05h1.55v6.42H56.09l-2.91-3.84v3.84H51.61V36.05h1.48L56,39.91Z"/><path class="cls-6" d="M58.69,39.14h2.42v1H58.69Z"/><path class="cls-6" d="M64.16,40.79a1.2,1.2,0,0,0,.91.37,1.12,1.12,0,0,0,.87-.36,1.36,1.36,0,0,0,.34-1V36.05H68v3.77a2.87,2.87,0,0,1-.35,1.46,2.37,2.37,0,0,1-1,1,3.32,3.32,0,0,1-1.53.34,3.39,3.39,0,0,1-1.54-.34,2.47,2.47,0,0,1-1-1,2.87,2.87,0,0,1-.36-1.46V36.05h1.68v3.77A1.34,1.34,0,0,0,64.16,40.79Z"/><path class="cls-6" d="M73.82,36.64a2.09,2.09,0,0,1,.68,1.66,2.31,2.31,0,0,1-.68,1.77,2.72,2.72,0,0,1-1.9.62H70.77v1.78H69.1V36.05h2.82A2.81,2.81,0,0,1,73.82,36.64ZM72.63,39.1a1,1,0,0,0,.28-.74,1,1,0,0,0-.28-.72,1.14,1.14,0,0,0-.79-.25H70.77v2h1.07A1.14,1.14,0,0,0,72.63,39.1Z"/></svg>