<svg id="Layer_1" data-name="Layer 1" xmlns="http://www.w3.org/2000/svg" xmlns:xlink="http://www.w3.org/1999/xlink" viewBox="0 0 110 110"><defs><style>.cls-1{fill:#b4e1eb;}.cls-2{fill:#f1f2f2;}.cls-3{fill:#8dd9ff;}.cls-29,.cls-32,.cls-4,.cls-7{fill:none;}.cls-5{fill:#d2d3d4;}.cls-6{fill:#bcbec0;}.cls-7{stroke:#bcbec0;stroke-width:2.14px;}.cls-29,.cls-7{stroke-linecap:round;}.cls-29,.cls-32,.cls-7{stroke-miterlimit:10;}.cls-8{clip-path:url(#clip-path);}.cls-9{fill:#8dd3e3;}.cls-10{clip-path:url(#clip-path-2);}.cls-11{clip-path:url(#clip-path-3);}.cls-12{fill:#fff;}.cls-13{fill:#b2b9c9;}.cls-14{fill:#9fc3dd;}.cls-15{fill:#b39191;}.cls-16{fill:#7faab8;}.cls-17{fill:#eee1c2;}.cls-18{fill:#fdefdb;}.cls-19{fill:#a29b91;}.cls-20{fill:#88b7c6;}.cls-21{fill:#9e8282;}.cls-22{fill:#674447;}.cls-23{fill:#43ab5f;}.cls-24{fill:#71be63;}.cls-25{fill:#94d75b;}.cls-26{fill:#b0eb81;}.cls-27{fill:#8c665b;}.cls-28{fill:#e9b668;}.cls-29{stroke:#fff;stroke-width:3px;}.cls-30{fill:#32c0d1;}.cls-31{font-size:5px;fill:#c2c3c5;font-family:HKNova-SemiBold, HK Nova;font-weight:700;}.cls-32{stroke:#abacaf;}</style><clipPath id="clip-path"><rect class="cls-1" x="73.94" y="77.93" width="29" height="19" rx="1.5" ry="1.5"/></clipPath><clipPath id="clip-path-2"><rect class="cls-1" x="40.48" y="77.93" width="29" height="19" rx="1.5" ry="1.5"/></clipPath><clipPath id="clip-path-3"><rect class="cls-1" x="7.02" y="77.93" width="29" height="19" rx="1.5" ry="1.5"/></clipPath></defs><title>marketing - screen - blueArtboard 8@1x</title><rect id="Background" class="cls-2" x="-0.02" width="110" height="110" rx="2.2" ry="2.2"/><rect class="cls-3" x="-0.02" y="9" width="110.04" height="46.33"/><rect id="Background-2" data-name="Background" class="cls-4" x="-0.02" width="110" height="110" rx="2.2" ry="2.2"/><g id="Top_bar" data-name="Top bar"><path id="Background-3" data-name="Background" class="cls-5" d="M2.18,0h105.6A2.2,2.2,0,0,1,110,2.2V9H0V2.2A2.19,2.19,0,0,1,2.18,0Z"/><circle id="Oval" class="cls-6" cx="16.22" cy="5.39" r="1.65"/><circle id="Oval-2" data-name="Oval" class="cls-6" cx="10.72" cy="5.39" r="1.65"/><circle id="Oval-3" data-name="Oval" class="cls-6" cx="5.22" cy="5.39" r="1.65"/></g><line class="cls-7" x1="79.94" y1="104.93" x2="96.94" y2="104.93"/><line class="cls-7" x1="75.94" y1="100.93" x2="100.94" y2="100.93"/><rect class="cls-1" x="73.94" y="77.93" width="29" height="19" rx="1.5" ry="1.5"/><g class="cls-8"><polygon class="cls-9" points="92.25 84.83 98.88 90.88 105.52 96.93 92.25 96.93 78.98 96.93 85.61 90.88 92.25 84.83"/><polygon class="cls-9" points="79.79 87.96 84.71 92.45 89.63 96.93 79.79 96.93 69.96 96.93 74.88 92.45 79.79 87.96"/><circle class="cls-9" cx="85.09" cy="86.26" r="1.42"/></g><line class="cls-7" x1="46.48" y1="104.93" x2="63.48" y2="104.93"/><line class="cls-7" x1="42.48" y1="100.93" x2="67.48" y2="100.93"/><rect class="cls-1" x="40.48" y="77.93" width="29" height="19" rx="1.5" ry="1.5"/><g class="cls-10"><polygon class="cls-9" points="58.79 84.83 65.43 90.88 72.06 96.93 58.79 96.93 45.52 96.93 52.16 90.88 58.79 84.83"/><polygon class="cls-9" points="46.34 87.96 51.26 92.45 56.17 96.93 46.34 96.93 36.5 96.93 41.42 92.45 46.34 87.96"/><circle class="cls-9" cx="51.64" cy="86.26" r="1.42"/></g><line class="cls-7" x1="13.02" y1="104.93" x2="30.02" y2="104.93"/><line class="cls-7" x1="9.02" y1="100.93" x2="34.02" y2="100.93"/><rect class="cls-1" x="7.02" y="77.93" width="29" height="19" rx="1.5" ry="1.5"/><g class="cls-11"><polygon class="cls-9" points="25.34 84.83 31.97 90.88 38.6 96.93 25.34 96.93 12.07 96.93 18.7 90.88 25.34 84.83"/><polygon class="cls-9" points="12.88 87.96 17.8 92.45 22.72 96.93 12.88 96.93 3.04 96.93 7.96 92.45 12.88 87.96"/><circle class="cls-9" cx="18.18" cy="86.26" r="1.42"/></g><polygon class="cls-3" points="35.03 45.32 54.54 45.32 54.69 45.32 72.37 45.32 83.33 45.32 110.02 45.32 110.02 9 -0.02 9 -0.02 45.32 25.9 45.32 35.03 45.32"/><rect class="cls-12" x="43.68" y="32.51" width="3.14" height="6.37"/><rect class="cls-13" x="99.53" y="34.78" width="3.87" height="5.21"/><path class="cls-14" d="M100.74,45H107a35.53,35.53,0,0,0,.44-5.59c0-.57,0-1.13,0-1.68h-6.67Z"/><path class="cls-15" d="M35.86,39c0,.14,0,.27,0,.41A36.77,36.77,0,0,0,36.28,45H42.7V39Z"/><polyline class="cls-13" points="45.91 45.03 52.63 45.03 51.51 32.72 45.91 34.96 45.91 45.03"/><rect class="cls-16" x="79.03" y="33.84" width="6.5" height="11.19"/><rect class="cls-17" x="51.51" y="28.25" width="4.48" height="16.78"/><rect class="cls-17" x="76.12" y="30.48" width="4.48" height="14.54"/><rect class="cls-14" x="66.05" y="27.69" width="4.48" height="17.34"/><rect class="cls-13" x="87.17" y="34.96" width="6.5" height="10.07"/><rect class="cls-15" x="94.23" y="36.64" width="6.5" height="8.39"/><polyline class="cls-18" points="76.12 45.03 76.12 24.33 70.53 20.97 70.53 45.03"/><polygon class="cls-12" points="60.46 17.06 60.46 45.03 66.05 45.03 66.05 20 66.05 13.14 60.46 17.06"/><rect class="cls-12" x="83.96" y="21.81" width="4.48" height="23.22"/><polyline class="cls-19" points="55.98 45.03 55.98 39.44 49.27 39.44 49.27 45.03"/><polyline class="cls-14" points="62.42 45.03 62.42 31.6 55.98 31.6 55.98 45.03"/><polyline class="cls-20" points="80.6 45.03 80.6 40.55 73.89 41.67 73.89 45.03"/><rect class="cls-18" x="91.79" y="33.84" width="4.48" height="11.19"/><rect class="cls-14" x="41.44" y="37.2" width="4.48" height="7.83"/><rect class="cls-19" x="81.93" y="41.99" width="7.48" height="3.04"/><rect class="cls-15" x="66.05" y="34.19" width="2.49" height="10.84"/><rect class="cls-21" x="52.63" y="42.79" width="6.39" height="2.24"/><rect class="cls-17" x="47.36" y="42.79" width="2.99" height="2.24"/><rect class="cls-17" x="67.31" y="42.79" width="2.48" height="2.24"/><rect class="cls-17" x="88.43" y="42.79" width="3.99" height="2.24"/><rect class="cls-21" x="75.88" y="43.41" width="3.14" height="1.62"/><rect class="cls-21" x="90.88" y="41.39" width="3.14" height="3.64"/><rect class="cls-21" x="99.17" y="42.28" width="6.56" height="2.75"/><rect class="cls-21" x="39.87" y="41.39" width="3.14" height="3.64"/><rect class="cls-13" x="61.02" y="41.39" width="2.37" height="3.64"/><rect class="cls-13" x="84.34" y="43.41" width="2.37" height="1.62"/><rect class="cls-13" x="39.06" y="43.41" width="2.37" height="1.62"/><path class="cls-22" d="M55,39.34l-.16-.25Z"/><path class="cls-12" d="M55.2,39.65l-.2-.31Z"/><path class="cls-12" d="M54.69,38.85l.15.24Z"/><polygon class="cls-23" points="-0.02 55.33 35.03 55.33 44.29 55.33 47.8 51.94 -0.02 51.94 -0.02 55.33"/><path class="cls-23" d="M62.06,52.54l1.35,1.32c.21.19.4.39.6.58l.9.87,0,0H110V51.94H61.43Z"/><path class="cls-24" d="M58.17,48.77,58,48.59H51.24L47.8,51.94H61.43l-1.88-1.83Z"/><polygon class="cls-24" points="-0.02 48.59 -0.02 51.94 47.8 51.94 51.24 48.59 -0.02 48.59"/><path class="cls-24" d="M58,48.59l.18.18,1.38,1.34,1.88,1.83H110V48.59Z"/><path class="cls-25" d="M56.91,47.55l-.44-.43-.4-.38-.38-.38H53.54l-2.3,2.23H58l-.73-.7Z"/><polygon class="cls-25" points="-0.02 46.36 -0.02 48.59 51.24 48.59 53.54 46.36 -0.02 46.36"/><path class="cls-25" d="M56.07,46.74l.4.38.44.43.35.34.73.7h52V46.36H55.69Z"/><path class="cls-26" d="M55.46,46.14l-.26-.25-.15-.15-.2-.19-.16-.15-.08-.08-1.07,1h2.15Z"/><path class="cls-26" d="M53.54,46.36l1.07-1,.08.08.16.15.2.19.15.15.26.25.23.22H110V45.25H0v1.11Z"/><path class="cls-27" d="M58.14,48.59l-3.45-3.34-3.45,3.34Z"/><path class="cls-22" d="M58.32,48.77l-.91-.88Z"/><polygon class="cls-22" points="63.72 55.33 54.69 45.25 56.39 55.33 63.72 55.33"/><path class="cls-22" d="M64.16,54.44l-.6-.58Z"/><path class="cls-22" d="M56.22,46.74l-.61-.6Z"/><path class="cls-22" d="M62.21,52.54,59.7,50.11Z"/><path class="cls-22" d="M57.06,47.55l-.44-.43Z"/><polygon class="cls-22" points="52.99 55.33 54.69 45.25 45.66 55.33 52.99 55.33"/><polygon class="cls-22" points="55.26 55.33 54.69 45.25 54.12 55.33 55.26 55.33"/><path class="cls-22" d="M65.06,55.31l0,0h0Z"/><path class="cls-22" d="M55.35,45.89l-.15-.15Z"/><path class="cls-12" d="M55.61,46.14l-.26-.25Z"/><path class="cls-12" d="M56.62,47.12l-.4-.38Z"/><path class="cls-12" d="M57.41,47.89l-.35-.34Z"/><path class="cls-12" d="M65.06,55.31l-.9-.87Z"/><path class="cls-12" d="M59.7,50.11l-1.38-1.34Z"/><path class="cls-12" d="M63.56,53.86l-1.35-1.32Z"/><path class="cls-12" d="M65.09,55.33l0,0-.9-.87-.6-.58-1.35-1.32L59.7,50.11l-1.38-1.34-.91-.88-.35-.34-.44-.43-.4-.38-.61-.6-.26-.25-.15-.15-.2-.19-.16-.15-.15-.15,9,10.08Z"/><polygon class="cls-12" points="45.66 55.33 54.69 45.25 44.29 55.33 45.66 55.33"/><polygon class="cls-28" points="56.39 55.33 54.69 45.25 55.26 55.33 56.39 55.33"/><polygon class="cls-28" points="54.12 55.33 54.69 45.25 52.99 55.33 54.12 55.33"/><rect class="cls-12" x="16.22" y="49.64" width="80.72" height="12.11"/><line class="cls-29" x1="8.92" y1="17.9" x2="34.02" y2="17.9"/><line class="cls-29" x1="8.92" y1="24.04" x2="34.02" y2="24.04"/><line class="cls-29" x1="8.92" y1="30.18" x2="24.2" y2="30.18"/><rect class="cls-30" x="80.69" y="52.5" width="12.06" height="6.38" rx="3.05" ry="3.05"/><text class="cls-31" transform="translate(27.99 57.17)">Fin new a home</text><line class="cls-7" x1="42.52" y1="71.84" x2="70.64" y2="71.84"/><line class="cls-7" x1="35.9" y1="67.84" x2="77.25" y2="67.84"/><circle class="cls-32" cx="22.95" cy="54.75" r="1.55"/><line class="cls-32" x1="24" y1="55.79" x2="25.49" y2="57.28"/></svg>