<svg id="Layer_1" data-name="Layer 1" xmlns="http://www.w3.org/2000/svg" xmlns:xlink="http://www.w3.org/1999/xlink" viewBox="0 0 110 110"><defs><style>.cls-1{fill:#d2d3d4;}.cls-2{fill:#f1f2f2;}.cls-3{fill:#fff;}.cls-4{fill:#bcbec0;}.cls-13,.cls-14,.cls-5,.cls-6{fill:none;}.cls-13,.cls-5{stroke:#bcbec0;}.cls-13,.cls-14,.cls-5{stroke-linecap:round;stroke-miterlimit:10;}.cls-5{stroke-width:3px;}.cls-7{fill:#97b23c;}.cls-8{fill:#0bbcd4;}.cls-9{fill:#117693;}.cls-10{fill:#b4e1eb;}.cls-11{clip-path:url(#clip-path);}.cls-12{fill:#a8a9ac;}.cls-13,.cls-14{stroke-width:2px;}.cls-14{stroke:#d2d3d4;}</style><clipPath id="clip-path"><path id="Mask" class="cls-1" d="M40.24,94.08h0a4.39,4.39,0,0,1,4.4,4.39h0a4.4,4.4,0,0,1-4.4,4.4h0a4.4,4.4,0,0,1-4.39-4.4h0A4.39,4.39,0,0,1,40.24,94.08Z"/></clipPath></defs><title>marketing - screen - blueArtboard 46@1x</title><rect id="Background" class="cls-2" width="110" height="110" rx="2.2" ry="2.2"/><rect class="cls-3" x="20" y="19" width="70" height="91"/><g id="Top_bar" data-name="Top bar"><path id="Background-2" data-name="Background" class="cls-1" d="M2.2,0H107.8A2.19,2.19,0,0,1,110,2.2V10H0V2.2A2.19,2.19,0,0,1,2.2,0Z"/><circle id="Oval" class="cls-4" cx="15.94" cy="5.11" r="1.65"/><circle id="Oval-2" data-name="Oval" class="cls-4" cx="10.44" cy="5.11" r="1.65"/><circle id="Oval-3" data-name="Oval" class="cls-4" cx="4.94" cy="5.11" r="1.65"/></g><line class="cls-5" x1="32.5" y1="28.5" x2="77.5" y2="28.5"/><line class="cls-5" x1="32.5" y1="35.5" x2="77.5" y2="35.5"/><line class="cls-5" x1="43.5" y1="43.5" x2="66.5" y2="43.5"/><rect class="cls-6" x="20" y="19" width="70" height="91"/><rect class="cls-7" x="42.24" y="81.83" width="25.52" height="7.41" rx="3.54" ry="3.54"/><rect class="cls-8" x="41.82" y="52.58" width="3.04" height="9.13" rx="1.11" ry="1.11"/><rect class="cls-8" x="40.1" y="60.42" width="6.49" height="15.48" rx="1.77" ry="1.77"/><rect class="cls-9" x="65.14" y="52.58" width="3.04" height="9.13" rx="1.11" ry="1.11"/><rect class="cls-9" x="63.41" y="60.42" width="6.49" height="15.48" rx="1.77" ry="1.77"/><path class="cls-10" d="M49.44,68.25h1.92l1.18,3.94,1.2-3.94H55.6l-2.13,5.67H51.56Z"/><path class="cls-10" d="M58.13,69.46a.75.75,0,0,0-.39.09.29.29,0,0,0-.15.27.34.34,0,0,0,.23.3,4.12,4.12,0,0,0,.74.25c.4.12.74.24,1,.35a1.89,1.89,0,0,1,.7.53,1.41,1.41,0,0,1,.29.92,1.55,1.55,0,0,1-.67,1.34,2.82,2.82,0,0,1-1.73.49,4.85,4.85,0,0,1-1.38-.2,3.67,3.67,0,0,1-1.18-.61l.59-1.2a4.61,4.61,0,0,0,1,.52,3.11,3.11,0,0,0,1,.18.93.93,0,0,0,.44-.09.27.27,0,0,0,.16-.26.35.35,0,0,0-.24-.32,3.85,3.85,0,0,0-.74-.25c-.39-.12-.72-.24-1-.35a1.9,1.9,0,0,1-.68-.52,1.37,1.37,0,0,1-.29-.9,1.59,1.59,0,0,1,.65-1.35,2.72,2.72,0,0,1,1.68-.49,4.6,4.6,0,0,1,1.22.17,4.79,4.79,0,0,1,1.14.49L59.93,70A4.06,4.06,0,0,0,58.13,69.46Z"/><g id="Icon"><path id="Mask-2" data-name="Mask" class="cls-1" d="M40.24,94.08h0a4.39,4.39,0,0,1,4.4,4.39h0a4.4,4.4,0,0,1-4.4,4.4h0a4.4,4.4,0,0,1-4.39-4.4h0A4.39,4.39,0,0,1,40.24,94.08Z"/><g class="cls-11"><path class="cls-12" d="M43,103.17a.68.68,0,0,0,.63-.92,3.12,3.12,0,0,0-2.13-1.82h-.06a4.84,4.84,0,0,0-2.56.06,3.06,3.06,0,0,0-1.91,1.73h0a.67.67,0,0,0,.61,1Z"/><path class="cls-12" d="M41.75,97.13V96.7a1.47,1.47,0,0,0-1.4-1.53h-.21a1.46,1.46,0,0,0-1.39,1.53v.5a1.56,1.56,0,0,0,1.76,1.66A1.7,1.7,0,0,0,41.75,97.13Z"/></g></g><line class="cls-13" x1="47.39" y1="97.17" x2="74.15" y2="97.17"/><line class="cls-14" x1="47.39" y1="101.17" x2="60.77" y2="101.17"/></svg>