<svg id="Layer_1" data-name="Layer 1" xmlns="http://www.w3.org/2000/svg" viewBox="0 0 110 110"><defs><style>.cls-1{fill:#f1f2f2;}.cls-2{fill:#fff;}.cls-3{fill:#d2d3d4;}.cls-4{fill:#bcbec0;}.cls-5,.cls-6,.cls-8{fill:none;stroke-linecap:round;stroke-miterlimit:10;stroke-width:3px;}.cls-5{stroke:#44c3d3;}.cls-6{stroke:#bcbec0;}.cls-7{fill:#61c7db;}.cls-8{stroke:#fff;}</style></defs><title>marketing - screen - blueArtboard 60@1x</title><rect id="Background" class="cls-1" width="110" height="110" rx="2.2" ry="2.2"/><rect class="cls-2" x="20" y="19" width="70" height="79"/><g id="Top_bar" data-name="Top bar"><path id="Background-2" data-name="Background" class="cls-3" d="M2.2,0H107.8A2.19,2.19,0,0,1,110,2.2V10H0V2.2A2.19,2.19,0,0,1,2.2,0Z"/><circle id="Oval" class="cls-4" cx="16.21" cy="4.86" r="1.65"/><circle id="Oval-2" data-name="Oval" class="cls-4" cx="10.71" cy="4.86" r="1.65"/><circle id="Oval-3" data-name="Oval" class="cls-4" cx="5.21" cy="4.86" r="1.65"/></g><line class="cls-5" x1="64" y1="33" x2="83" y2="33"/><line class="cls-6" x1="27" y1="33" x2="58" y2="33"/><line class="cls-6" x1="27" y1="41" x2="83" y2="41"/><line class="cls-6" x1="27" y1="48" x2="83" y2="48"/><rect class="cls-7" x="36.35" y="45.78" width="36.69" height="56.61" rx="3.69" ry="3.69" transform="translate(-19.39 128.78) rotate(-90)"/><line class="cls-8" x1="61.27" y1="77.75" x2="75.14" y2="77.75"/><line class="cls-8" x1="61.27" y1="70.42" x2="75.14" y2="70.42"/><path class="cls-2" d="M33.53,74.63a4.06,4.06,0,0,1-1-2.89,5.49,5.49,0,0,1,.58-2.59,4.3,4.3,0,0,1,1.65-1.73,4.67,4.67,0,0,1,2.41-.62,3.54,3.54,0,0,1,2.7,1.07,4.1,4.1,0,0,1,1,2.9,5.68,5.68,0,0,1-.58,2.59,4.28,4.28,0,0,1-1.63,1.74,4.74,4.74,0,0,1-2.42.62A3.55,3.55,0,0,1,33.53,74.63Zm4.07-2A3.13,3.13,0,0,0,38,71a2.35,2.35,0,0,0-.3-1.28.89.89,0,0,0-.8-.48,1.26,1.26,0,0,0-1.1.65,3.13,3.13,0,0,0-.42,1.72,2.36,2.36,0,0,0,.3,1.27.88.88,0,0,0,.8.47A1.25,1.25,0,0,0,37.6,72.65Zm2.67,8.54h-3.2L46.93,67h3.21Zm7.06-.9a4.1,4.1,0,0,1-1-2.89,5.54,5.54,0,0,1,.58-2.6,4.3,4.3,0,0,1,1.65-1.73A4.67,4.67,0,0,1,51,72.45a3.51,3.51,0,0,1,2.7,1.08,4.06,4.06,0,0,1,1,2.9A5.63,5.63,0,0,1,54.1,79a4.22,4.22,0,0,1-1.63,1.74,4.73,4.73,0,0,1-2.41.62A3.55,3.55,0,0,1,47.33,80.29Zm4.07-2a3.09,3.09,0,0,0,.42-1.69,2.41,2.41,0,0,0-.3-1.29.89.89,0,0,0-.8-.48,1.26,1.26,0,0,0-1.1.65,3.16,3.16,0,0,0-.42,1.73,2.35,2.35,0,0,0,.3,1.26.89.89,0,0,0,.8.48A1.24,1.24,0,0,0,51.4,78.3Z"/></svg>