<svg id="Layer_1" data-name="Layer 1" xmlns="http://www.w3.org/2000/svg" viewBox="0 0 110 110"><defs><style>.cls-1{fill:#f1f2f2;}.cls-2{fill:#d2d3d4;}.cls-3{fill:#a8a9ac;}.cls-4{font-size:8px;font-family:HKNova-Heavy, HK Nova;}.cls-4,.cls-7{fill:#44c3d3;}.cls-5{letter-spacing:0.03em;}.cls-6{fill:#fff;}.cls-8{fill:#b4e1eb;}.cls-12,.cls-9{fill:none;}.cls-9{stroke:#daf0f4;stroke-miterlimit:10;stroke-width:2px;}.cls-10{fill:#0bbcd4;}.cls-11{fill:#61c7db;}.cls-12{stroke:#d2d3d4;stroke-linecap:round;stroke-linejoin:round;stroke-width:3px;}</style></defs><title>marketing - screen - blueArtboard 33@1x</title><rect id="Background" class="cls-1" width="110" height="110" rx="2.2" ry="2.2"/><g id="Top_bar" data-name="Top bar"><path id="Background-2" data-name="Background" class="cls-2" d="M2.2,0H107.8A2.19,2.19,0,0,1,110,2.2V7.78C110,9,109.82,10,110,10H.55C.18,10.19,0,9,0,7.78V2.2A2.19,2.19,0,0,1,2.2,0Z"/><circle id="Oval" class="cls-3" cx="16.24" cy="4.36" r="1.65"/><circle id="Oval-2" data-name="Oval" class="cls-3" cx="10.74" cy="4.36" r="1.65"/><circle id="Oval-3" data-name="Oval" class="cls-3" cx="5.24" cy="4.36" r="1.65"/></g><text class="cls-4" transform="translate(10.82 25.3)">Get sta<tspan class="cls-5" x="30.29" y="0">r</tspan><tspan x="34.05" y="0">ted</tspan></text><rect class="cls-6" x="60.18" y="26.94" width="39" height="8" rx="2.84" ry="2.84"/><rect class="cls-6" x="60.18" y="51.71" width="39" height="8" rx="2.84" ry="2.84"/><rect class="cls-6" x="60.18" y="39.33" width="39" height="8" rx="2.84" ry="2.84"/><rect class="cls-6" x="60.18" y="64.1" width="39" height="8" rx="2.84" ry="2.84"/><rect class="cls-6" x="60.18" y="76.49" width="39" height="8" rx="2.84" ry="2.84"/><rect class="cls-7" x="60.18" y="89.73" width="39" height="11" rx="3.67" ry="3.67"/><rect class="cls-8" x="10.82" y="55.85" width="40.97" height="32.5"/><line class="cls-9" x1="14.63" y1="62.29" x2="17.69" y2="62.29"/><line class="cls-9" x1="14.63" y1="68.81" x2="17.69" y2="68.81"/><line class="cls-9" x1="14.63" y1="75.32" x2="17.69" y2="75.32"/><line class="cls-9" x1="14.63" y1="81.84" x2="17.69" y2="81.84"/><line class="cls-9" x1="20.37" y1="62.29" x2="23.42" y2="62.29"/><line class="cls-9" x1="20.37" y1="68.81" x2="23.42" y2="68.81"/><line class="cls-9" x1="20.37" y1="75.32" x2="23.42" y2="75.32"/><line class="cls-9" x1="20.37" y1="81.84" x2="23.42" y2="81.84"/><line class="cls-9" x1="39.68" y1="62.29" x2="42.74" y2="62.29"/><line class="cls-9" x1="39.68" y1="68.81" x2="42.74" y2="68.81"/><line class="cls-9" x1="39.68" y1="75.32" x2="42.74" y2="75.32"/><line class="cls-9" x1="39.68" y1="81.84" x2="42.74" y2="81.84"/><line class="cls-9" x1="45.42" y1="62.29" x2="48.47" y2="62.29"/><line class="cls-9" x1="45.42" y1="68.81" x2="48.47" y2="68.81"/><line class="cls-9" x1="45.42" y1="75.32" x2="48.47" y2="75.32"/><line class="cls-9" x1="45.42" y1="81.84" x2="48.47" y2="81.84"/><line class="cls-9" x1="33.95" y1="62.29" x2="37" y2="62.29"/><line class="cls-9" x1="33.95" y1="68.81" x2="37" y2="68.81"/><line class="cls-9" x1="33.95" y1="75.32" x2="37" y2="75.32"/><line class="cls-9" x1="33.95" y1="81.84" x2="37" y2="81.84"/><line class="cls-9" x1="26.77" y1="62.29" x2="29.83" y2="62.29"/><line class="cls-9" x1="26.77" y1="68.81" x2="29.83" y2="68.81"/><line class="cls-9" x1="26.77" y1="75.32" x2="29.83" y2="75.32"/><circle class="cls-10" cx="28.69" cy="81.84" r="2.58"/><path class="cls-11" d="M25.57,38.22v6.63A1.12,1.12,0,0,1,24.45,46h-.36a.71.71,0,0,0-.71.65v2.15l-2.59-2.59h0l0,0a.71.71,0,0,0-.47-.17H11.93a1.12,1.12,0,0,1-1.11-1.12V38.22a1.11,1.11,0,0,1,1.11-1.11H24.45A1.12,1.12,0,0,1,25.57,38.22Zm-3.35,3.32a.72.72,0,1,0-.71.71A.71.71,0,0,0,22.22,41.54Zm-3.31,0a.72.72,0,1,0-.72.71A.72.72,0,0,0,18.91,41.54Zm-3.32,0a.72.72,0,1,0-.71.71A.71.71,0,0,0,15.59,41.54Z"/><path class="cls-6" d="M21.51,40.82a.72.72,0,1,1-.72.72A.71.71,0,0,1,21.51,40.82Z"/><path class="cls-6" d="M18.19,40.82a.72.72,0,1,1-.71.72A.72.72,0,0,1,18.19,40.82Z"/><path class="cls-6" d="M14.88,40.82a.72.72,0,1,1-.72.72A.71.71,0,0,1,14.88,40.82Z"/><path class="cls-7" d="M48.83,42.36a.88.88,0,0,0-.58-.43V40.6a5.66,5.66,0,0,0-11.31,0v1.33a.9.9,0,0,0-.58.44,1.21,1.21,0,0,0-.13.59V45.9a1.19,1.19,0,0,0,.13.59,1,1,0,0,0,.94.49h.45a.58.58,0,0,0,.57.54h.51a.58.58,0,0,0,.58-.58V41.86a.58.58,0,0,0-.58-.57h-.52a.58.58,0,0,0-.58.57v0H37.5V40.6a5.09,5.09,0,0,1,10.17,0v1.29h-.24v0a.58.58,0,0,0-.57-.57h-.49a.58.58,0,0,0-.57.57V47a.56.56,0,0,0,.51.56,1.88,1.88,0,0,1-.47,1,3.19,3.19,0,0,1-2.18.87v-.13a.6.6,0,0,0-.63-.58H41.8a.62.62,0,0,0-.63.58v.86a.61.61,0,0,0,.63.58h1.25a.6.6,0,0,0,.62-.58v-.16a3.73,3.73,0,0,0,2.61-1,2.44,2.44,0,0,0,.63-1.37.58.58,0,0,0,.54-.54h.45a1,1,0,0,0,.94-.49A1.19,1.19,0,0,0,49,45.9V43A1.13,1.13,0,0,0,48.83,42.36Z"/><line class="cls-12" x1="10.74" y1="95.23" x2="51.78" y2="95.23"/></svg>