<svg id="Layer_1" data-name="Layer 1" xmlns="http://www.w3.org/2000/svg" viewBox="0 0 110 110"><defs><style>.cls-1{fill:#f1f2f2;}.cls-2{fill:#bcbec0;}.cls-3{fill:#f9fdfe;}.cls-4{fill:#d2d3d4;}.cls-5{fill:#61c7db;}.cls-6,.cls-7{fill:none;stroke-linecap:round;stroke-miterlimit:10;stroke-width:3px;}.cls-6{stroke:#61c7db;}.cls-7{stroke:#bcbec0;}.cls-8{fill:#b4e1eb;}</style></defs><title>marketing - screen - blueArtboard 4@1x</title><rect id="Background" class="cls-1" width="110" height="110" rx="2.2" ry="2.2"/><path id="Button" class="cls-2" d="M73,16H101.7a1.08,1.08,0,0,1,1.06,1.1v8.8A1.08,1.08,0,0,1,101.7,27H73a1.08,1.08,0,0,1-1.07-1.1V17.1A1.08,1.08,0,0,1,73,16Z"/><path id="Inout" class="cls-3" d="M8.3,16H65a1.08,1.08,0,0,1,1.07,1.1v8.8A1.08,1.08,0,0,1,65,27H8.3a1.08,1.08,0,0,1-1.06-1.1V17.1A1.08,1.08,0,0,1,8.3,16Z"/><g id="Top_bar" data-name="Top bar"><path id="Background-2" data-name="Background" class="cls-4" d="M2.2,0H107.8A2.19,2.19,0,0,1,110,2.2V7.78c0,1.23-.18,2,0,2.22H0V2.2A2.19,2.19,0,0,1,2.2,0Z"/><circle id="Oval" class="cls-2" cx="15.97" cy="4.81" r="1.65"/><circle id="Oval-2" data-name="Oval" class="cls-2" cx="10.47" cy="4.81" r="1.65"/><circle id="Oval-3" data-name="Oval" class="cls-2" cx="4.97" cy="4.81" r="1.65"/></g><path id="Img" class="cls-5" d="M8.3,37H19.68a1.08,1.08,0,0,1,1.06,1.1V48.9A1.08,1.08,0,0,1,19.68,50H8.3a1.08,1.08,0,0,1-1.06-1.1V38.1A1.08,1.08,0,0,1,8.3,37Z"/><line class="cls-6" x1="25.56" y1="40" x2="99.8" y2="40"/><line class="cls-6" x1="25.56" y1="47" x2="44.84" y2="47"/><line class="cls-6" x1="54.98" y1="47" x2="99.33" y2="47"/><path id="Img-2" data-name="Img" class="cls-2" d="M8.3,54.5H19.68a1.08,1.08,0,0,1,1.06,1.1V66.4a1.08,1.08,0,0,1-1.06,1.1H8.3a1.08,1.08,0,0,1-1.06-1.1V55.6A1.08,1.08,0,0,1,8.3,54.5Z"/><line class="cls-7" x1="25.56" y1="57.5" x2="99.8" y2="57.5"/><line class="cls-7" x1="25.56" y1="64.5" x2="44.84" y2="64.5"/><line class="cls-7" x1="54.98" y1="64.5" x2="99.33" y2="64.5"/><path id="Img-3" data-name="Img" class="cls-2" d="M8.3,72H19.68a1.08,1.08,0,0,1,1.06,1.1V83.9A1.08,1.08,0,0,1,19.68,85H8.3a1.08,1.08,0,0,1-1.06-1.1V73.1A1.08,1.08,0,0,1,8.3,72Z"/><line class="cls-7" x1="25.56" y1="75" x2="99.8" y2="75"/><line class="cls-7" x1="25.56" y1="82" x2="44.84" y2="82"/><line class="cls-7" x1="54.98" y1="82" x2="99.33" y2="82"/><path id="Img-4" data-name="Img" class="cls-2" d="M8.3,89.5H19.68a1.08,1.08,0,0,1,1.06,1.1v10.8a1.08,1.08,0,0,1-1.06,1.1H8.3a1.08,1.08,0,0,1-1.06-1.1V90.6A1.08,1.08,0,0,1,8.3,89.5Z"/><line class="cls-7" x1="25.56" y1="92.5" x2="99.8" y2="92.5"/><line class="cls-7" x1="25.56" y1="99.5" x2="44.84" y2="99.5"/><line class="cls-7" x1="54.98" y1="99.5" x2="99.33" y2="99.5"/><path class="cls-8" d="M12.05,42.9a.83.83,0,0,1,.29.67v1.64h-.81v-.28a.92.92,0,0,1-.76.32.89.89,0,0,1-.64-.22.75.75,0,0,1-.23-.57.71.71,0,0,1,.25-.56,1.16,1.16,0,0,1,.72-.2h.66v0a.32.32,0,0,0-.13-.28.52.52,0,0,0-.35-.1,1.63,1.63,0,0,0-.36.05,3.25,3.25,0,0,0-.4.15l-.23-.56a4.22,4.22,0,0,1,.59-.21,2.88,2.88,0,0,1,.59-.06A1.22,1.22,0,0,1,12.05,42.9Zm-.7,1.69a.41.41,0,0,0,.18-.23v-.22H11c-.23,0-.35.09-.35.26a.26.26,0,0,0,.09.21.39.39,0,0,0,.25.08A.52.52,0,0,0,11.35,44.59Z"/><path class="cls-8" d="M15.45,41.75v3.46h-.83v-.32a.9.9,0,0,1-.32.26.85.85,0,0,1-.43.1,1.14,1.14,0,0,1-.61-.17,1,1,0,0,1-.41-.46,1.48,1.48,0,0,1-.15-.68,1.54,1.54,0,0,1,.14-.67,1,1,0,0,1,.41-.45,1.11,1.11,0,0,1,.61-.16,1,1,0,0,1,.43.09,1,1,0,0,1,.33.27V41.75Zm-1,2.67a.78.78,0,0,0,0-.92.51.51,0,0,0-.39-.17.48.48,0,0,0-.39.18.62.62,0,0,0-.16.45.65.65,0,0,0,.16.46.53.53,0,0,0,.78,0Z"/><path class="cls-8" d="M17,43.23a.29.29,0,0,0-.17,0,.15.15,0,0,0-.07.12.16.16,0,0,0,.11.13,2,2,0,0,0,.32.12,3.92,3.92,0,0,1,.45.15.79.79,0,0,1,.31.23.63.63,0,0,1,.13.41.68.68,0,0,1-.29.6,1.25,1.25,0,0,1-.77.22,2.11,2.11,0,0,1-.62-.09,1.51,1.51,0,0,1-.52-.27l.26-.54a1.6,1.6,0,0,0,.45.23,1.23,1.23,0,0,0,.44.09.5.5,0,0,0,.2,0,.13.13,0,0,0,.07-.12.15.15,0,0,0-.1-.14,1.56,1.56,0,0,0-.33-.11l-.44-.16a.76.76,0,0,1-.3-.23.58.58,0,0,1-.13-.4.68.68,0,0,1,.29-.6,1.16,1.16,0,0,1,.74-.22,2.17,2.17,0,0,1,1.05.29l-.28.55A1.71,1.71,0,0,0,17,43.23Z"/><path class="cls-8" d="M24.88,20.46a1.47,1.47,0,0,1,.5,1.16v2.82H24V24a1.8,1.8,0,0,1-2.39.18,1.3,1.3,0,0,1-.39-1,1.17,1.17,0,0,1,.42-1,1.94,1.94,0,0,1,1.23-.35H24v-.05a.57.57,0,0,0-.21-.48,1,1,0,0,0-.61-.17,2.44,2.44,0,0,0-.62.09,4,4,0,0,0-.68.25l-.39-1a5.8,5.8,0,0,1,1-.35,4.15,4.15,0,0,1,1-.12A2.16,2.16,0,0,1,24.88,20.46Zm-1.2,2.92A.67.67,0,0,0,24,23V22.6h-.85c-.4,0-.6.15-.6.44a.44.44,0,0,0,.16.36.61.61,0,0,0,.43.13A1,1,0,0,0,23.68,23.38Z"/><path class="cls-8" d="M30.71,18.5v5.94H29.28v-.56a1.58,1.58,0,0,1-.54.46,1.75,1.75,0,0,1-.74.15A1.92,1.92,0,0,1,27,24.21a1.82,1.82,0,0,1-.71-.79A2.58,2.58,0,0,1,26,22.25a2.47,2.47,0,0,1,.25-1.15,1.78,1.78,0,0,1,.69-.77,2,2,0,0,1,1-.27,1.65,1.65,0,0,1,.75.16,1.56,1.56,0,0,1,.56.46V18.5ZM29,23.07a1.34,1.34,0,0,0,0-1.56.91.91,0,0,0-1.35,0,1.3,1.3,0,0,0,0,1.56.91.91,0,0,0,1.35,0Z"/><path class="cls-8" d="M31.25,20.11H32.7L33.56,23l.85-2.93h1.36L36.63,23l.86-2.93h1.39L37.3,24.44H35.89l-.82-2.68-.83,2.68H32.83Z"/><path class="cls-8" d="M42.48,20.34a2.06,2.06,0,0,1,.83.77,2.32,2.32,0,0,1,.29,1.16,2.29,2.29,0,0,1-.29,1.16,2.08,2.08,0,0,1-.83.78,2.73,2.73,0,0,1-1.24.27A2.7,2.7,0,0,1,40,24.21a2,2,0,0,1-.83-.78,2.2,2.2,0,0,1-.29-1.16,2.22,2.22,0,0,1,.29-1.16,1.94,1.94,0,0,1,.83-.77,2.58,2.58,0,0,1,1.24-.28A2.61,2.61,0,0,1,42.48,20.34Zm-1.92,1.17a1.13,1.13,0,0,0-.25.77,1.17,1.17,0,0,0,.25.79.84.84,0,0,0,.68.29.86.86,0,0,0,.68-.29,1.17,1.17,0,0,0,.25-.79,1.09,1.09,0,0,0-.26-.77.91.91,0,0,0-1.35,0Z"/><path class="cls-8" d="M46.34,20.25a1.62,1.62,0,0,1,.81-.2v1.31h-.22a1.34,1.34,0,0,0-.81.23.91.91,0,0,0-.36.65v2.21H44.33V20.11h1.43v.72A1.47,1.47,0,0,1,46.34,20.25Z"/><path class="cls-8" d="M52.14,18.5v5.94H50.72v-.56a1.61,1.61,0,0,1-.55.46,1.73,1.73,0,0,1-.73.15,2,2,0,0,1-1.06-.28,1.88,1.88,0,0,1-.71-.79,2.58,2.58,0,0,1-.25-1.17,2.47,2.47,0,0,1,.25-1.15,1.85,1.85,0,0,1,.69-.77,2,2,0,0,1,1-.27,1.65,1.65,0,0,1,.75.16,1.68,1.68,0,0,1,.57.46V18.5Zm-1.68,4.57a1.3,1.3,0,0,0,0-1.56.83.83,0,0,0-.67-.3.85.85,0,0,0-.68.3,1.3,1.3,0,0,0,0,1.56.85.85,0,0,0,.68.3A.83.83,0,0,0,50.46,23.07Z"/></svg>