<svg id="Layer_1" data-name="Layer 1" xmlns="http://www.w3.org/2000/svg" xmlns:xlink="http://www.w3.org/1999/xlink" viewBox="0 0 110 110"><defs><style>.cls-1{fill:#d2d3d4;}.cls-2{fill:#f1f2f2;}.cls-3{fill:#fff;}.cls-4{fill:#bcbec0;}.cls-11,.cls-12,.cls-5,.cls-6{fill:none;}.cls-11,.cls-5{stroke:#bcbec0;}.cls-11,.cls-12,.cls-5{stroke-linecap:round;stroke-miterlimit:10;}.cls-5{stroke-width:3px;}.cls-7{fill:#97b23c;}.cls-8{fill:#e85469;}.cls-9{clip-path:url(#clip-path);}.cls-10{fill:#a8a9ac;}.cls-11,.cls-12{stroke-width:2px;}.cls-12{stroke:#d2d3d4;}</style><clipPath id="clip-path"><path id="Mask" class="cls-1" d="M40.24,79.49h0a4.4,4.4,0,0,1,4.4,4.39h0a4.4,4.4,0,0,1-4.4,4.4h0a4.4,4.4,0,0,1-4.39-4.4h0A4.4,4.4,0,0,1,40.24,79.49Z"/></clipPath></defs><title>marketing - screen - blueArtboard 49@1x</title><rect id="Background" class="cls-2" width="110" height="110" rx="2.2" ry="2.2"/><rect class="cls-3" x="20" y="19" width="70" height="91"/><g id="Top_bar" data-name="Top bar"><path id="Background-2" data-name="Background" class="cls-1" d="M2.2,0H107.8A2.19,2.19,0,0,1,110,2.2V10H0V2.2A2.19,2.19,0,0,1,2.2,0Z"/><circle id="Oval" class="cls-4" cx="15.94" cy="5.11" r="1.65"/><circle id="Oval-2" data-name="Oval" class="cls-4" cx="10.44" cy="5.11" r="1.65"/><circle id="Oval-3" data-name="Oval" class="cls-4" cx="4.94" cy="5.11" r="1.65"/></g><line class="cls-5" x1="32.5" y1="28.5" x2="77.5" y2="28.5"/><line class="cls-5" x1="32.5" y1="35.5" x2="77.5" y2="35.5"/><line class="cls-5" x1="43.5" y1="43.5" x2="66.5" y2="43.5"/><rect class="cls-6" x="20" y="19" width="70" height="91"/><rect class="cls-7" x="42.24" y="94.26" width="25.52" height="7.41" rx="3.54" ry="3.54"/><path class="cls-8" d="M68.67,58c-.54-6.12-5.83-6.86-9.72-5.1l-2.3,6.54L61.34,58l-3.72,5.59,4.11-1.7L54.22,73.52l2.2-8-3,1.74,2.65-5.76-3.35.11,1.11-6.75C50.4,51.15,42,50.22,41.33,58,40.29,69.61,55,76.4,55,76.4S69.71,69.61,68.67,58Z"/><g id="Icon"><path id="Mask-2" data-name="Mask" class="cls-1" d="M40.24,79.49h0a4.4,4.4,0,0,1,4.4,4.39h0a4.4,4.4,0,0,1-4.4,4.4h0a4.4,4.4,0,0,1-4.39-4.4h0A4.4,4.4,0,0,1,40.24,79.49Z"/><g class="cls-9"><path class="cls-10" d="M43,88.58a.68.68,0,0,0,.63-.92,3.12,3.12,0,0,0-2.13-1.82h-.06a4.84,4.84,0,0,0-2.56.06,3.06,3.06,0,0,0-1.91,1.73v0a.67.67,0,0,0,.61.94Z"/><path class="cls-10" d="M41.75,82.55v-.44a1.47,1.47,0,0,0-1.4-1.53h-.21a1.46,1.46,0,0,0-1.39,1.53v.5a1.56,1.56,0,0,0,1.76,1.66A1.69,1.69,0,0,0,41.75,82.55Z"/></g></g><line class="cls-11" x1="47.39" y1="82.58" x2="74.15" y2="82.58"/><line class="cls-12" x1="47.39" y1="86.58" x2="60.77" y2="86.58"/></svg>