<svg id="Layer_1" data-name="Layer 1" xmlns="http://www.w3.org/2000/svg" viewBox="0 0 110 110"><defs><style>.cls-1{fill:#f1f2f2;}.cls-2{fill:#fff;}.cls-3,.cls-4{fill:none;}.cls-3{stroke:#bcbec0;stroke-linecap:round;stroke-miterlimit:10;stroke-width:3px;}.cls-5{fill:#97b23c;}.cls-6{fill:#5c414b;}.cls-7{fill:#503441;}.cls-8{fill:#e6af78;}.cls-9{fill:#ffdc64;}.cls-10{fill:#fff082;}.cls-11{fill:#d29b6e;}.cls-12{fill:#f0c087;}.cls-13{fill:#c39772;}.cls-14{fill:#dbd9dc;}.cls-15{fill:#d2d3d4;}.cls-16{fill:#bcbec0;}</style></defs><title>marketing - screen - blueArtboard 55@1x</title><rect id="Background" class="cls-1" width="110" height="110" rx="2.2" ry="2.2"/><rect class="cls-2" x="20" y="19" width="70" height="91"/><line class="cls-3" x1="32.5" y1="28.5" x2="77.5" y2="28.5"/><line class="cls-3" x1="32.5" y1="35.5" x2="77.5" y2="35.5"/><line class="cls-3" x1="43.5" y1="43.5" x2="66.5" y2="43.5"/><rect class="cls-4" x="20" y="19" width="70" height="91"/><rect class="cls-5" x="42.24" y="94.77" width="25.52" height="7.41" rx="3.54" ry="3.54"/><path class="cls-6" d="M63.05,61V58.8a8.17,8.17,0,0,0-7.64-8.24,8,8,0,0,0-8.41,8V61a22.53,22.53,0,0,1-1,7.54.61.61,0,0,0,.29.75,28.12,28.12,0,0,0,7.54,2.82h2.47a28.12,28.12,0,0,0,7.54-2.82.63.63,0,0,0,.29-.75A22.53,22.53,0,0,1,63.05,61Z"/><path class="cls-7" d="M47,58.57V61a22.53,22.53,0,0,1-1,7.54.62.62,0,0,0,.3.75A29.48,29.48,0,0,0,53.17,72V59.81l-1.23-1.24a7.62,7.62,0,0,1-2.06-6.15A8,8,0,0,0,47,58.57Z"/><rect class="cls-8" x="51.94" y="67.83" width="6.17" height="8.02"/><path class="cls-9" d="M63.93,73.61l-3.28-1.46L56.26,74l-.72,1.08a.62.62,0,0,1-1,0L53.79,74l-4.32-1.85-3.29,1.46A3.69,3.69,0,0,0,44,77.1l.32,11.71h21.5l.32-11.71A3.7,3.7,0,0,0,63.93,73.61Z"/><path class="cls-10" d="M48.11,78.32,45,74.45a3.7,3.7,0,0,0-1,2.65l.32,11.71h3.8Z"/><path class="cls-10" d="M62,78.32l3.1-3.87a3.67,3.67,0,0,1,1,2.65l-.32,11.71H62V78.32Z"/><path class="cls-11" d="M51.94,69.62a7.34,7.34,0,0,0,6.17,0V67.83H51.94Z"/><path class="cls-12" d="M60.87,64.84a5.41,5.41,0,0,0,.26-1.55c.09-3.55-4.88-2.72-9-5.4a.62.62,0,0,0-.86.15,12.84,12.84,0,0,1-1.8,2.06,1.24,1.24,0,0,1-.84.32h-.45l-.2,0a1.3,1.3,0,0,0-1,1.3v.45a1.3,1.3,0,0,0,1,1.28,1.16,1.16,0,0,0,.37,0A.58.58,0,0,1,49,64a6.16,6.16,0,0,0,11.76,1.24Z"/><path class="cls-8" d="M51.32,62.89V58A13.61,13.61,0,0,1,49.5,60.1a1.24,1.24,0,0,1-.84.32h-.45l-.2,0a1.3,1.3,0,0,0-1,1.3v.45a1.3,1.3,0,0,0,1,1.28,1.16,1.16,0,0,0,.37,0A.58.58,0,0,1,49,64a6.17,6.17,0,0,0,6.06,5,6.26,6.26,0,0,0,1.23-.12A6.19,6.19,0,0,1,51.32,62.89Z"/><path class="cls-13" d="M68.6,88.81H41.45a.62.62,0,0,1-.62-.62.61.61,0,0,1,.62-.61H68.6a.61.61,0,0,1,.62.61A.62.62,0,0,1,68.6,88.81Z"/><path class="cls-10" d="M50.66,74.53l-1.19-2.38L50.81,71a.62.62,0,0,1,.9.11L53.79,74l-1.28,1A1.23,1.23,0,0,1,50.66,74.53Z"/><path class="cls-10" d="M59.39,74.53l1.19-2.38L59.24,71a.62.62,0,0,0-.9.11L56.26,74l1.28,1A1.23,1.23,0,0,0,59.39,74.53Z"/><path class="cls-14" d="M61.88,87.58H48.17a1.24,1.24,0,0,1-1.24-1.16l-.47-8a1.23,1.23,0,0,1,1.23-1.3H62.36a1.23,1.23,0,0,1,1.23,1.3l-.47,8A1.24,1.24,0,0,1,61.88,87.58Z"/><circle class="cls-2" cx="55.02" cy="82.64" r="1.54"/><g id="Top_bar" data-name="Top bar"><path id="Background-2" data-name="Background" class="cls-15" d="M2.2,0H107.8A2.19,2.19,0,0,1,110,2.2V10H0V2.2A2.19,2.19,0,0,1,2.2,0Z"/><circle id="Oval" class="cls-16" cx="15.94" cy="5.11" r="1.65"/><circle id="Oval-2" data-name="Oval" class="cls-16" cx="10.44" cy="5.11" r="1.65"/><circle id="Oval-3" data-name="Oval" class="cls-16" cx="4.94" cy="5.11" r="1.65"/></g></svg>