<svg id="Layer_1" data-name="Layer 1" xmlns="http://www.w3.org/2000/svg" xmlns:xlink="http://www.w3.org/1999/xlink" viewBox="0 0 110.08 110"><defs><style>.cls-1,.cls-12,.cls-5,.cls-6{fill:none;}.cls-2{fill:#f1f2f2;}.cls-3{fill:#d2d3d4;}.cls-4{fill:#a8a9ac;}.cls-12,.cls-5{stroke:#bcbec0;}.cls-12,.cls-5,.cls-6{stroke-linecap:round;stroke-miterlimit:10;}.cls-5,.cls-6{stroke-width:1.65px;}.cls-6{stroke:#d2d3d4;}.cls-7{fill:#a7dde5;}.cls-8{fill:#61c7db;}.cls-9{clip-path:url(#clip-path);}.cls-10{fill:#daf0f4;}.cls-11{fill:#bcbec0;}.cls-12{stroke-width:3px;}.cls-13{fill:#b4e1eb;}</style><clipPath id="clip-path"><path id="Mask" class="cls-1" d="M14.93,89.5h0a4.4,4.4,0,0,1,4.4,4.4h0a4.4,4.4,0,0,1-4.4,4.39h0a4.4,4.4,0,0,1-4.39-4.39h0A4.4,4.4,0,0,1,14.93,89.5Z"/></clipPath></defs><title>marketing - screen - blueArtboard 5@1x</title><path id="Background" class="cls-2" d="M2.24,0H110V107.61a2.3,2.3,0,0,1-2.2,2.39H2.24A2.3,2.3,0,0,1,0,107.61V2.2A2.2,2.2,0,0,1,2.24,0Z"/><g id="Top_bar" data-name="Top bar"><path id="Background-2" data-name="Background" class="cls-3" d="M2.24,0h105.6A2.19,2.19,0,0,1,110,2.2V6.88A13.82,13.82,0,0,1,110,9H0A13.36,13.36,0,0,1,0,6.88V2.2A2.2,2.2,0,0,1,2.24,0Z"/><ellipse id="Oval" class="cls-4" cx="15.63" cy="5.03" rx="1.65" ry="1.56"/><ellipse id="Oval-2" data-name="Oval" class="cls-4" cx="10.14" cy="5.03" rx="1.65" ry="1.56"/><ellipse id="Oval-3" data-name="Oval" class="cls-4" cx="4.64" cy="5.03" rx="1.65" ry="1.56"/></g><line class="cls-5" x1="85.54" y1="36" x2="99.54" y2="36"/><line class="cls-5" x1="90.04" y1="47" x2="101.54" y2="47"/><line class="cls-6" x1="90.04" y1="50" x2="95.79" y2="50"/><rect class="cls-7" x="77.04" y="45" width="9.5" height="7" rx="0.66" ry="0.66"/><line class="cls-5" x1="90.04" y1="59.4" x2="101.54" y2="59.4"/><line class="cls-6" x1="90.04" y1="62.4" x2="95.79" y2="62.4"/><rect class="cls-7" x="77.04" y="57.4" width="9.5" height="7" rx="0.66" ry="0.66"/><line class="cls-5" x1="90.04" y1="96.6" x2="101.54" y2="96.6"/><line class="cls-6" x1="90.04" y1="99.6" x2="95.79" y2="99.6"/><rect class="cls-7" x="77.04" y="94.6" width="9.5" height="7" rx="0.66" ry="0.66"/><line class="cls-5" x1="90.04" y1="84.2" x2="101.54" y2="84.2"/><line class="cls-6" x1="90.04" y1="87.2" x2="95.79" y2="87.2"/><rect class="cls-7" x="77.04" y="82.2" width="9.5" height="7" rx="0.66" ry="0.66"/><line class="cls-5" x1="90.04" y1="71.8" x2="101.54" y2="71.8"/><line class="cls-6" x1="90.04" y1="74.8" x2="95.79" y2="74.8"/><rect class="cls-7" x="77.04" y="69.8" width="9.5" height="7" rx="0.66" ry="0.66"/><rect class="cls-8" x="77.04" y="16" width="26" height="21" rx="1.89" ry="1.89"/><g id="Userpic_16px" data-name="Userpic 16px"><path id="Mask-2" data-name="Mask" class="cls-3" d="M14.93,89.5h0a4.4,4.4,0,0,1,4.4,4.4h0a4.4,4.4,0,0,1-4.4,4.39h0a4.4,4.4,0,0,1-4.39-4.39h0A4.4,4.4,0,0,1,14.93,89.5Z"/><g id="Icon"><g class="cls-9"><path class="cls-4" d="M17.64,98.54a.67.67,0,0,0,.63-.92,3.1,3.1,0,0,0-2.13-1.82h-.05a4.87,4.87,0,0,0-2.57.06,3.06,3.06,0,0,0-1.91,1.73h0a.68.68,0,0,0,.62,1Z"/><path class="cls-4" d="M16.44,92.5v-.43A1.47,1.47,0,0,0,15,90.54h-.21a1.46,1.46,0,0,0-1.39,1.53v.49a1.57,1.57,0,0,0,1.77,1.67A1.7,1.7,0,0,0,16.44,92.5Z"/></g></g></g><line class="cls-5" x1="22.08" y1="92.54" x2="36.08" y2="92.54"/><line class="cls-6" x1="22.08" y1="95.54" x2="29.08" y2="95.54"/><rect class="cls-8" x="7.04" y="16" width="64" height="42" rx="1.74" ry="1.74"/><path class="cls-10" d="M43.42,36a1.2,1.2,0,0,1,0,2.08L39,40.57,34.66,43.1a1.2,1.2,0,0,1-1.81-1V31.94a1.2,1.2,0,0,1,1.81-1L39,33.43Z"/><rect id="Button" class="cls-11" x="45.31" y="89.5" width="22.5" height="7.73" rx="0.77" ry="0.77"/><line class="cls-12" x1="10.54" y1="66" x2="67.54" y2="66"/><line class="cls-12" x1="10.54" y1="73" x2="67.54" y2="73"/><line class="cls-12" x1="10.54" y1="80" x2="42.54" y2="80"/><path class="cls-13" d="M53,35.87a1.59,1.59,0,0,1,.55,1.26v3.06H52v-.53a1.67,1.67,0,0,1-1.41.6,1.64,1.64,0,0,1-1.18-.4A1.39,1.39,0,0,1,49,38.79a1.25,1.25,0,0,1,.46-1,2.1,2.1,0,0,1,1.34-.38H52v-.06a.61.61,0,0,0-.23-.52,1,1,0,0,0-.66-.18,2.88,2.88,0,0,0-.67.09,4.83,4.83,0,0,0-.74.28l-.43-1a6.36,6.36,0,0,1,1.1-.39,4.92,4.92,0,0,1,1.09-.12A2.37,2.37,0,0,1,53,35.87ZM51.64,39A.68.68,0,0,0,52,38.6v-.41h-.92c-.43,0-.65.16-.65.49a.51.51,0,0,0,.17.39.72.72,0,0,0,.46.14A1.09,1.09,0,0,0,51.64,39Z"/><path class="cls-13" d="M59.29,33.74v6.45H57.74v-.61a1.52,1.52,0,0,1-.6.5,1.7,1.7,0,0,1-.79.17A2.17,2.17,0,0,1,55.2,40a2,2,0,0,1-.77-.86,2.86,2.86,0,0,1-.27-1.27,2.71,2.71,0,0,1,.27-1.25,2,2,0,0,1,.75-.84,2.12,2.12,0,0,1,1.13-.3,1.83,1.83,0,0,1,.82.18,1.7,1.7,0,0,1,.61.49V33.74Zm-1.83,5a1.25,1.25,0,0,0,.28-.85,1.23,1.23,0,0,0-.28-.85.89.89,0,0,0-.73-.32A.93.93,0,0,0,56,37a1.39,1.39,0,0,0,0,1.7,1,1,0,0,0,1.46,0Z"/><path class="cls-13" d="M62.16,36.5a.58.58,0,0,0-.32.07.23.23,0,0,0-.13.22c0,.11.07.19.2.25a2.65,2.65,0,0,0,.6.21,8.78,8.78,0,0,1,.84.29,1.47,1.47,0,0,1,.58.44,1.15,1.15,0,0,1,.24.76,1.31,1.31,0,0,1-.55,1.12,2.38,2.38,0,0,1-1.44.4A3.88,3.88,0,0,1,61,40.09a3,3,0,0,1-1-.5l.49-1a3,3,0,0,0,.84.43,2.56,2.56,0,0,0,.83.15.74.74,0,0,0,.36-.07.23.23,0,0,0,.13-.21.28.28,0,0,0-.19-.27,3,3,0,0,0-.61-.21,7.35,7.35,0,0,1-.82-.29,1.56,1.56,0,0,1-.56-.43,1.13,1.13,0,0,1-.24-.75,1.32,1.32,0,0,1,.54-1.12,2.25,2.25,0,0,1,1.39-.4,3.47,3.47,0,0,1,1,.14,3.58,3.58,0,0,1,.94.41l-.52,1A3.52,3.52,0,0,0,62.16,36.5Z"/><path class="cls-13" d="M86.42,25.37A1.56,1.56,0,0,1,87,26.63v3.06H85.45v-.53a1.68,1.68,0,0,1-1.42.6,1.61,1.61,0,0,1-1.17-.4,1.4,1.4,0,0,1-.44-1.07,1.26,1.26,0,0,1,.47-1,2.07,2.07,0,0,1,1.33-.38h1.23v-.06a.64.64,0,0,0-.23-.52,1.06,1.06,0,0,0-.66-.18,2.88,2.88,0,0,0-.67.09,4.47,4.47,0,0,0-.74.28l-.43-1a6.08,6.08,0,0,1,1.1-.39,4.86,4.86,0,0,1,1.09-.12A2.32,2.32,0,0,1,86.42,25.37Zm-1.3,3.17a.76.76,0,0,0,.33-.44v-.41h-.92c-.44,0-.65.16-.65.49a.48.48,0,0,0,.17.39.7.7,0,0,0,.46.14A1.12,1.12,0,0,0,85.12,28.54Z"/><path class="cls-13" d="M92.76,23.24v6.45H91.22v-.61a1.6,1.6,0,0,1-.6.5,1.7,1.7,0,0,1-.79.17,2.17,2.17,0,0,1-1.15-.3,2,2,0,0,1-.77-.86,3,3,0,0,1,0-2.52,2.06,2.06,0,0,1,.76-.84,2.1,2.1,0,0,1,1.13-.3,1.79,1.79,0,0,1,.81.18,1.73,1.73,0,0,1,.62.49V23.24Zm-1.82,5a1.3,1.3,0,0,0,.28-.85,1.28,1.28,0,0,0-.28-.85.91.91,0,0,0-.73-.32,1,1,0,0,0-.74.32,1.43,1.43,0,0,0,0,1.7.93.93,0,0,0,.74.32A.91.91,0,0,0,90.94,28.21Z"/><path class="cls-13" d="M95.63,26a.61.61,0,0,0-.32.07.24.24,0,0,0-.12.22.27.27,0,0,0,.19.25,2.77,2.77,0,0,0,.61.21,8.78,8.78,0,0,1,.84.29,1.55,1.55,0,0,1,.58.44,1.15,1.15,0,0,1,.24.76,1.31,1.31,0,0,1-.55,1.12,2.38,2.38,0,0,1-1.44.4,4,4,0,0,1-1.15-.17,3,3,0,0,1-1-.5l.49-1a3.13,3.13,0,0,0,.83.43,2.62,2.62,0,0,0,.84.15.74.74,0,0,0,.36-.07.23.23,0,0,0,.13-.21.28.28,0,0,0-.19-.27,3.12,3.12,0,0,0-.62-.21,7.87,7.87,0,0,1-.81-.29,1.59,1.59,0,0,1-.57-.43,1.13,1.13,0,0,1-.24-.75,1.32,1.32,0,0,1,.54-1.12,2.28,2.28,0,0,1,1.4-.4,3.47,3.47,0,0,1,1,.14,3.58,3.58,0,0,1,.94.41l-.52,1A3.55,3.55,0,0,0,95.63,26Z"/></svg>