<svg id="Layer_1" data-name="Layer 1" xmlns="http://www.w3.org/2000/svg" xmlns:xlink="http://www.w3.org/1999/xlink" viewBox="0 0 110.08 110"><defs><style>.cls-1{fill:#d2d3d4;}.cls-2{fill:#f1f2f2;}.cls-3{fill:#a8a9ac;}.cls-4{fill:#fff;}.cls-5{clip-path:url(#clip-path);}.cls-6,.cls-7{fill:none;stroke-linecap:round;stroke-miterlimit:10;stroke-width:2px;}.cls-6{stroke:#bcbec0;}.cls-7{stroke:#d2d3d4;}.cls-8{clip-path:url(#clip-path-2);}.cls-9{clip-path:url(#clip-path-3);}.cls-10{clip-path:url(#clip-path-4);}.cls-11{clip-path:url(#clip-path-5);}.cls-12{clip-path:url(#clip-path-6);}.cls-13{fill:#b4e1eb;}.cls-14{fill:#61c7db;}.cls-15{fill:#daf0f4;}.cls-16{fill:#1096b0;}.cls-17{clip-path:url(#clip-path-7);}.cls-18{clip-path:url(#clip-path-8);}.cls-19{clip-path:url(#clip-path-9);}.cls-20{clip-path:url(#clip-path-10);}</style><clipPath id="clip-path"><path id="Mask" class="cls-1" d="M18.42,33.29h0a4.39,4.39,0,0,1,4.39,4.4h0a4.38,4.38,0,0,1-4.39,4.39h0A4.39,4.39,0,0,1,14,37.69h0A4.4,4.4,0,0,1,18.42,33.29Z"/></clipPath><clipPath id="clip-path-2"><path id="Mask-2" data-name="Mask" class="cls-1" d="M18.42,47.89h0a4.39,4.39,0,0,1,4.39,4.39h0a4.39,4.39,0,0,1-4.39,4.4h0a4.4,4.4,0,0,1-4.4-4.4h0A4.4,4.4,0,0,1,18.42,47.89Z"/></clipPath><clipPath id="clip-path-3"><path id="Mask-3" data-name="Mask" class="cls-1" d="M18.42,62.48h0a4.39,4.39,0,0,1,4.39,4.4h0a4.39,4.39,0,0,1-4.39,4.4h0a4.4,4.4,0,0,1-4.4-4.4h0A4.4,4.4,0,0,1,18.42,62.48Z"/></clipPath><clipPath id="clip-path-4"><path id="Mask-4" data-name="Mask" class="cls-1" d="M18.42,77.08h0a4.39,4.39,0,0,1,4.39,4.4h0a4.38,4.38,0,0,1-4.39,4.39h0A4.39,4.39,0,0,1,14,81.48h0A4.4,4.4,0,0,1,18.42,77.08Z"/></clipPath><clipPath id="clip-path-5"><path id="Mask-5" data-name="Mask" class="cls-1" d="M18.42,91.68h0a4.39,4.39,0,0,1,4.39,4.39h0a4.39,4.39,0,0,1-4.39,4.4h0a4.4,4.4,0,0,1-4.4-4.4h0A4.4,4.4,0,0,1,18.42,91.68Z"/></clipPath><clipPath id="clip-path-6"><path id="Mask-6" data-name="Mask" class="cls-1" d="M18.42,18.69h0a4.39,4.39,0,0,1,4.39,4.4h0a4.39,4.39,0,0,1-4.39,4.4h0a4.4,4.4,0,0,1-4.4-4.4h0A4.4,4.4,0,0,1,18.42,18.69Z"/></clipPath><clipPath id="clip-path-7"><path id="Mask-7" data-name="Mask" class="cls-1" d="M57.08,21.33h0a4.4,4.4,0,0,1,4.4,4.4h0a4.39,4.39,0,0,1-4.4,4.39h0a4.39,4.39,0,0,1-4.4-4.39h0A4.4,4.4,0,0,1,57.08,21.33Z"/></clipPath><clipPath id="clip-path-8"><path id="Mask-8" data-name="Mask" class="cls-1" d="M91.56,45.24h0a4.4,4.4,0,0,1,4.4,4.4h0a4.4,4.4,0,0,1-4.4,4.4h0a4.4,4.4,0,0,1-4.4-4.4h0A4.4,4.4,0,0,1,91.56,45.24Z"/></clipPath><clipPath id="clip-path-9"><path id="Mask-9" data-name="Mask" class="cls-1" d="M91.56,81.63h0A4.4,4.4,0,0,1,96,86h0a4.39,4.39,0,0,1-4.4,4.39h0A4.39,4.39,0,0,1,87.16,86h0A4.4,4.4,0,0,1,91.56,81.63Z"/></clipPath><clipPath id="clip-path-10"><path id="Mask-10" data-name="Mask" class="cls-1" d="M57.08,63.17h0a4.4,4.4,0,0,1,4.4,4.4h0a4.4,4.4,0,0,1-4.4,4.4h0a4.4,4.4,0,0,1-4.4-4.4h0A4.4,4.4,0,0,1,57.08,63.17Z"/></clipPath></defs><title>marketing - screen - blueArtboard 77@1x</title><rect id="Background" class="cls-2" x="0.04" width="110" height="110" rx="2.2" ry="2.2"/><g id="Top_bar" data-name="Top bar"><path id="Background-2" data-name="Background" class="cls-1" d="M2.24,0h105.6A2.19,2.19,0,0,1,110,2.2V6.88A13.82,13.82,0,0,1,110,9H0A13.36,13.36,0,0,1,0,6.88V2.2A2.19,2.19,0,0,1,2.24,0Z"/><ellipse id="Oval" class="cls-3" cx="15.63" cy="5.03" rx="1.65" ry="1.56"/><ellipse id="Oval-2" data-name="Oval" class="cls-3" cx="10.14" cy="5.03" rx="1.65" ry="1.56"/><ellipse id="Oval-3" data-name="Oval" class="cls-3" cx="4.64" cy="5.03" rx="1.65" ry="1.56"/></g><path class="cls-4" d="M50,13.5H98.26a2,2,0,0,1,2,2V110a0,0,0,0,1,0,0H48a0,0,0,0,1,0,0V15.5A2,2,0,0,1,50,13.5Z"/><path class="cls-4" d="M11.74,13.5H41.85a2,2,0,0,1,2,2V110a0,0,0,0,1,0,0H9.74a0,0,0,0,1,0,0V15.5A2,2,0,0,1,11.74,13.5Z"/><g id="Icon"><path id="Mask-11" data-name="Mask" class="cls-1" d="M18.42,33.29h0a4.39,4.39,0,0,1,4.39,4.4h0a4.38,4.38,0,0,1-4.39,4.39h0A4.39,4.39,0,0,1,14,37.69h0A4.4,4.4,0,0,1,18.42,33.29Z"/><g class="cls-5"><path class="cls-3" d="M21.12,42.38a.67.67,0,0,0,.63-.91,3.1,3.1,0,0,0-2.13-1.82l-.05,0a5,5,0,0,0-2.56.06,3.07,3.07,0,0,0-1.92,1.74h0a.67.67,0,0,0,.62.94Z"/><path class="cls-3" d="M19.92,36.35v-.43a1.48,1.48,0,0,0-1.4-1.54h-.21a1.47,1.47,0,0,0-1.39,1.54v.49a1.57,1.57,0,0,0,1.77,1.67A1.71,1.71,0,0,0,19.92,36.35Z"/></g></g><line class="cls-6" x1="25.57" y1="35.69" x2="39.57" y2="35.69"/><line class="cls-7" x1="25.57" y1="39.69" x2="32.57" y2="39.69"/><g id="Icon-2" data-name="Icon"><path id="Mask-12" data-name="Mask" class="cls-1" d="M18.42,47.89h0a4.39,4.39,0,0,1,4.39,4.39h0a4.39,4.39,0,0,1-4.39,4.4h0a4.4,4.4,0,0,1-4.4-4.4h0A4.4,4.4,0,0,1,18.42,47.89Z"/><g class="cls-8"><path class="cls-3" d="M21.12,57a.67.67,0,0,0,.63-.92,3.12,3.12,0,0,0-2.13-1.82h-.05a4.84,4.84,0,0,0-2.56.06A3,3,0,0,0,15.09,56h0a.67.67,0,0,0,.62.94Z"/><path class="cls-3" d="M19.92,51v-.44A1.47,1.47,0,0,0,18.52,49h-.21a1.47,1.47,0,0,0-1.39,1.53V51a1.56,1.56,0,0,0,1.77,1.66A1.7,1.7,0,0,0,19.92,51Z"/></g></g><line class="cls-6" x1="25.57" y1="50.28" x2="39.57" y2="50.28"/><line class="cls-7" x1="25.57" y1="54.28" x2="32.57" y2="54.28"/><g id="Icon-3" data-name="Icon"><path id="Mask-13" data-name="Mask" class="cls-1" d="M18.42,62.48h0a4.39,4.39,0,0,1,4.39,4.4h0a4.39,4.39,0,0,1-4.39,4.4h0a4.4,4.4,0,0,1-4.4-4.4h0A4.4,4.4,0,0,1,18.42,62.48Z"/><g class="cls-9"><path class="cls-3" d="M21.12,71.58a.67.67,0,0,0,.63-.92,3.1,3.1,0,0,0-2.13-1.82h-.05a4.84,4.84,0,0,0-2.56.06,3.05,3.05,0,0,0-1.92,1.73h0a.68.68,0,0,0,.62,1Z"/><path class="cls-3" d="M19.92,65.54v-.43a1.47,1.47,0,0,0-1.4-1.53h-.21a1.46,1.46,0,0,0-1.39,1.53v.5a1.56,1.56,0,0,0,1.77,1.66A1.7,1.7,0,0,0,19.92,65.54Z"/></g></g><line class="cls-6" x1="25.57" y1="64.88" x2="39.57" y2="64.88"/><line class="cls-7" x1="25.57" y1="68.88" x2="32.57" y2="68.88"/><g id="Icon-4" data-name="Icon"><path id="Mask-14" data-name="Mask" class="cls-1" d="M18.42,77.08h0a4.39,4.39,0,0,1,4.39,4.4h0a4.38,4.38,0,0,1-4.39,4.39h0A4.39,4.39,0,0,1,14,81.48h0A4.4,4.4,0,0,1,18.42,77.08Z"/><g class="cls-10"><path class="cls-3" d="M21.12,86.17a.67.67,0,0,0,.63-.91,3.1,3.1,0,0,0-2.13-1.82l-.05,0a5,5,0,0,0-2.56.06,3.07,3.07,0,0,0-1.92,1.74h0a.67.67,0,0,0,.62.94Z"/><path class="cls-3" d="M19.92,80.14V79.7a1.47,1.47,0,0,0-1.4-1.53h-.21a1.47,1.47,0,0,0-1.39,1.53v.5a1.57,1.57,0,0,0,1.77,1.67A1.71,1.71,0,0,0,19.92,80.14Z"/></g></g><line class="cls-6" x1="25.57" y1="79.48" x2="39.57" y2="79.48"/><line class="cls-7" x1="25.57" y1="83.48" x2="32.57" y2="83.48"/><g id="Icon-5" data-name="Icon"><path id="Mask-15" data-name="Mask" class="cls-1" d="M18.42,91.68h0a4.39,4.39,0,0,1,4.39,4.39h0a4.39,4.39,0,0,1-4.39,4.4h0a4.4,4.4,0,0,1-4.4-4.4h0A4.4,4.4,0,0,1,18.42,91.68Z"/><g class="cls-11"><path class="cls-3" d="M21.12,100.77a.67.67,0,0,0,.63-.92A3.12,3.12,0,0,0,19.62,98h-.05a4.84,4.84,0,0,0-2.56.06,3,3,0,0,0-1.92,1.74h0a.67.67,0,0,0,.62.94Z"/><path class="cls-3" d="M19.92,94.74V94.3a1.47,1.47,0,0,0-1.4-1.53h-.21a1.47,1.47,0,0,0-1.39,1.53v.5a1.56,1.56,0,0,0,1.77,1.66A1.7,1.7,0,0,0,19.92,94.74Z"/></g></g><line class="cls-6" x1="25.57" y1="94.07" x2="39.57" y2="94.07"/><line class="cls-7" x1="25.57" y1="98.07" x2="32.57" y2="98.07"/><g id="Icon-6" data-name="Icon"><path id="Mask-16" data-name="Mask" class="cls-1" d="M18.42,18.69h0a4.39,4.39,0,0,1,4.39,4.4h0a4.39,4.39,0,0,1-4.39,4.4h0a4.4,4.4,0,0,1-4.4-4.4h0A4.4,4.4,0,0,1,18.42,18.69Z"/><g class="cls-12"><path class="cls-3" d="M21.12,27.79a.67.67,0,0,0,.63-.92,3.1,3.1,0,0,0-2.13-1.82h-.05A4.84,4.84,0,0,0,17,25.1a3.05,3.05,0,0,0-1.92,1.73h0a.68.68,0,0,0,.62.95Z"/><path class="cls-3" d="M19.92,21.75v-.43a1.47,1.47,0,0,0-1.4-1.53h-.21a1.46,1.46,0,0,0-1.39,1.53v.5a1.56,1.56,0,0,0,1.77,1.66A1.7,1.7,0,0,0,19.92,21.75Z"/></g></g><line class="cls-6" x1="25.57" y1="21.79" x2="39.57" y2="21.79"/><line class="cls-7" x1="25.57" y1="25.79" x2="32.57" y2="25.79"/><path class="cls-13" d="M80.31,44.71A3.7,3.7,0,0,1,84,48.41v2.46a3.7,3.7,0,0,1-3.69,3.7H77.85v3.69l-6.16-3.69H68a3.7,3.7,0,0,1-3.69-3.7V48.41A3.7,3.7,0,0,1,68,44.71Z"/><rect class="cls-14" x="68" y="48.41" width="7.39" height="2.46"/><rect class="cls-14" x="77.85" y="48.41" width="2.46" height="2.46"/><path class="cls-13" d="M68,63.17a3.7,3.7,0,0,0-3.69,3.7v2.46A3.7,3.7,0,0,0,68,73h2.47v3.69L76.62,73h3.69A3.7,3.7,0,0,0,84,69.33V66.87a3.7,3.7,0,0,0-3.69-3.7Z"/><rect class="cls-14" x="72.92" y="66.87" width="7.39" height="2.46"/><rect class="cls-14" x="67.99" y="66.87" width="2.46" height="2.46"/><path class="cls-15" d="M92.26,21.33H70.09A3.69,3.69,0,0,0,66.4,25v7.39a3.69,3.69,0,0,0,3.69,3.7h0V39.8l6.16-3.69h16a3.7,3.7,0,0,0,3.7-3.7V25A3.7,3.7,0,0,0,92.26,21.33Z"/><rect class="cls-16" x="77.49" y="25.02" width="14.78" height="2.46"/><rect class="cls-16" x="77.49" y="29.95" width="3.28" height="2.46"/><rect class="cls-16" x="82.41" y="29.95" width="9.85" height="2.46"/><path class="cls-16" d="M70,25a2.74,2.74,0,0,1,2-.74,3,3,0,0,1,1.92.55,2.1,2.1,0,0,1,.41,2.63,5.28,5.28,0,0,1-.85.91,5.12,5.12,0,0,0-.71.75,1.32,1.32,0,0,0-.23.77H71a2.48,2.48,0,0,1,.14-.85,2.14,2.14,0,0,1,.34-.6c.13-.15.3-.33.51-.53a3.16,3.16,0,0,0,.52-.58,1,1,0,0,0,.17-.59c0-.49-.27-.73-.82-.73S71,26.31,71,27H69.29A2.81,2.81,0,0,1,70,25ZM72.52,31a1,1,0,0,1,.29.75,1,1,0,0,1-1,1,1,1,0,0,1-.73-.3,1,1,0,0,1-.3-.75A1,1,0,0,1,71,31a1.1,1.1,0,0,1,1.49,0Z"/><path class="cls-15" d="M57.78,81.63H79.94a3.69,3.69,0,0,1,3.7,3.7v7.38a3.69,3.69,0,0,1-3.7,3.7h0v3.69l-6.15-3.69h-16a3.69,3.69,0,0,1-3.7-3.7V85.33A3.69,3.69,0,0,1,57.78,81.63Z"/><rect class="cls-16" x="57.77" y="85.33" width="14.78" height="2.46"/><rect class="cls-16" x="69.27" y="90.25" width="3.28" height="2.46"/><rect class="cls-16" x="57.77" y="90.25" width="9.85" height="2.46"/><path class="cls-16" d="M76.09,85.26a2.71,2.71,0,0,1,2-.74,3,3,0,0,1,1.92.55,1.89,1.89,0,0,1,.7,1.56,1.8,1.8,0,0,1-.29,1.07,5.17,5.17,0,0,1-.84.91,5.29,5.29,0,0,0-.72.75,1.32,1.32,0,0,0-.23.77H77.05a2.48,2.48,0,0,1,.14-.85,2.42,2.42,0,0,1,.34-.6c.14-.15.31-.33.52-.53a4.13,4.13,0,0,0,.52-.58,1,1,0,0,0,.17-.58c0-.5-.28-.74-.83-.74s-.91.36-.92,1.07H75.34A2.73,2.73,0,0,1,76.09,85.26Zm2.48,6.07a1,1,0,0,1,.29.75,1,1,0,0,1-.29.75,1,1,0,0,1-.75.3,1,1,0,0,1-.74-.3,1,1,0,0,1-.29-.75,1,1,0,0,1,.28-.75,1,1,0,0,1,.75-.29A1,1,0,0,1,78.57,91.33Z"/><g id="Icon-7" data-name="Icon"><path id="Mask-17" data-name="Mask" class="cls-1" d="M57.08,21.33h0a4.4,4.4,0,0,1,4.4,4.4h0a4.39,4.39,0,0,1-4.4,4.39h0a4.39,4.39,0,0,1-4.4-4.39h0A4.4,4.4,0,0,1,57.08,21.33Z"/><g class="cls-17"><path class="cls-3" d="M59.78,30.42a.68.68,0,0,0,.64-.91,3.13,3.13,0,0,0-2.14-1.82l-.05,0a5,5,0,0,0-2.56.06,3.05,3.05,0,0,0-1.91,1.74h0a.67.67,0,0,0,.62.94Z"/><path class="cls-3" d="M58.58,24.39V24a1.47,1.47,0,0,0-1.39-1.53H57A1.47,1.47,0,0,0,55.58,24v.5a1.57,1.57,0,0,0,1.77,1.67A1.71,1.71,0,0,0,58.58,24.39Z"/></g></g><g id="Icon-8" data-name="Icon"><path id="Mask-18" data-name="Mask" class="cls-1" d="M91.56,45.24h0a4.4,4.4,0,0,1,4.4,4.4h0a4.4,4.4,0,0,1-4.4,4.4h0a4.4,4.4,0,0,1-4.4-4.4h0A4.4,4.4,0,0,1,91.56,45.24Z"/><g class="cls-18"><path class="cls-3" d="M94.26,54.34a.68.68,0,0,0,.64-.92,3.11,3.11,0,0,0-2.14-1.82h-.05a4.84,4.84,0,0,0-2.56.06,3.06,3.06,0,0,0-1.91,1.73h0a.68.68,0,0,0,.62,1Z"/><path class="cls-3" d="M93.06,48.3v-.43a1.46,1.46,0,0,0-1.39-1.53h-.21a1.47,1.47,0,0,0-1.4,1.53v.49A1.56,1.56,0,0,0,91.83,50,1.7,1.7,0,0,0,93.06,48.3Z"/></g></g><g id="Icon-9" data-name="Icon"><path id="Mask-19" data-name="Mask" class="cls-1" d="M91.56,81.63h0A4.4,4.4,0,0,1,96,86h0a4.39,4.39,0,0,1-4.4,4.39h0A4.39,4.39,0,0,1,87.16,86h0A4.4,4.4,0,0,1,91.56,81.63Z"/><g class="cls-19"><path class="cls-3" d="M94.26,90.72a.68.68,0,0,0,.64-.91A3.11,3.11,0,0,0,92.76,88l-.05,0a5,5,0,0,0-2.56.06,3.08,3.08,0,0,0-1.91,1.74h0a.67.67,0,0,0,.62.94Z"/><path class="cls-3" d="M93.06,84.69v-.44a1.47,1.47,0,0,0-1.39-1.53h-.21a1.47,1.47,0,0,0-1.4,1.53v.5a1.57,1.57,0,0,0,1.77,1.67A1.71,1.71,0,0,0,93.06,84.69Z"/></g></g><g id="Icon-10" data-name="Icon"><path id="Mask-20" data-name="Mask" class="cls-1" d="M57.08,63.17h0a4.4,4.4,0,0,1,4.4,4.4h0a4.4,4.4,0,0,1-4.4,4.4h0a4.4,4.4,0,0,1-4.4-4.4h0A4.4,4.4,0,0,1,57.08,63.17Z"/><g class="cls-20"><path class="cls-3" d="M59.78,72.26a.68.68,0,0,0,.64-.91,3.13,3.13,0,0,0-2.14-1.82l-.05,0a5,5,0,0,0-2.56.06,3.08,3.08,0,0,0-1.91,1.74h0a.67.67,0,0,0,.62.94Z"/><path class="cls-3" d="M58.58,66.23V65.8a1.47,1.47,0,0,0-1.39-1.54H57a1.47,1.47,0,0,0-1.39,1.54v.49A1.57,1.57,0,0,0,57.35,68,1.71,1.71,0,0,0,58.58,66.23Z"/></g></g></svg>