<svg id="Layer_1" data-name="Layer 1" xmlns="http://www.w3.org/2000/svg" xmlns:xlink="http://www.w3.org/1999/xlink" viewBox="0 0 110 110"><defs><style>.cls-1{fill:#d2d3d4;}.cls-2{fill:#f1f2f2;}.cls-3{fill:#bcbec0;}.cls-4{fill:#fff;}.cls-10,.cls-11,.cls-5,.cls-6{fill:none;}.cls-10,.cls-5{stroke:#bcbec0;}.cls-10,.cls-11,.cls-5{stroke-linecap:round;stroke-miterlimit:10;}.cls-5{stroke-width:3px;}.cls-7{fill:#97b23c;}.cls-8{clip-path:url(#clip-path);}.cls-9{fill:#a8a9ac;}.cls-10,.cls-11{stroke-width:2px;}.cls-11{stroke:#d2d3d4;}.cls-12{fill:#e2eaab;}.cls-13{fill:#82c1a1;}.cls-14{fill:#f5bf48;}</style><clipPath id="clip-path"><path id="Mask" class="cls-1" d="M40.24,94.08h0a4.39,4.39,0,0,1,4.4,4.39h0a4.4,4.4,0,0,1-4.4,4.4h0a4.4,4.4,0,0,1-4.39-4.4h0A4.39,4.39,0,0,1,40.24,94.08Z"/></clipPath></defs><title>marketing - screen - blueArtboard 44@1x</title><rect id="Background" class="cls-2" width="110" height="110" rx="2.2" ry="2.2"/><g id="Top_bar" data-name="Top bar"><path id="Background-2" data-name="Background" class="cls-1" d="M2.2,0H107.8A2.19,2.19,0,0,1,110,2.2V10H0V2.2A2.19,2.19,0,0,1,2.2,0Z"/><circle id="Oval" class="cls-3" cx="15.94" cy="5.11" r="1.65"/><circle id="Oval-2" data-name="Oval" class="cls-3" cx="10.44" cy="5.11" r="1.65"/><circle id="Oval-3" data-name="Oval" class="cls-3" cx="4.94" cy="5.11" r="1.65"/></g><rect class="cls-4" x="20" y="19" width="70" height="91"/><line class="cls-5" x1="32.5" y1="28.5" x2="77.5" y2="28.5"/><line class="cls-5" x1="32.5" y1="35.5" x2="77.5" y2="35.5"/><line class="cls-5" x1="43.5" y1="43.5" x2="66.5" y2="43.5"/><rect class="cls-6" x="20" y="19" width="70" height="91"/><rect class="cls-7" x="42.24" y="81.83" width="25.52" height="7.41" rx="3.54" ry="3.54"/><g id="Icon"><path id="Mask-2" data-name="Mask" class="cls-1" d="M40.24,94.08h0a4.39,4.39,0,0,1,4.4,4.39h0a4.4,4.4,0,0,1-4.4,4.4h0a4.4,4.4,0,0,1-4.39-4.4h0A4.39,4.39,0,0,1,40.24,94.08Z"/><g class="cls-8"><path class="cls-9" d="M43,103.17a.68.68,0,0,0,.63-.92,3.12,3.12,0,0,0-2.13-1.82h-.06a4.84,4.84,0,0,0-2.56.06,3.06,3.06,0,0,0-1.91,1.73h0a.67.67,0,0,0,.61,1Z"/><path class="cls-9" d="M41.75,97.13V96.7a1.47,1.47,0,0,0-1.4-1.53h-.21a1.46,1.46,0,0,0-1.39,1.53v.5a1.56,1.56,0,0,0,1.76,1.66A1.7,1.7,0,0,0,41.75,97.13Z"/></g></g><line class="cls-10" x1="47.39" y1="97.17" x2="74.15" y2="97.17"/><line class="cls-11" x1="47.39" y1="101.17" x2="60.77" y2="101.17"/><rect class="cls-12" x="38.22" y="55.3" width="17.53" height="17.53"/><polygon class="cls-13" points="64.72 50.83 71.07 61.83 77.42 72.83 64.72 72.83 52.02 72.83 58.37 61.83 64.72 50.83"/><circle class="cls-14" cx="38.22" cy="65.83" r="7"/></svg>