<svg id="Layer_1" data-name="Layer 1" xmlns="http://www.w3.org/2000/svg" xmlns:xlink="http://www.w3.org/1999/xlink" viewBox="0 0 110 110"><defs><style>.cls-1{fill:#d2d3d4;}.cls-2{fill:#f1f2f2;}.cls-3{fill:#fff;}.cls-4{fill:#bcbec0;}.cls-10,.cls-5,.cls-6,.cls-9{fill:none;stroke-linecap:round;stroke-miterlimit:10;}.cls-5{stroke:#44c3d3;}.cls-5,.cls-6{stroke-width:3px;}.cls-6,.cls-9{stroke:#bcbec0;}.cls-7{clip-path:url(#clip-path);}.cls-8{fill:#a8a9ac;}.cls-10,.cls-9{stroke-width:2px;}.cls-10{stroke:#d2d3d4;}</style><clipPath id="clip-path"><path id="Mask" class="cls-1" d="M31.4,72.63h0A4.4,4.4,0,0,1,35.79,77h0a4.39,4.39,0,0,1-4.39,4.39h0A4.39,4.39,0,0,1,27,77h0A4.4,4.4,0,0,1,31.4,72.63Z"/></clipPath></defs><title>marketing - screen - blueArtboard 58@1x</title><rect id="Background" class="cls-2" width="110" height="110" rx="2.2" ry="2.2"/><rect class="cls-3" x="20" y="19" width="70" height="79"/><g id="Top_bar" data-name="Top bar"><path id="Background-2" data-name="Background" class="cls-1" d="M2.2,0H107.8A2.19,2.19,0,0,1,110,2.2V10H0V2.2A2.19,2.19,0,0,1,2.2,0Z"/><circle id="Oval" class="cls-4" cx="16.21" cy="4.86" r="1.65"/><circle id="Oval-2" data-name="Oval" class="cls-4" cx="10.71" cy="4.86" r="1.65"/><circle id="Oval-3" data-name="Oval" class="cls-4" cx="5.21" cy="4.86" r="1.65"/></g><line class="cls-5" x1="64" y1="33" x2="83" y2="33"/><line class="cls-6" x1="27" y1="33" x2="58" y2="33"/><line class="cls-6" x1="27" y1="41" x2="83" y2="41"/><line class="cls-6" x1="27" y1="48" x2="83" y2="48"/><line class="cls-6" x1="27" y1="55" x2="83" y2="55"/><line class="cls-6" x1="27" y1="62" x2="58" y2="62"/><g id="Icon"><path id="Mask-2" data-name="Mask" class="cls-1" d="M31.4,72.63h0A4.4,4.4,0,0,1,35.79,77h0a4.39,4.39,0,0,1-4.39,4.39h0A4.39,4.39,0,0,1,27,77h0A4.4,4.4,0,0,1,31.4,72.63Z"/><g class="cls-7"><path class="cls-8" d="M34.1,81.72a.67.67,0,0,0,.63-.91A3.1,3.1,0,0,0,32.6,79l-.05,0A5,5,0,0,0,30,79a3.07,3.07,0,0,0-1.92,1.74h0a.67.67,0,0,0,.62.94Z"/><path class="cls-8" d="M32.9,75.69v-.44a1.47,1.47,0,0,0-1.4-1.53h-.21a1.47,1.47,0,0,0-1.39,1.53v.5a1.57,1.57,0,0,0,1.77,1.67A1.71,1.71,0,0,0,32.9,75.69Z"/></g></g><line class="cls-9" x1="38.55" y1="75.72" x2="65.31" y2="75.72"/><line class="cls-9" x1="38.55" y1="79.72" x2="65.31" y2="79.72"/><line class="cls-9" x1="38.55" y1="83.72" x2="65.31" y2="83.72"/><line class="cls-10" x1="38.55" y1="87.72" x2="51.93" y2="87.72"/></svg>