<svg id="Layer_1" data-name="Layer 1" xmlns="http://www.w3.org/2000/svg" xmlns:xlink="http://www.w3.org/1999/xlink" viewBox="0 0 110 110"><defs><style>.cls-1{fill:#f1f2f2;}.cls-2{clip-path:url(#clip-path);}.cls-3{fill:#daf0f4;}.cls-4{fill:#5c414b;}.cls-5{fill:#503441;}.cls-6{fill:#e6af78;}.cls-7{fill:#ffdc64;}.cls-8{fill:#fff082;}.cls-9{fill:#d29b6e;}.cls-10{fill:#f0c087;}.cls-11{fill:#c39772;}.cls-12{fill:#dbd9dc;}.cls-13{fill:#fff;}.cls-14{fill:#b4e1eb;}.cls-15{fill:#424a60;}.cls-16{fill:#e1f3f6;}.cls-17,.cls-19,.cls-23,.cls-24,.cls-25{fill:none;}.cls-17,.cls-19{stroke:#bcbec0;stroke-linejoin:round;}.cls-17,.cls-19,.cls-23,.cls-25{stroke-linecap:round;}.cls-17{stroke-width:2px;}.cls-18{fill:#b9dfe5;}.cls-20{fill:#44c3d3;}.cls-21{fill:#6d6e71;}.cls-22{fill:#424142;}.cls-23{stroke:#61c7db;}.cls-23,.cls-25{stroke-miterlimit:10;stroke-width:3px;}.cls-25{stroke:#8dd3e3;}.cls-26{fill:#32c0d1;}.cls-27{fill:#d2d3d4;}.cls-28{fill:#bcbec0;}</style><clipPath id="clip-path"><rect id="Background" class="cls-1" width="110" height="110" rx="2.2" ry="2.2"/></clipPath></defs><title>marketing - screen - blueArtboard 12@1x</title><rect id="Background-2" data-name="Background" class="cls-1" width="110" height="110" rx="2.2" ry="2.2"/><g class="cls-2"><rect class="cls-3" y="15.58" width="110.04" height="46.33"/><path class="cls-4" d="M35.26,33.53V31.28a8.17,8.17,0,0,0-7.64-8.23,8,8,0,0,0-8.41,8v2.47a22.92,22.92,0,0,1-1,7.54.6.6,0,0,0,.29.74A27.82,27.82,0,0,0,26,44.63h2.47A27.78,27.78,0,0,0,36,41.81a.61.61,0,0,0,.29-.74A22.53,22.53,0,0,1,35.26,33.53Z"/><path class="cls-5" d="M19.21,31.06v2.47a22.92,22.92,0,0,1-1,7.54.61.61,0,0,0,.29.75,29.84,29.84,0,0,0,6.92,2.69V32.29l-1.24-1.23a7.64,7.64,0,0,1-2.06-6.16A8,8,0,0,0,19.21,31.06Z"/><rect class="cls-6" x="24.15" y="40.32" width="6.17" height="8.02"/><path class="cls-7" d="M36.15,46.1l-3.29-1.47-4.39,1.86-.72,1.08a.63.63,0,0,1-1,0L26,46.49l-4.32-1.86L18.39,46.1a3.69,3.69,0,0,0-2.19,3.48l.32,11.72H38l.32-11.72A3.69,3.69,0,0,0,36.15,46.1Z"/><path class="cls-8" d="M20.32,50.81l-3.1-3.88a3.72,3.72,0,0,0-1,2.65l.32,11.72h3.8Z"/><path class="cls-8" d="M34.22,50.81l3.1-3.88a3.72,3.72,0,0,1,1,2.65L38,61.3h-3.8V50.81Z"/><path class="cls-9" d="M24.15,42.11a7.44,7.44,0,0,0,6.17,0v-1.8H24.15Z"/><path class="cls-10" d="M33.08,37.32a5.4,5.4,0,0,0,.26-1.54c.09-3.55-4.88-2.72-9-5.41a.61.61,0,0,0-.85.15,12.85,12.85,0,0,1-1.81,2.06,1.25,1.25,0,0,1-.84.33h-.44l-.21,0a1.31,1.31,0,0,0-1,1.3v.45a1.29,1.29,0,0,0,1,1.28,1.18,1.18,0,0,0,.37,0,.6.6,0,0,1,.63.5,6.16,6.16,0,0,0,11.76,1.24Z"/><path class="cls-6" d="M23.53,35.38V30.5a13.14,13.14,0,0,1-1.82,2.08,1.25,1.25,0,0,1-.84.33h-.44l-.21,0a1.31,1.31,0,0,0-1,1.3v.45a1.29,1.29,0,0,0,1,1.28,1.18,1.18,0,0,0,.37,0,.6.6,0,0,1,.63.5,6.13,6.13,0,0,0,7.29,4.93A6.17,6.17,0,0,1,23.53,35.38Z"/><path class="cls-11" d="M40.81,61.3H13.66a.62.62,0,0,1,0-1.24H40.81a.62.62,0,1,1,0,1.24Z"/><path class="cls-8" d="M22.87,47l-1.19-2.38L23,43.49a.62.62,0,0,1,.91.11L26,46.49l-1.28,1A1.24,1.24,0,0,1,22.87,47Z"/><path class="cls-8" d="M31.6,47l1.19-2.38-1.34-1.14a.61.61,0,0,0-.9.11l-2.08,2.89,1.29,1A1.23,1.23,0,0,0,31.6,47Z"/><path class="cls-12" d="M34.1,60.06H20.38a1.22,1.22,0,0,1-1.23-1.16l-.48-8a1.24,1.24,0,0,1,1.24-1.31H34.57a1.24,1.24,0,0,1,1.23,1.31l-.47,8A1.24,1.24,0,0,1,34.1,60.06Z"/><circle class="cls-13" cx="27.24" cy="55.13" r="1.54"/><rect class="cls-14" y="61.91" width="110.04" height="48.09"/><path class="cls-15" d="M61.11,72.45H93a1.34,1.34,0,0,1,1.33,1.33V97H59.79V73.78A1.33,1.33,0,0,1,61.11,72.45Z"/><path class="cls-16" d="M60.94,73.67h32.2V96.38H60.94Z"/><line class="cls-17" x1="65.5" y1="79.16" x2="82.52" y2="79.16"/><line class="cls-17" x1="65.5" y1="81.83" x2="74.76" y2="81.83"/><path class="cls-18" d="M67.22,92.09H65.86a.36.36,0,0,1-.36-.36V90.37a.36.36,0,0,1,.36-.36h1.36a.36.36,0,0,1,.36.36v1.36A.36.36,0,0,1,67.22,92.09Z"/><line class="cls-19" x1="68.54" y1="90.37" x2="73.1" y2="90.37"/><line class="cls-19" x1="68.54" y1="91.73" x2="71.02" y2="91.73"/><path class="cls-18" d="M76.74,92.09H75.38a.36.36,0,0,1-.36-.36V90.37a.36.36,0,0,1,.36-.36h1.36a.36.36,0,0,1,.36.36v1.36A.36.36,0,0,1,76.74,92.09Z"/><line class="cls-19" x1="78.06" y1="90.37" x2="82.62" y2="90.37"/><line class="cls-19" x1="78.06" y1="91.73" x2="80.54" y2="91.73"/><path class="cls-20" d="M67.22,87.75H65.86a.36.36,0,0,1-.36-.36V86a.36.36,0,0,1,.36-.36h1.36a.36.36,0,0,1,.36.36v1.37A.36.36,0,0,1,67.22,87.75Z"/><line class="cls-19" x1="68.54" y1="86.02" x2="73.1" y2="86.02"/><line class="cls-19" x1="68.54" y1="87.38" x2="71.02" y2="87.38"/><path class="cls-18" d="M76.74,87.75H75.38a.36.36,0,0,1-.36-.36V86a.36.36,0,0,1,.36-.36h1.36a.36.36,0,0,1,.36.36v1.37A.36.36,0,0,1,76.74,87.75Z"/><line class="cls-19" x1="78.06" y1="86.02" x2="82.62" y2="86.02"/><line class="cls-19" x1="78.06" y1="87.38" x2="80.54" y2="87.38"/><rect class="cls-20" x="85.64" y="79.56" width="5.55" height="12.54" rx="1.29" ry="1.29"/><path class="cls-21" d="M98.27,96.38v.33c0,.55-.89,1-2,1H57.79c-1.09,0-2-.45-2-1v-.33Z"/><path class="cls-22" d="M81,96.38s-.43.66-1,.66h-6c-.56,0-1-.66-1-.66Z"/><line class="cls-23" x1="13.04" y1="78.08" x2="44.05" y2="78.08"/><line class="cls-23" x1="13.04" y1="85.08" x2="44.05" y2="85.08"/><line class="cls-23" x1="13.04" y1="92.08" x2="28.54" y2="92.08"/><rect id="Background-3" data-name="Background" class="cls-24" width="110" height="110" rx="2.2" ry="2.2"/><line class="cls-25" x1="60.34" y1="26.11" x2="95.3" y2="26.11"/><line class="cls-25" x1="60.34" y1="32.25" x2="95.3" y2="32.25"/><line class="cls-25" x1="60.34" y1="38.39" x2="81.62" y2="38.39"/><rect class="cls-26" x="58.78" y="45" width="21.97" height="6.38" rx="3.05" ry="3.05"/></g><g id="Top_bar" data-name="Top bar"><path id="Background-4" data-name="Background" class="cls-27" d="M2.2,0H107.8A2.19,2.19,0,0,1,110,2.2V9H0V2.2A2.19,2.19,0,0,1,2.2,0Z"/><circle id="Oval" class="cls-28" cx="16.24" cy="5.39" r="1.65"/><circle id="Oval-2" data-name="Oval" class="cls-28" cx="10.74" cy="5.39" r="1.65"/><circle id="Oval-3" data-name="Oval" class="cls-28" cx="5.24" cy="5.39" r="1.65"/></g></svg>