<svg id="Layer_1" data-name="Layer 1" xmlns="http://www.w3.org/2000/svg" xmlns:xlink="http://www.w3.org/1999/xlink" viewBox="0 0 110 110"><defs><style>.cls-1{fill:#b4e1eb;}.cls-2{fill:#f1f2f2;}.cls-3{fill:#d2d3d4;}.cls-4{fill:#a8a9ac;}.cls-5{clip-path:url(#clip-path);}.cls-6{fill:#8dd3e3;}.cls-7{fill:none;stroke:#bcbec0;stroke-linecap:round;stroke-linejoin:round;stroke-width:3px;}.cls-8{font-size:8px;font-family:HKNova-Heavy, HK Nova;}.cls-10,.cls-8{fill:#44c3d3;}.cls-9{fill:#fff;}</style><clipPath id="clip-path"><rect class="cls-1" x="10.3" y="17.65" width="39.69" height="26.01" rx="2.05" ry="2.05"/></clipPath></defs><title>marketing - screen - blueArtboard 21@1x</title><rect id="Background" class="cls-2" width="110" height="110" rx="2.2" ry="2.2"/><g id="Top_bar" data-name="Top bar"><path id="Background-2" data-name="Background" class="cls-3" d="M2.2,0H107.8A2.19,2.19,0,0,1,110,2.2V7.78C110,9,109.82,10,110,10H.55C.18,10.19,0,9,0,7.78V2.2A2.19,2.19,0,0,1,2.2,0Z"/><circle id="Oval" class="cls-4" cx="16.24" cy="4.36" r="1.65"/><circle id="Oval-2" data-name="Oval" class="cls-4" cx="10.74" cy="4.36" r="1.65"/><circle id="Oval-3" data-name="Oval" class="cls-4" cx="5.24" cy="4.36" r="1.65"/></g><rect class="cls-1" x="10.3" y="17.65" width="39.69" height="26.01" rx="2.05" ry="2.05"/><g class="cls-5"><polygon class="cls-6" points="35.37 27.1 44.45 35.38 53.53 43.66 35.37 43.66 17.21 43.66 26.29 35.38 35.37 27.1"/><polygon class="cls-6" points="18.32 31.38 25.05 37.52 31.79 43.66 18.32 43.66 4.86 43.66 11.59 37.52 18.32 31.38"/><circle class="cls-6" cx="25.57" cy="29.05" r="1.95"/></g><line class="cls-7" x1="10.3" y1="64.99" x2="50" y2="64.99"/><line class="cls-7" x1="10.3" y1="71.99" x2="50" y2="71.99"/><line class="cls-7" x1="10.3" y1="78.99" x2="50" y2="78.99"/><line class="cls-7" x1="10.3" y1="85.99" x2="32.24" y2="85.99"/><text class="cls-8" transform="translate(10.3 57.11)">Brochure</text><rect class="cls-9" x="60.7" y="21.5" width="39" height="8" rx="2.84" ry="2.84"/><rect class="cls-9" x="60.7" y="46.27" width="39" height="8" rx="2.84" ry="2.84"/><rect class="cls-9" x="60.7" y="33.88" width="39" height="8" rx="2.84" ry="2.84"/><rect class="cls-9" x="60.7" y="58.66" width="39" height="8" rx="2.84" ry="2.84"/><rect class="cls-9" x="60.7" y="71.04" width="39" height="8" rx="2.84" ry="2.84"/><rect class="cls-10" x="60.7" y="84.29" width="39" height="11" rx="3.67" ry="3.67"/></svg>