<svg id="Layer_1" data-name="Layer 1" xmlns="http://www.w3.org/2000/svg" xmlns:xlink="http://www.w3.org/1999/xlink" viewBox="0 0 631.86 731.17"><defs><style>.cls-1,.cls-3{fill:none;}.cls-2{fill:#a9dcd8;}.cls-3{stroke:#2aaae2;}.cls-10,.cls-3{stroke-miterlimit:10;}.cls-4{fill:#231f20;}.cls-5{fill:#e80b8a;}.cls-6{fill:#ab3747;}.cls-7{fill:#e54960;}.cls-8{fill:#c74154;}.cls-9{opacity:0.42;}.cls-10{stroke:#fff;stroke-width:2px;fill:url(#New_Pattern_Swatch_6);}.cls-11{fill:#fff;}.cls-12{fill:#3b2416;}</style><pattern id="New_Pattern_Swatch_6" data-name="New Pattern Swatch 6" width="36.74" height="37.48" patternTransform="translate(23.11 -63.8) rotate(14.42) scale(1.05)" patternUnits="userSpaceOnUse" viewBox="0 0 36.74 37.48"><rect class="cls-1" width="36.74" height="37.48"/><rect class="cls-2" width="36.74" height="37.48"/></pattern></defs><title>vincent-body-part-parachute@1x</title><circle class="cls-3" cx="315.93" cy="308.88" r="246.34"/><polygon class="cls-4" points="319.12 307.63 319.12 307.62 319.11 307.62 319.12 307.63"/><polygon class="cls-4" points="317.77 305.99 317.77 305.99 317.77 305.99 317.77 305.99"/><path class="cls-5" d="M318.17,307a1.79,1.79,0,0,1,.94.59h0a1.77,1.77,0,0,0-.4-1,1.84,1.84,0,0,0-.94-.6h0A1.81,1.81,0,0,1,318.17,307Z"/><polygon class="cls-4" points="319.12 307.63 319.12 307.63 319.12 307.63 319.12 307.63"/><polygon class="cls-4" points="319.25 309.74 319.25 309.74 319.25 309.74 319.25 309.74"/><polygon class="cls-4" points="317.89 308.11 317.89 308.11 317.89 308.11 319.12 307.63 319.12 307.63 319.11 307.62 317.89 308.11"/><path class="cls-4" d="M317.89,308.11l1.22-.49a1.79,1.79,0,0,0-.94-.59,2.15,2.15,0,0,1,0,.56A1.9,1.9,0,0,1,317.89,308.11Z"/><path class="cls-5" d="M318.83,308.7a1.84,1.84,0,0,1,.42,1h0a1.79,1.79,0,0,0-.13-2.11h0A1.71,1.71,0,0,1,318.83,308.7Z"/><path class="cls-5" d="M318.83,308.7a1.71,1.71,0,0,0,.28-1.07l-1.22.48a1.86,1.86,0,0,1,.53.22A1.62,1.62,0,0,1,318.83,308.7Z"/><polygon class="cls-4" points="318.11 311.52 318.11 311.52 318.11 311.52 318.11 311.52"/><polygon class="cls-4" points="319.25 309.74 319.25 309.74 319.25 309.74 319.25 309.74"/><polygon class="cls-4" points="317.97 309.41 317.97 309.41 317.97 309.41 319.25 309.74 319.25 309.74 319.25 309.74 317.97 309.41"/><polygon class="cls-4" points="317.97 309.41 317.97 309.41 317.97 309.41 317.97 309.41"/><polygon class="cls-4" points="317.89 308.11 317.89 308.11 317.89 308.11 317.89 308.11"/><path class="cls-4" d="M318,309.41l1.28.33a1.84,1.84,0,0,0-.42-1,1.61,1.61,0,0,1-.36.42A1.68,1.68,0,0,1,318,309.41Z"/><path class="cls-4" d="M317,308.81a1.82,1.82,0,0,1,.94.6h0a1.68,1.68,0,0,0,.5-.29.4.4,0,0,0-.05-.79,1.86,1.86,0,0,0-.53-.22h0A1.78,1.78,0,0,1,317,308.81Z"/><path class="cls-5" d="M318.38,310.44a1.77,1.77,0,0,1-.27,1.08h0a1.73,1.73,0,0,0,.86-.7,1.79,1.79,0,0,0,.28-1.08h0A1.88,1.88,0,0,1,318.38,310.44Z"/><path class="cls-5" d="M318.27,309.9a1.73,1.73,0,0,1,.11.54,1.88,1.88,0,0,0,.87-.7l-1.28-.33A1.61,1.61,0,0,1,318.27,309.9Z"/><polygon class="cls-4" points="316.14 312.3 316.15 312.3 316.15 312.3 316.14 312.3"/><polygon class="cls-4" points="318.11 311.52 318.11 311.52 318.11 311.52 318.11 311.52"/><polygon class="cls-4" points="317.27 310.51 317.27 310.51 317.27 310.51 318.11 311.52 318.11 311.52 318.11 311.52 317.27 310.51"/><polygon class="cls-4" points="317.27 310.51 317.27 310.51 317.27 310.5 317.27 310.51"/><polygon class="cls-4" points="317.97 309.41 317.97 309.41 317.97 309.41 317.97 309.41"/><polygon class="cls-4" points="315.93 308.88 317.97 309.41 317.97 309.41 317.97 309.41 315.93 308.88"/><path class="cls-4" d="M317,308.81a1.72,1.72,0,0,1-1.1.07l2,.53A1.82,1.82,0,0,0,317,308.81Z"/><path class="cls-4" d="M317.27,310.51l.84,1a1.77,1.77,0,0,0,.27-1.08,1.59,1.59,0,0,1-.54.13A2.17,2.17,0,0,1,317.27,310.51Z"/><path class="cls-4" d="M316.86,309.47a1.77,1.77,0,0,1,.41,1h0a2.17,2.17,0,0,0,.57.06,1.59,1.59,0,0,0,.54-.13,1.73,1.73,0,0,0-.11-.54,1.61,1.61,0,0,0-.3-.49h0A1.76,1.76,0,0,1,316.86,309.47Z"/><path class="cls-4" d="M318,309.41l-2-.53a1.78,1.78,0,0,1,.93.59A1.76,1.76,0,0,0,318,309.41Z"/><path class="cls-5" d="M317.26,312.24a1.78,1.78,0,0,0,.85-.72h0a1.78,1.78,0,0,0-2,.78h0A1.84,1.84,0,0,0,317.26,312.24Z"/><path class="cls-5" d="M317.23,311.08a2,2,0,0,1-.23.51,1.83,1.83,0,0,0,1.11-.07l-.84-1A1.59,1.59,0,0,1,317.23,311.08Z"/><polygon class="cls-4" points="314.1 311.77 314.1 311.77 314.1 311.77 314.1 311.77"/><polygon class="cls-4" points="316.14 312.3 316.14 312.3 316.14 312.3 316.14 312.3"/><polygon class="cls-4" points="316.06 310.99 316.06 310.98 316.06 310.99 316.14 312.3 316.14 312.3 316.15 312.3 316.06 310.99"/><polygon class="cls-4" points="317.27 310.51 317.27 310.51 317.27 310.51 317.27 310.51"/><polygon class="cls-4" points="316.06 310.98 316.06 310.99 316.06 310.98 316.06 310.98"/><polygon class="cls-4" points="315.93 308.88 317.27 310.51 317.27 310.51 317.27 310.5 315.93 308.88"/><path class="cls-4" d="M316.86,309.47a1.73,1.73,0,0,1-.93-.59l1.34,1.63A1.77,1.77,0,0,0,316.86,309.47Z"/><path class="cls-4" d="M316.86,309.47a1.78,1.78,0,0,0-.93-.59A1.73,1.73,0,0,0,316.86,309.47Z"/><path class="cls-4" d="M316.06,311l.09,1.32a1.84,1.84,0,0,0,.85-.71,1.92,1.92,0,0,1-.51-.22A1.79,1.79,0,0,1,316.06,311Z"/><path class="cls-4" d="M317.27,310.51h0a.68.68,0,1,0-1.21.47h0a1.79,1.79,0,0,0,.43.39,1.92,1.92,0,0,0,.51.22,2,2,0,0,0,.23-.51A1.59,1.59,0,0,0,317.27,310.51Z"/><path class="cls-4" d="M316.34,309.91a1.78,1.78,0,0,0,.93.6l-1.34-1.63A1.85,1.85,0,0,1,316.34,309.91Z"/><path class="cls-5" d="M315.21,311.7a1.77,1.77,0,0,1-1.11.07h0a1.68,1.68,0,0,0,.93.6,1.74,1.74,0,0,0,1.11-.07h0A1.8,1.8,0,0,1,315.21,311.7Z"/><path class="cls-5" d="M315.21,311.7a1.8,1.8,0,0,0,.93.6l-.08-1.32a1.65,1.65,0,0,1-.85.72Z"/><polygon class="cls-4" points="312.75 310.14 312.75 310.14 312.75 310.14 312.75 310.14"/><polygon class="cls-4" points="314.1 311.77 314.1 311.77 314.1 311.77 314.1 311.77"/><polygon class="cls-4" points="314.8 310.66 314.8 310.66 314.8 310.66 314.1 311.77 314.1 311.77 314.1 311.77 314.8 310.66"/><polygon class="cls-4" points="314.8 310.66 314.8 310.66 314.8 310.66 314.8 310.66"/><polygon class="cls-4" points="316.06 310.99 316.06 310.98 316.06 310.98 316.06 310.99"/><polygon class="cls-4" points="315.93 308.88 316.06 310.98 316.06 310.98 316.06 310.98 315.93 308.88"/><path class="cls-4" d="M315.93,308.88l.13,2.1a1.78,1.78,0,0,0,.28-1.07A1.85,1.85,0,0,1,315.93,308.88Z"/><path class="cls-4" d="M315.93,308.88a1.85,1.85,0,0,0,.41,1A1.85,1.85,0,0,0,315.93,308.88Z"/><path class="cls-4" d="M314.92,311.22a1.81,1.81,0,0,1-.12-.56l-.7,1.11a1.77,1.77,0,0,0,1.11-.07A1.66,1.66,0,0,1,314.92,311.22Z"/><path class="cls-4" d="M315.66,310a1.77,1.77,0,0,1-.86.71h0a1.81,1.81,0,0,0,.12.56,1.66,1.66,0,0,0,.29.48,1.65,1.65,0,0,0,.85-.72h0A1.76,1.76,0,0,1,315.66,310Z"/><path class="cls-4" d="M315.66,310a1.76,1.76,0,0,0,.4,1l-.13-2.1A1.79,1.79,0,0,1,315.66,310Z"/><path class="cls-5" d="M313.69,310.73a1.77,1.77,0,0,1-.94-.59h0a1.75,1.75,0,0,0,1.35,1.63h0A1.77,1.77,0,0,1,313.69,310.73Z"/><path class="cls-5" d="M313.69,310.73a1.77,1.77,0,0,0,.41,1l.7-1.11a1.7,1.7,0,0,1-.55.13A1.49,1.49,0,0,1,313.69,310.73Z"/><polygon class="cls-4" points="312.75 310.14 312.75 310.14 312.75 310.14 312.75 310.14"/><polygon class="cls-4" points="312.62 308.03 312.62 308.03 312.62 308.03 312.62 308.03"/><polygon class="cls-4" points="313.97 309.66 313.97 309.66 313.97 309.66 312.75 310.14 312.75 310.14 312.75 310.14 313.97 309.66"/><polygon class="cls-4" points="313.97 309.66 313.97 309.66 313.98 309.66 313.97 309.66"/><polygon class="cls-4" points="314.8 310.66 314.8 310.66 314.8 310.66 314.8 310.66"/><polygon class="cls-4" points="315.93 308.88 314.8 310.66 314.8 310.66 314.8 310.66 315.93 308.88"/><path class="cls-4" d="M315.66,310a1.8,1.8,0,0,1,.27-1.07l-1.13,1.78A1.77,1.77,0,0,0,315.66,310Z"/><path class="cls-4" d="M315.66,310a1.79,1.79,0,0,0,.27-1.07A1.8,1.8,0,0,0,315.66,310Z"/><path class="cls-4" d="M314,309.66l-1.22.48a1.77,1.77,0,0,0,.94.59,1.74,1.74,0,0,1,.05-.55A1.87,1.87,0,0,1,314,309.66Z"/><path class="cls-4" d="M315.08,309.58a1.75,1.75,0,0,1-1.11.08h0a1.87,1.87,0,0,0-.23.52,1.74,1.74,0,0,0-.05.55,1.49,1.49,0,0,0,.56.06,1.7,1.7,0,0,0,.55-.13h0A1.86,1.86,0,0,1,315.08,309.58Z"/><path class="cls-4" d="M315.08,309.58a1.86,1.86,0,0,0-.28,1.08l1.13-1.78A1.75,1.75,0,0,1,315.08,309.58Z"/><path class="cls-5" d="M313,309.06a1.77,1.77,0,0,1-.41-1h0a1.81,1.81,0,0,0-.29,1.08,1.79,1.79,0,0,0,.42,1h0A1.83,1.83,0,0,1,313,309.06Z"/><path class="cls-5" d="M313,309.06a1.83,1.83,0,0,0-.28,1.08l1.22-.48a2.2,2.2,0,0,1-.53-.22A1.64,1.64,0,0,1,313,309.06Z"/><polygon class="cls-4" points="313.75 306.25 313.75 306.25 313.75 306.25 313.75 306.25"/><polygon class="cls-4" points="312.62 308.03 312.62 308.03 312.62 308.03 312.62 308.03"/><polygon class="cls-4" points="313.89 308.36 313.89 308.36 313.89 308.36 312.62 308.03 312.62 308.03 312.62 308.03 313.89 308.36"/><polygon class="cls-4" points="313.97 309.66 313.97 309.66 313.98 309.66 313.97 309.66"/><polygon class="cls-4" points="313.89 308.36 313.89 308.36 313.89 308.36 313.89 308.36"/><polygon class="cls-4" points="315.93 308.88 313.98 309.66 313.97 309.66 313.98 309.66 315.93 308.88"/><path class="cls-4" d="M315.08,309.58a1.9,1.9,0,0,1,.85-.7l-2,.78A1.75,1.75,0,0,0,315.08,309.58Z"/><path class="cls-4" d="M315.08,309.58a1.75,1.75,0,0,0,.85-.7A1.9,1.9,0,0,0,315.08,309.58Z"/><path class="cls-4" d="M313.89,308.36l-1.27-.33a1.77,1.77,0,0,0,.41,1,2.36,2.36,0,0,1,.36-.42A2.26,2.26,0,0,1,313.89,308.36Z"/><path class="cls-4" d="M314.83,309a1.84,1.84,0,0,1-.94-.59h0a2.26,2.26,0,0,0-.5.28,2.36,2.36,0,0,0-.36.42,1.64,1.64,0,0,0,.41.38,2.2,2.2,0,0,0,.53.22h0A1.8,1.8,0,0,1,314.83,309Z"/><path class="cls-4" d="M314.83,309a1.8,1.8,0,0,0-.86.71l2-.78A1.74,1.74,0,0,1,314.83,309Z"/><path class="cls-6" d="M559.12,371.48h0L319.25,309.74a1.79,1.79,0,0,1-.28,1.08,1.73,1.73,0,0,1-.86.7L476,502.41a77.56,77.56,0,0,0,83.17-130.93Z"/><path class="cls-6" d="M313.75,306.25,155.92,115.36A77.56,77.56,0,1,0,72.75,246.29L312.62,308a1.76,1.76,0,0,1,1.13-1.78Z"/><path class="cls-5" d="M313.48,307.33a1.75,1.75,0,0,1,.27-1.08h0a1.76,1.76,0,0,0-1.13,1.78h0A1.75,1.75,0,0,1,313.48,307.33Z"/><path class="cls-5" d="M313.59,307.87a1.73,1.73,0,0,1-.11-.54,1.75,1.75,0,0,0-.86.7l1.27.33A2.22,2.22,0,0,1,313.59,307.87Z"/><polygon class="cls-4" points="313.75 306.24 313.75 306.25 313.75 306.25 313.75 306.24"/><polygon class="cls-4" points="315.72 305.47 315.72 305.47 315.72 305.47 315.72 305.47"/><polygon class="cls-4" points="314.59 307.26 314.59 307.26 314.59 307.26 313.75 306.25 313.75 306.25 313.75 306.25 314.59 307.26"/><polygon class="cls-4" points="314.59 307.26 314.59 307.26 314.59 307.26 314.59 307.26"/><polygon class="cls-4" points="313.89 308.36 313.89 308.36 313.89 308.36 313.89 308.36"/><polygon class="cls-4" points="315.93 308.88 313.89 308.36 313.89 308.36 313.89 308.36 315.93 308.88"/><path class="cls-4" d="M314.83,309a1.86,1.86,0,0,1,1.1-.07l-2-.52A1.84,1.84,0,0,0,314.83,309Z"/><path class="cls-4" d="M315.93,308.88a1.86,1.86,0,0,0-1.1.07A1.74,1.74,0,0,0,315.93,308.88Z"/><path class="cls-4" d="M314.59,307.26l-.84-1a1.75,1.75,0,0,0-.27,1.08,1.64,1.64,0,0,1,.54-.13A1.54,1.54,0,0,1,314.59,307.26Z"/><path class="cls-4" d="M315,308.29a1.84,1.84,0,0,1-.41-1h0a1.54,1.54,0,0,0-.57-.06,1.64,1.64,0,0,0-.54.13,1.73,1.73,0,0,0,.11.54,2.22,2.22,0,0,0,.3.49h0A1.84,1.84,0,0,1,315,308.29Z"/><path class="cls-4" d="M313.89,308.36l2,.52a1.76,1.76,0,0,1-.93-.59A1.84,1.84,0,0,0,313.89,308.36Z"/><path class="cls-5" d="M314.86,306.18a1.86,1.86,0,0,1,.86-.71h0a1.76,1.76,0,0,0-1.11.06,1.83,1.83,0,0,0-.86.71h0A1.83,1.83,0,0,1,314.86,306.18Z"/><path class="cls-5" d="M314.86,306.18a1.83,1.83,0,0,0-1.11.06l.84,1a1.84,1.84,0,0,1,.05-.57A1.79,1.79,0,0,1,314.86,306.18Z"/><polygon class="cls-4" points="317.77 305.99 317.77 305.99 317.77 305.99 317.77 305.99"/><polygon class="cls-4" points="315.72 305.47 315.72 305.47 315.72 305.47 315.72 305.47"/><polygon class="cls-4" points="317.06 307.11 317.06 307.11 317.06 307.11 317.77 305.99 317.77 305.99 317.77 305.99 317.06 307.11"/><path class="cls-4" d="M318.17,307a1.81,1.81,0,0,0-.4-1l-.71,1.12a1.77,1.77,0,0,1,.56-.14A2,2,0,0,1,318.17,307Z"/><polygon class="cls-4" points="317.89 308.11 317.89 308.11 317.89 308.11 317.89 308.11"/><polygon class="cls-4" points="317.06 307.11 317.06 307.11 317.06 307.11 317.06 307.11"/><path class="cls-4" d="M316.78,308.18a1.83,1.83,0,0,1,1.11-.07h0a1.9,1.9,0,0,0,.24-.52,2.15,2.15,0,0,0,0-.56,2,2,0,0,0-.55-.06,1.77,1.77,0,0,0-.56.14h0A1.81,1.81,0,0,1,316.78,308.18Z"/><polygon class="cls-4" points="315.93 308.88 317.89 308.11 317.89 308.11 317.89 308.11 315.93 308.88"/><path class="cls-4" d="M316.78,308.18a1.73,1.73,0,0,1-.85.7l2-.77A1.83,1.83,0,0,0,316.78,308.18Z"/><path class="cls-4" d="M317,308.81a1.78,1.78,0,0,0,.86-.7l-2,.77A1.9,1.9,0,0,1,317,308.81Z"/><path class="cls-4" d="M315.93,308.88a1.72,1.72,0,0,0,1.1-.07A1.9,1.9,0,0,0,315.93,308.88Z"/><polygon class="cls-4" points="315.8 306.78 315.8 306.78 315.8 306.78 315.72 305.47 315.72 305.47 315.72 305.47 315.8 306.78"/><polygon class="cls-4" points="315.8 306.78 315.8 306.78 315.8 306.78 315.8 306.78"/><polygon class="cls-4" points="317.06 307.11 317.06 307.11 317.06 307.11 317.06 307.11"/><polygon class="cls-4" points="315.93 308.88 317.06 307.11 317.06 307.11 317.06 307.11 315.93 308.88"/><path class="cls-4" d="M316.78,308.18a1.81,1.81,0,0,0,.28-1.07l-1.13,1.77A1.81,1.81,0,0,1,316.78,308.18Z"/><path class="cls-4" d="M316.78,308.18a1.81,1.81,0,0,0-.85.7A1.73,1.73,0,0,0,316.78,308.18Z"/><polygon class="cls-4" points="315.8 306.78 315.8 306.78 315.8 306.78 315.8 306.78"/><polygon class="cls-4" points="314.59 307.26 314.59 307.26 314.59 307.26 314.59 307.26"/><polygon class="cls-4" points="315.93 308.88 315.8 306.78 315.8 306.78 315.8 306.78 315.93 308.88"/><polygon class="cls-4" points="315.93 308.88 314.59 307.26 314.59 307.26 314.59 307.26 315.93 308.88"/><path class="cls-4" d="M315,308.29a1.86,1.86,0,0,1,.93.59l-1.34-1.62A1.84,1.84,0,0,0,315,308.29Z"/><path class="cls-4" d="M315,308.29a1.76,1.76,0,0,0,.93.59A1.86,1.86,0,0,0,315,308.29Z"/><path class="cls-4" d="M315.8,306.78l-.08-1.31a1.86,1.86,0,0,0-.86.71,1.81,1.81,0,0,1,.52.22A1.9,1.9,0,0,1,315.8,306.78Z"/><path class="cls-4" d="M315.53,307.86a1.8,1.8,0,0,1,.27-1.08h0a1.9,1.9,0,0,0-.42-.38.4.4,0,0,0-.74.29,1.84,1.84,0,0,0-.05.57h0A1.84,1.84,0,0,1,315.53,307.86Z"/><path class="cls-4" d="M315.53,307.86a1.74,1.74,0,0,1,.4,1l-.13-2.1A1.8,1.8,0,0,0,315.53,307.86Z"/><path class="cls-4" d="M315.53,307.86a1.84,1.84,0,0,0-.94-.6l1.34,1.62A1.74,1.74,0,0,1,315.53,307.86Z"/><path class="cls-4" d="M315.53,307.86a1.74,1.74,0,0,0,.4,1A1.74,1.74,0,0,0,315.53,307.86Z"/><path class="cls-7" d="M559.8,107.31A77.56,77.56,0,0,0,450.61,96.94L317.77,306a1.84,1.84,0,0,1,.94.6,1.77,1.77,0,0,1,.4,1L549.44,216.5h0A77.56,77.56,0,0,0,559.8,107.31Z"/><path class="cls-7" d="M313.15,311.18a1.8,1.8,0,0,1-.4-1L82.43,401.26a77.56,77.56,0,1,0,98.82,119.56L314.1,311.77A1.78,1.78,0,0,1,313.15,311.18Z"/><path class="cls-8" d="M631.71,289.15a77.56,77.56,0,0,0-82.24-72.57l-230.35,91a1.79,1.79,0,0,1,.13,2.11L559.14,371.4A77.57,77.57,0,0,0,631.71,289.15Z"/><path class="cls-8" d="M312.33,309.11a1.81,1.81,0,0,1,.29-1.08L72.72,246.37h0A77.56,77.56,0,1,0,82.4,401.18l230.35-91A1.79,1.79,0,0,1,312.33,309.11Z"/><path class="cls-7" d="M475.88,502.47l-157.77-191a1.78,1.78,0,0,1-.85.72,1.84,1.84,0,0,1-1.11.06l15.48,247.21a77.56,77.56,0,0,0,144.25-57Z"/><path class="cls-7" d="M300.23,58.26A77.56,77.56,0,0,0,156,115.3h0L313.75,306.24a1.83,1.83,0,0,1,.86-.71,1.76,1.76,0,0,1,1.11-.06Z"/><path class="cls-6" d="M331.55,559.51,316.14,312.3a1.74,1.74,0,0,1-1.11.07,1.68,1.68,0,0,1-.93-.6L181.32,520.87a77.56,77.56,0,0,0,150.23,38.64Z"/><path class="cls-6" d="M394.75,2.46a77.55,77.55,0,0,0-94.43,55.8l15.4,247.21a1.75,1.75,0,0,1,1.11-.08,1.87,1.87,0,0,1,.94.6L450.54,96.9h0A77.56,77.56,0,0,0,394.75,2.46Z"/><g class="cls-9"><path class="cls-10" d="M550.15,384.52h0l-215-55.35a1.62,1.62,0,0,1-.24,1,1.64,1.64,0,0,1-.78.63L475.59,501.91a69.53,69.53,0,0,0,74.56-117.39Z"/><path class="cls-10" d="M330.17,326,188.67,154.9A69.53,69.53,0,1,0,114.1,272.28l215.06,55.36a1.55,1.55,0,0,1,.24-1A1.57,1.57,0,0,1,330.17,326Z"/><path class="cls-10" d="M550.77,147.69a69.55,69.55,0,0,0-97.9-9.3L333.77,325.81a1.64,1.64,0,0,1,.85.53,1.66,1.66,0,0,1,.36.93l206.49-81.69h0A69.53,69.53,0,0,0,550.77,147.69Z"/><path class="cls-10" d="M329.64,330.46a1.58,1.58,0,0,1-.37-.93l-206.49,81.7a69.53,69.53,0,0,0,88.6,107.19L330.48,331A1.52,1.52,0,0,1,329.64,330.46Z"/><path class="cls-10" d="M615.23,310.71a69.53,69.53,0,0,0-73.73-65.06L335,327.28a1.57,1.57,0,0,1,.37.92,1.54,1.54,0,0,1-.25,1l215.07,55.28A69.53,69.53,0,0,0,615.23,310.71Z"/><path class="cls-10" d="M328.9,328.61a1.61,1.61,0,0,1,.26-1L114.08,272.36h0a69.53,69.53,0,0,0,8.67,138.79l206.52-81.62A1.57,1.57,0,0,1,328.9,328.61Z"/><path class="cls-10" d="M475.53,502,334.08,330.77a1.55,1.55,0,0,1-.76.64,1.64,1.64,0,0,1-1,.06L346.21,553.1A69.53,69.53,0,1,0,475.53,502Z"/><path class="cls-10" d="M318.05,103.71a69.53,69.53,0,0,0-129.32,51.14h0L330.17,326a1.62,1.62,0,0,1,.77-.64,1.64,1.64,0,0,1,1-.06Z"/><path class="cls-10" d="M346.13,553.1,332.32,331.47a1.62,1.62,0,0,1-1,.06,1.6,1.6,0,0,1-.84-.54l-119,187.47A69.53,69.53,0,1,0,346.13,553.1Z"/><path class="cls-10" d="M402.79,53.69a69.53,69.53,0,0,0-84.66,50l13.81,221.63a1.66,1.66,0,0,1,1-.07,1.62,1.62,0,0,1,.84.54l119-187.46h0A69.53,69.53,0,0,0,402.79,53.69Z"/></g><path class="cls-5" d="M316.66,306.07a1.83,1.83,0,0,1,1.11-.08h0a1.87,1.87,0,0,0-.94-.6,1.75,1.75,0,0,0-1.11.08h0A1.8,1.8,0,0,1,316.66,306.07Z"/><path class="cls-5" d="M317,306.54a1.92,1.92,0,0,1,.11.57l.71-1.12a1.83,1.83,0,0,0-1.11.08A2.47,2.47,0,0,1,317,306.54Z"/><path class="cls-5" d="M316.66,306.07a1.8,1.8,0,0,0-.94-.6l.08,1.31a1.69,1.69,0,0,1,.37-.43A1.72,1.72,0,0,1,316.66,306.07Z"/><path class="cls-5" d="M316.21,307.82a1.74,1.74,0,0,1,.85-.71h0a1.92,1.92,0,0,0-.11-.57,2.47,2.47,0,0,0-.29-.47,1.72,1.72,0,0,0-.49.28,1.69,1.69,0,0,0-.37.43h0A1.9,1.9,0,0,1,316.21,307.82Z"/><path class="cls-5" d="M316.21,307.82a1.78,1.78,0,0,1-.28,1.06l1.13-1.77A1.74,1.74,0,0,0,316.21,307.82Z"/><path class="cls-5" d="M316.21,307.82a1.9,1.9,0,0,0-.41-1l.13,2.1A1.76,1.76,0,0,1,316.21,307.82Z"/><path class="cls-5" d="M316.21,307.82a1.76,1.76,0,0,0-.28,1.06A1.78,1.78,0,0,0,316.21,307.82Z"/><circle class="cls-11" cx="323.13" cy="321.06" r="36"/><path class="cls-12" d="M307.46,95.37,324.15,135l16.57,39.69,16.57,39.7c5.54,13.22,10.94,26.5,16.42,39.75l32.76,79.55c5.43,13.27,11,26.5,16.48,39.73l16.56,39.7,33.14,79.39,33,79.45q16.54,39.71,32.82,79.52t32.63,79.6l-.11,0q-16.74-39.61-33.27-79.33T504.61,572.4l-32.92-79.48-32.76-79.54-16.39-39.77q-8.19-19.89-16.47-39.74l-33.15-79.38c-5.51-13.24-11.08-26.45-16.53-39.71L340,175l-16.38-39.77L307.36,95.42Z"/><path class="cls-12" d="M386.58,65.18l11.75,41.56L410,148.33l11.63,41.6c3.89,13.86,7.64,27.75,11.47,41.63l22.86,83.3c3.78,13.89,7.66,27.75,11.54,41.62l11.61,41.6,23.27,83.18,23.09,83.23Q537,606.1,548.36,647.77l22.72,83.34-.11,0L547.57,648q-11.67-41.58-23.2-83.2l-23-83.25-22.87-83.3L467,356.6c-3.81-13.88-7.62-27.77-11.53-41.62l-23.27-83.19c-3.85-13.87-7.79-27.72-11.59-41.6l-11.43-41.65-11.43-41.65L386.47,65.21Z"/><path class="cls-12" d="M228.53,71.61l21.61,41.11,21.5,41.17,21.5,41.17c7.18,13.72,14.23,27.5,21.35,41.25l42.63,82.53q10.62,20.66,21.42,41.22L400,401.24l43,82.34L485.88,566q21.48,41.18,42.69,82.5l42.51,82.6-.1,0-43.14-82.27q-21.53-41.16-42.94-82.37l-42.79-82.46-42.63-82.53-21.34-41.26q-10.65-20.62-21.4-41.22l-43-82.34c-7.15-13.73-14.37-27.42-21.46-41.19L271,154.25,249.63,113l-21.2-41.32Z"/><path class="cls-12" d="M184.18,155.71l24.38,35.83,24.26,35.9,24.26,35.91c8.1,12,16.09,24,24.13,36l48.19,72.05q12,18,24.19,35.95l24.25,35.92,48.53,71.8L474.76,587Q499,622.88,523,659l48.06,72.12-.09.06-48.66-71.72Q498,623.55,473.85,587.58l-48.34-71.94-48.19-72-24.1-36q-12.06-18-24.18-36L280.5,299.82c-8.07-12-16.21-23.91-24.23-35.92l-24.1-36-24.09-36-24-36.09Z"/><path class="cls-12" d="M92.87,184l30.06,34,30,34.13,30,34.12c10,11.37,19.89,22.83,29.84,34.24l59.61,68.52q14.88,17.16,29.89,34.19l30,34.14,59.93,68.25L451.89,594q30,34.14,59.67,68.48l59.51,68.62-.09.07-60-68.15q-30-34.11-59.88-68.29l-59.75-68.41-59.62-68.53-29.82-34.25Q287,406.4,272,389.34l-59.94-68.25c-10-11.39-20-22.72-29.93-34.15l-29.81-34.26-29.82-34.26L92.78,184.07Z"/><path class="cls-12" d="M113.13,267.54l28.78,28.81,28.69,28.9,28.7,28.9c9.57,9.63,19,19.35,28.58,29L285,441.26q14.23,14.55,28.62,29l28.69,28.91,57.39,57.8,57.26,57.92q28.68,28.92,57.15,58t57,58.19l-.08.08q-28.83-28.77-57.5-57.69t-57.34-57.84l-57.22-58-57.1-58.09-28.55-29Q299,456,284.66,441.56l-57.39-57.79c-9.56-9.65-19.16-19.24-28.67-28.93l-28.55-29-28.55-29-28.45-29.14Z"/><path class="cls-12" d="M56.78,337.81l32.29,24.4,32.2,24.5,32.2,24.49c10.75,8.16,21.4,16.43,32.11,24.63l64.15,49.33q16,12.36,32.15,24.57l32.2,24.51,64.41,49,64.3,49.13Q475,656.88,507,681.64t64.07,49.44l-.07.09q-32.31-24.36-64.5-48.88t-64.37-49l-64.26-49.19L313.7,534.74l-32.09-24.65c-10.69-8.22-21.38-16.45-32.14-24.59l-64.41-49c-10.73-8.18-21.5-16.3-32.18-24.53L120.8,387.32,88.72,362.66l-32-24.76Z"/><path class="cls-12" d="M121.37,399.86l28.24,20.51L177.78,441l28.16,20.62c9.4,6.86,18.71,13.84,28.07,20.75l56.09,41.58q14,10.42,28.11,20.69l28.15,20.63L402.7,606.5l56.23,41.37q28.15,20.64,56.13,41.52t56,41.69l-.07.09q-28.28-20.48-56.42-41.12t-56.29-41.29l-56.2-41.43L346,565.76,317.94,545q-14-10.4-28.1-20.71L233.5,483.05c-9.38-6.89-18.8-13.71-28.14-20.65l-28.05-20.78-28-20.79L121.3,400Z"/><path class="cls-12" d="M119.08,488.16l28.35,15,28.3,15.09L204,533.32c9.44,5,18.81,10.16,28.22,15.24l56.39,30.55c9.39,5.12,18.82,10.15,28.25,15.18l28.29,15.1q56.63,30.14,113.13,60.49Q486.57,685,514.72,700.4t56.33,30.67l0,.1q-28.38-14.92-56.67-30t-56.57-30.21q-56.55-30.28-112.87-61l-28.21-15.26c-9.4-5.09-18.79-10.19-28.24-15.19l-56.6-30.18c-9.42-5-18.88-10-28.28-15.12l-28.2-15.28-28.2-15.27L119,488.26Z"/><path class="cls-12" d="M203.72,509.86q46.22,27.15,92,54.95l45.77,27.88c7.63,4.65,15.3,9.23,23,13.81l23,13.75q46.05,27.42,92,55.07,23,13.8,45.83,27.8t45.74,28l-.06.1q-23.12-13.57-46.1-27.35t-46-27.5q-46-27.59-91.69-55.54l-22.92-13.9c-7.63-4.64-15.27-9.28-22.94-13.85l-46.06-27.42q-46-27.54-91.62-55.66Z"/><path class="cls-12" d="M259.78,576.71q39.17,18.78,78,38.22c12.94,6.5,25.82,13.1,38.79,19.54,6.46,3.26,13,6.44,19.46,9.63l19.5,9.57q39,19.05,77.94,38.34c13,6.42,25.9,12.94,38.83,19.45s25.87,13,38.75,19.61l0,.1q-19.57-9.39-39.07-19t-39-19.14q-39-19.23-77.7-38.84l-19.42-9.73c-6.47-3.24-12.93-6.49-19.44-9.67-13-6.41-26-12.68-39-19.05q-39-19.17-77.63-39Z"/><path class="cls-12" d="M334,534.94Q364,559,393.5,583.66c9.83,8.23,19.59,16.54,29.46,24.73,4.91,4.12,9.88,8.17,14.84,12.24l14.87,12.19q29.81,24.31,59.45,48.82c9.89,8.16,19.71,16.41,29.53,24.65s19.66,16.47,29.41,24.79l-.07.09q-15-12-29.86-24.25t-29.75-24.38q-29.7-24.45-59.1-49.25L437.51,621c-4.92-4.11-9.83-8.23-14.8-12.28-9.89-8.16-19.89-16.19-29.81-24.31Q363.18,560,333.89,535Z"/><path class="cls-12" d="M422.5,563.8q19,20.54,37.45,41.55c6.13,7,12.19,14.11,18.36,21.09s12.4,13.93,18.66,20.84c12.51,13.82,25,27.66,37.35,41.63s24.63,28,36.75,42.18l-.09.07q-19-20.56-37.53-41.47c-12.43-13.9-24.69-28-36.94-42-6.12-7-12.25-14.06-18.49-21S465.49,612.9,459.25,606q-18.67-20.82-36.84-42.09Z"/><path class="cls-12" d="M457.16,486.24q14.76,30.38,28.85,61c4.68,10.24,9.26,20.52,14,30.73,2.34,5.11,4.74,10.2,7.15,15.29l7.2,15.26c9.65,20.34,19.28,40.67,28.73,61.1,4.76,10.2,9.41,20.44,14.08,30.68s9.34,20.48,13.92,30.76l-.11,0c-4.92-10.12-9.74-20.29-14.56-30.46s-9.66-20.33-14.39-30.53c-9.55-20.39-18.9-40.86-28.24-61.33l-7-15.34c-2.34-5.12-4.68-10.24-7.09-15.32-4.76-10.19-9.68-20.32-14.49-30.49q-14.36-30.55-28.11-61.39Z"/><path class="cls-12" d="M543,462.65q4.07,33.51,7.42,67.08c1.1,11.19,2.08,22.4,3.24,33.58.54,5.6,1.16,11.19,1.78,16.78l1.84,16.77c2.51,22.35,5,44.71,7.28,67.09,1.19,11.18,2.26,22.38,3.34,33.57s2.17,22.39,3.15,33.6H571c-1.36-11.17-2.61-22.34-3.86-33.52s-2.52-22.35-3.68-33.54c-2.39-22.37-4.58-44.76-6.74-67.15L555,580.14c-.55-5.6-1.1-11.2-1.72-16.79-1.19-11.18-2.54-22.35-3.78-33.53q-3.64-33.54-6.61-67.15Z"/><path class="cls-12" d="M539.35,377.23q4.54,44.19,8.35,88.44c1.25,14.75,2.38,29.51,3.69,44.26.62,7.37,1.32,14.74,2,22.11l2.07,22.11c2.82,29.48,5.62,59,8.21,88.45,1.33,14.74,2.56,29.5,3.79,44.25s2.48,29.51,3.61,44.27H571c-1.51-14.73-2.92-29.47-4.32-44.21s-2.83-29.47-4.14-44.22c-2.7-29.48-5.19-59-7.66-88.49L553,532.08c-.63-7.37-1.26-14.75-2-22.12-1.34-14.74-2.85-29.47-4.24-44.21q-4.1-44.22-7.52-88.51Z"/><path class="cls-12" d="M581.05,297.76q-.67,54.18-2.08,108.35l-1.52,54.17c-.25,9-.42,18.05-.6,27.08l-.53,27.09c-.66,36.12-1.33,72.23-2.22,108.35-.4,18.05-.91,36.11-1.42,54.16s-1,36.11-1.6,54.16H571c.22-18.06.56-36.12.89-54.18s.64-36.11,1.07-54.17q1.17-54.18,2.77-108.34l.71-27.08c.24-9,.48-18.05.65-27.08l1-54.18q1.11-54.18,2.9-108.33Z"/><path class="cls-12" d="M520,242.1l3.43,30.54,3.29,30.55,3.3,30.55c1.11,10.19,2.08,20.38,3.13,30.57l6.18,61.15c1,10.2,2.1,20.38,3.2,30.57l3.29,30.55q6.65,61.09,13.05,122.23Q562,639.37,565,670t6,61.17H571q-3.48-30.54-6.74-61.09c-2.22-20.37-4.45-40.73-6.56-61.11q-6.48-61.12-12.51-122.28l-3.11-30.58c-1-10.19-2.06-20.38-3.19-30.56l-6.6-61.11C531.18,354.22,530,344,529,333.85l-3.1-30.58-3.09-30.57-3-30.59Z"/><path class="cls-12" d="M524.39,152.89,527.53,189l3,36.13,3,36.13c1,12.05,1.9,24.1,2.86,36.15l5.62,72.29c.91,12.06,1.92,24.1,2.93,36.14L548,442l6,72.27,5.87,72.27c2,24.09,3.85,48.19,5.7,72.29s3.73,48.2,5.48,72.31H571q-3.21-36.12-6.19-72.25c-2-24.09-4.08-48.17-6-72.27L553,514.33,547.37,442l-2.83-36.14c-.94-12.05-1.88-24.1-2.91-36.14l-6-72.26c-1-12.05-2.06-24.09-3-36.14l-2.82-36.14L527,189.06l-2.69-36.16Z"/><path class="cls-12" d="M435.58,140l8.69,36.89,8.57,36.93,8.57,36.92c2.86,12.31,5.6,24.64,8.41,37l16.72,73.94c2.77,12.33,5.63,24.63,8.48,36.94l8.56,36.93,17.14,73.84,17,73.89q8.53,36.93,16.8,73.92t16.59,74l-.11,0q-8.75-36.89-17.28-73.82t-17.08-73.86l-16.9-73.9L503,435.63l-8.38-37c-2.79-12.32-5.58-24.64-8.46-37L469,287.87c-2.84-12.31-5.75-24.61-8.53-36.93l-8.37-37-8.37-37-8.24-37Z"/></svg>